<svg xmlns="http://www.w3.org/2000/svg" width="146" height="48" viewBox="0 0 146 48">
    <g fill="none" fill-rule="evenodd">
        <path fill="#1A1919" d="M145.918 41.526c0 3.574-2.887 6.474-6.448 6.474H6.45C2.888 48 0 45.1 0 41.526V6.57C0 2.995 2.888.097 6.45.097h133.02c3.561 0 6.448 2.898 6.448 6.473v34.956"/>
        <path fill="#FFFFFE" d="M38.051 31.76c-.772 1.719-1.142 2.486-2.136 4.004-1.388 2.121-3.344 4.761-5.767 4.784-2.154.02-2.707-1.407-5.63-1.39-2.922.015-3.532 1.415-5.687 1.395-2.423-.022-4.276-2.407-5.664-4.527-3.88-5.929-4.286-12.886-1.893-16.585 1.701-2.629 4.383-4.168 6.907-4.168 2.568 0 4.183 1.414 6.307 1.414 2.06 0 3.316-1.416 6.285-1.416 2.245 0 4.624 1.226 6.319 3.348-5.553 3.054-4.651 11.014.96 13.142"/>
        <path fill="#FFFFFE" d="M28.52 12.903c1.079-1.39 1.899-3.354 1.602-5.36-1.762.122-3.825 1.248-5.029 2.715C24 11.59 23.1 13.566 23.45 15.485c1.924.06 3.915-1.093 5.07-2.582M51.193 22.051a42.1 42.1 0 0 0 .65 2.317l1.498 4.354h-4.263l1.477-4.382c.225-.71.439-1.479.638-2.289zm-1.32-2.7l-5.558 16.422h2.545l1.66-5.042h5.383l1.706 5.042h2.616l-5.583-16.422h-2.768zM64.802 25.665c2.207 0 3.195 2.052 3.195 4.085 0 2.622-1.26 4.252-3.29 4.252a3.004 3.004 0 0 1-2.916-2.306 3.18 3.18 0 0 1-.088-.804v-1.998c0-.181.04-.4.08-.614.011-.068.025-.135.035-.201.369-1.422 1.594-2.414 2.984-2.414zm.617-2.057c-1.687 0-3.037.654-3.936 1.895l-.099-1.633H59.12l.013.209c.067 1.017.095 2.137.095 3.745v12.658h2.475v-5.907c.768.923 1.995 1.46 3.384 1.46 1.448 0 2.78-.57 3.752-1.601 1.084-1.15 1.656-2.804 1.656-4.78 0-1.745-.496-3.254-1.438-4.363a4.703 4.703 0 0 0-3.638-1.683zM77.55 25.665c2.207 0 3.195 2.052 3.195 4.085 0 2.622-1.261 4.252-3.289 4.252a3.004 3.004 0 0 1-2.916-2.306 3.184 3.184 0 0 1-.088-.804v-1.998c0-.182.04-.403.08-.616l.035-.2c.368-1.42 1.594-2.413 2.984-2.413zm.617-2.057c-1.686 0-3.036.654-3.936 1.895l-.099-1.633H71.87l.012.209c.067 1.018.096 2.137.096 3.745v12.658h2.475v-5.907c.768.923 1.994 1.46 3.384 1.46 1.446 0 2.78-.57 3.753-1.601 1.083-1.15 1.655-2.804 1.655-4.78 0-1.745-.498-3.254-1.439-4.363a4.7 4.7 0 0 0-3.638-1.683zM94.138 26.31c-2.31-.899-3.05-1.605-3.05-2.91 0-1.098.87-2.206 2.813-2.206 1.604 0 2.63.56 2.907.732l.21.13.698-2.074-.138-.08c-.415-.245-1.597-.812-3.605-.812-3.157 0-5.362 1.87-5.362 4.548 0 2.159 1.38 3.668 4.345 4.75 2.1.788 2.883 1.595 2.883 2.98 0 1.566-1.207 2.538-3.147 2.538-1.264 0-2.564-.37-3.568-1.015l-.215-.138-.665 2.12.123.082c.934.626 2.693 1.08 4.184 1.08 4.255 0 5.763-2.604 5.763-4.834 0-2.299-1.21-3.717-4.176-4.891M102.77 21.04l-2.427.766v2.064h-1.778v1.985h1.778v6.083c0 1.47.28 2.501.857 3.153.553.608 1.404.944 2.395.944.936 0 1.6-.186 1.914-.297l.139-.05-.12-1.989-.237.073c-.313.097-.634.134-1.151.134-.96 0-1.37-.61-1.37-2.04v-6.01h2.987V23.87h-2.986v-2.83M111.82 25.57c2.228 0 3.242 2.179 3.242 4.204 0 2.491-1.384 4.299-3.288 4.299h-.024c-1.877 0-3.24-1.778-3.24-4.227 0-2.128 1.024-4.276 3.31-4.276zm.072-1.962c-3.464 0-5.882 2.595-5.882 6.308 0 3.603 2.34 6.119 5.693 6.119h.023c2.834 0 5.883-1.982 5.883-6.333 0-1.768-.546-3.288-1.578-4.394-1.038-1.112-2.47-1.7-4.139-1.7zM125.192 23.724l-.149-.038a2.366 2.366 0 0 0-.615-.078c-1.296 0-2.458.766-3.105 2l-.072-1.738h-2.222l.014.209c.066.983.094 2.087.094 3.577l-.023 8.117h2.475v-6.332c0-.345.024-.67.069-.963.279-1.521 1.302-2.504 2.605-2.504.253 0 .452.02.664.042l.265.027v-2.32M130.593 25.475c.754 0 1.365.234 1.817.696.712.727.837 1.799.853 2.313h-5.646c.23-1.435 1.124-3.009 2.976-3.009zm.165-1.89c-3.296 0-5.598 2.643-5.598 6.427 0 3.644 2.29 5.999 5.835 5.999 1.864 0 3.16-.41 3.92-.755l.148-.067-.475-1.851-.207.083c-.675.276-1.572.557-3.102.557-1.075 0-3.556-.356-3.708-3.603l7.991.024.032-.158c.05-.253.075-.593.075-1.037 0-2.592-1.286-5.62-4.911-5.62zM45.438 15.018c.281.046.69.046 1.124.046 2.375.01 3.664-1.2 3.664-3.298.013-1.857-1.136-2.999-3.485-2.999-.574 0-1.009.047-1.303.104v6.147zm-1.123-6.885a17.93 17.93 0 0 1 2.375-.161c1.596 0 2.732.323 3.485.957.779.634 1.226 1.545 1.226 2.802 0 1.269-.447 2.306-1.238 3.021-.818.727-2.146 1.119-3.818 1.119-.804 0-1.455-.023-2.03-.092V8.133zM55.421 15.167c1.073 0 1.877-.91 1.877-2.18 0-.945-.523-2.133-1.851-2.133-1.315 0-1.89 1.108-1.89 2.169 0 1.222.766 2.144 1.851 2.144h.013zm-.038.761c-1.66 0-2.962-1.106-2.962-2.87 0-1.869 1.366-2.965 3.064-2.965 1.775 0 2.975 1.165 2.975 2.86 0 2.076-1.596 2.975-3.064 2.975h-.013zM60.237 10.22l.83 2.826c.166.622.332 1.21.447 1.787h.038c.14-.565.345-1.165.55-1.776l1.008-2.837h.945l.958 2.79c.229.658.408 1.258.548 1.823h.039c.102-.565.268-1.153.472-1.81l.88-2.803h1.112l-1.992 5.582h-1.021l-.945-2.664a18.342 18.342 0 0 1-.55-1.845h-.025a15.39 15.39 0 0 1-.562 1.856l-.995 2.653h-1.022l-1.864-5.582h1.15M69.188 11.731c0-.588-.013-1.05-.051-1.51h.996l.063.91h.026c.307-.519 1.021-1.038 2.043-1.038.855 0 2.183.462 2.183 2.376v3.333h-1.123v-3.218c0-.9-.371-1.66-1.43-1.66-.728 0-1.303.473-1.507 1.038a1.372 1.372 0 0 0-.077.473v3.367h-1.123v-4.07M76.274 15.802h1.123V7.614h-1.123zM81.815 15.167c1.072 0 1.877-.91 1.877-2.18 0-.945-.524-2.133-1.851-2.133-1.316 0-1.89 1.108-1.89 2.169 0 1.222.766 2.144 1.851 2.144h.013zm-.038.761c-1.66 0-2.962-1.106-2.962-2.87 0-1.869 1.365-2.965 3.064-2.965 1.774 0 2.974 1.165 2.974 2.86 0 2.076-1.596 2.975-3.064 2.975h-.012zM89.527 12.953c-1.226-.023-2.617.173-2.617 1.257 0 .67.485.969 1.047.969.817 0 1.34-.461 1.519-.934a.935.935 0 0 0 .051-.323v-.969zm1.098 1.511c0 .484.026.957.09 1.338h-1.01l-.102-.704h-.037c-.332.439-1.01.83-1.89.83-1.25 0-1.89-.795-1.89-1.603 0-1.349 1.328-2.087 3.715-2.075v-.116c0-.46-.14-1.302-1.404-1.29-.588 0-1.187.149-1.621.414l-.256-.68c.511-.288 1.264-.485 2.043-.485 1.903 0 2.362 1.165 2.362 2.284v2.087zM96.639 12.492c0-.138-.013-.3-.052-.438-.165-.634-.778-1.165-1.62-1.165-1.163 0-1.852.923-1.852 2.145 0 1.142.626 2.075 1.826 2.075.753 0 1.443-.46 1.646-1.21.04-.138.052-.277.052-.438v-.969zm1.123-4.878v6.746c0 .496.014 1.06.051 1.442h-1.008l-.05-.969h-.027c-.344.623-1.085 1.095-2.093 1.095-1.495 0-2.656-1.14-2.656-2.836-.013-1.869 1.277-2.999 2.77-2.999.958 0 1.596.404 1.865.842h.025v-3.32h1.123zM104.887 15.167c1.072 0 1.876-.91 1.876-2.18 0-.945-.522-2.133-1.85-2.133-1.316 0-1.89 1.108-1.89 2.169 0 1.222.766 2.144 1.85 2.144h.014zm-.039.761c-1.66 0-2.962-1.106-2.962-2.87 0-1.869 1.367-2.965 3.065-2.965 1.775 0 2.975 1.165 2.975 2.86 0 2.076-1.597 2.975-3.064 2.975h-.014zM109.344 11.731c0-.588-.013-1.05-.052-1.51h.996l.065.91h.025c.306-.519 1.02-1.038 2.042-1.038.856 0 2.184.462 2.184 2.376v3.333h-1.124v-3.218c0-.9-.37-1.66-1.43-1.66-.727 0-1.303.473-1.507 1.038a1.38 1.38 0 0 0-.076.473v3.367h-1.123v-4.07M120.49 8.883v1.337h1.608v.773h-1.608v3.01c0 .691.217 1.084.843 1.084.306 0 .485-.023.65-.07l.052.773c-.217.07-.562.138-.996.138-.524 0-.945-.161-1.214-.426-.306-.312-.433-.808-.433-1.465v-3.044h-.958v-.773h.958V9.194l1.098-.311M123.363 7.614h1.123v3.483h.026c.178-.289.459-.554.805-.715a2.367 2.367 0 0 1 1.149-.289c.829 0 2.157.462 2.157 2.388v3.32H127.5v-3.205c0-.911-.37-1.66-1.43-1.66-.728 0-1.29.46-1.507 1.014-.064.138-.077.288-.077.485v3.367h-1.123V7.614M134.37 12.458c.011-.635-.295-1.65-1.546-1.65-1.15 0-1.635.946-1.724 1.65h3.27zm-3.283.726c.026 1.372.984 1.937 2.107 1.937.804 0 1.302-.127 1.711-.277l.205.715c-.397.162-1.086.358-2.069.358-1.89 0-3.039-1.142-3.039-2.814 0-1.695 1.111-3.021 2.91-3.021 2.019 0 2.541 1.603 2.541 2.63 0 .207-.011.368-.037.484l-4.329-.012z"/>
    </g>
</svg>
