<svg xmlns="http://www.w3.org/2000/svg" xmlns:xlink="http://www.w3.org/1999/xlink" width="146" height="48" viewBox="0 0 146 48">
    <defs>
        <path id="a" d="M.64.192l15.756 15.653L.508 31.629c-.246-.083-.404-.327-.404-.684v-15.1-14.8c0-.477.22-.764.537-.853"/>
        <linearGradient id="b" x1="29.595%" x2="29.595%" y1="-1.598%" y2="101.176%">
            <stop offset="0%" stop-color="#87C8B2"/>
            <stop offset="100%" stop-color="#2C729D"/>
        </linearGradient>
        <path id="d" d="M20.202 11.497l-4.376 4.348L.07.192C.31.124.609.17.909.336l9.185 5.314 3.531 2.043 6.577 3.804"/>
        <linearGradient id="e" x1="0%" x2="75.09%" y1="23.909%" y2="23.909%">
            <stop offset="0%" stop-color="#53B8A0"/>
            <stop offset="100%" stop-color="#DBE596"/>
        </linearGradient>
        <path id="g" d="M.223 15.915L16.111.13l4.375 4.347-6.576 3.804-12.427 7.19-.57.33c-.261.146-.502.177-.69.114"/>
        <linearGradient id="h" x1="37.544%" x2="37.544%" y1="49.79%" y2="101.55%">
            <stop offset="0%" stop-color="#7D4589"/>
            <stop offset="100%" stop-color="#DA3E3E"/>
        </linearGradient>
        <path id="j" d="M10.89 3.754l.066.038c.555.34.595.895-.104 1.307l-1.018.589-5.316 3.075L.142 4.416 4.518.068s5.74 3.345 6.366 3.683l.006.003"/>
        <linearGradient id="k" x1="80.794%" x2="80.794%" y1="35.987%" y2="63.59%">
            <stop offset="0%" stop-color="#F7C374"/>
            <stop offset="100%" stop-color="#E88172"/>
        </linearGradient>
    </defs>
    <g fill="none" fill-rule="evenodd">
        <path fill="#1A1919" d="M145.852 41.512c0 3.567-2.886 6.46-6.446 6.46H6.447C2.887 47.973 0 45.08 0 41.513V6.629C0 3.062 2.887.17 6.447.17h132.959c3.56 0 6.446 2.893 6.446 6.46v34.883"/>
        <g transform="translate(10.836 9.714)">
            <mask id="c" fill="#fff">
                <use xlink:href="#a"/>
            </mask>
            <path fill="url(#b)" d="M20.772 11.497l-6.577-3.804L1.51.353C.806-.054.104.193.104 1.044v29.9c0 .639.502.914 1.114.56l12.977-7.508 6.577-3.804 6.321-3.657c.742-.43.67-1.018.045-1.356-.626-.338-6.366-3.682-6.366-3.682" mask="url(#c)"/>
        </g>
        <g transform="translate(11.406 9.714)">
            <mask id="f" fill="#fff">
                <use xlink:href="#d"/>
            </mask>
            <path fill="url(#e)" d="M20.202 11.497l-6.577-3.804L.94.353C.235-.054-.466.193-.466 1.044v29.9c0 .639.501.914 1.113.56l12.978-7.508 6.576-3.804 6.322-3.657c.742-.43.67-1.018.044-1.356-.625-.338-6.365-3.682-6.365-3.682" mask="url(#f)"/>
        </g>
        <g transform="translate(11.121 25.429)">
            <mask id="i" fill="#fff">
                <use xlink:href="#g"/>
            </mask>
            <path fill="url(#h)" d="M20.487-4.217L13.91-8.022 1.225-15.36c-.705-.407-1.406-.16-1.406.691v29.9c0 .639.502.914 1.113.56L13.91 8.281l6.576-3.804L26.808.821c.742-.43.67-1.018.045-1.356-.626-.338-6.366-3.682-6.366-3.682" mask="url(#i)"/>
        </g>
        <g transform="translate(27.09 21.143)">
            <mask id="l" fill="#fff">
                <use xlink:href="#j"/>
            </mask>
            <path fill="url(#k)" d="M4.518.068l-6.577-3.804-12.685-7.34c-.704-.407-1.406-.16-1.406.692v29.9c0 .638.502.913 1.114.56.611-.355 12.977-7.509 12.977-7.509l6.577-3.804 6.321-3.656c.742-.43.67-1.018.045-1.356C10.258 3.413 4.518.068 4.518.068" mask="url(#l)"/>
        </g>
        <path fill="#F9F8F7" d="M113.303 23.34c-.96 0-1.654.266-2.083.799-.429.532-.649 1.38-.66 2.543v.317c0 1.323.22 2.27.66 2.84.44.57 1.146.854 2.117.854.812 0 1.448-.33 1.909-.988.46-.658.69-1.566.69-2.723 0-1.174-.23-2.075-.69-2.702-.46-.627-1.109-.94-1.943-.94zm.206 8.547a4.06 4.06 0 0 1-1.676-.34 3.16 3.16 0 0 1-1.274-1.043h-.102c.068.55.102 1.071.102 1.563v3.874h-1.422v-13.64h1.157l.197 1.288h.068c.367-.516.793-.888 1.278-1.117.486-.229 1.044-.343 1.672-.343 1.246 0 2.208.426 2.885 1.28.677.853 1.016 2.05 1.016 3.59 0 1.546-.345 2.747-1.033 3.604-.689.856-1.645 1.284-2.868 1.284zM119.282 31.715h1.423V18.349h-1.423zM125.672 30.71c.885 0 1.581-.243 2.087-.73.506-.486.76-1.168.76-2.045v-.85l-1.425.06c-1.131.04-1.946.216-2.447.529-.5.312-.75.797-.75 1.456 0 .515.155.907.467 1.176.312.27.747.404 1.308.404zm3.215 1.005l-.284-1.34h-.068c-.469.59-.936.99-1.402 1.198-.465.21-1.047.314-1.744.314-.932 0-1.662-.24-2.19-.722-.53-.481-.794-1.165-.794-2.052 0-1.902 1.518-2.898 4.552-2.99l1.595-.052v-.584c0-.738-.158-1.284-.476-1.636-.317-.352-.825-.528-1.521-.528-.784 0-1.67.24-2.658.721l-.437-1.09c.463-.253.97-.45 1.522-.593a6.575 6.575 0 0 1 1.658-.215c1.12 0 1.95.249 2.491.747.54.498.81 1.297.81 2.397v6.425h-1.054zM130.767 22.3h1.526l2.057 5.37c.452 1.225.732 2.11.84 2.654h.07c.074-.293.23-.792.466-1.5.238-.707 1.014-2.881 2.328-6.523h1.527l-4.039 10.72c-.4 1.059-.867 1.81-1.402 2.255-.534.444-1.19.665-1.967.665a5.73 5.73 0 0 1-1.286-.146v-1.142c.314.069.666.103 1.055.103.977 0 1.674-.55 2.091-1.65l.523-1.339-3.789-9.466M86.32 28.177c.452-.454.491-1.083.491-1.438 0-1.417-.845-3.623-2.475-3.623-.512 0-1.062.256-1.376.65-.334.414-.433.945-.433 1.457 0 1.32.767 3.506 2.458 3.506a2.01 2.01 0 0 0 1.336-.552zm-.57 3.742c-.156-.02-.255-.02-.45-.02-.178 0-1.24.04-2.065.316-.432.156-1.69.629-1.69 2.028 0 1.397 1.356 2.403 3.46 2.403 1.885 0 2.888-.908 2.888-2.128 0-1.006-.648-1.536-2.143-2.6zm1.396-8.744c.452.375 1.395 1.162 1.395 2.659 0 1.456-.825 2.147-1.651 2.796-.256.255-.55.532-.55.966 0 .432.294.669.511.846l.708.55c.865.729 1.65 1.399 1.65 2.758 0 1.85-1.788 3.721-5.168 3.721-2.85 0-4.225-1.358-4.225-2.816 0-.709.352-1.712 1.513-2.402 1.217-.749 2.87-.846 3.754-.907-.276-.354-.59-.728-.59-1.337 0-.335.098-.532.196-.77-.217.02-.432.04-.63.04-2.082 0-3.261-1.556-3.261-3.09 0-.907.413-1.911 1.257-2.64 1.12-.925 2.457-1.083 3.52-1.083h4.047l-1.258.71h-1.218zM77.226 30.011c.472-.63.59-1.415.59-2.183 0-1.73-.824-5.033-3.258-5.033a2.73 2.73 0 0 0-1.765.67c-.766.687-.904 1.552-.904 2.399 0 1.945.962 5.149 3.337 5.149.765 0 1.55-.373 2-1.002zm-2.452 1.592c-3.12 0-4.788-2.438-4.788-4.64 0-2.576 2.1-4.776 5.083-4.776 2.883 0 4.689 2.26 4.689 4.64 0 2.318-1.785 4.776-4.984 4.776zM66.592 30.011c.47-.63.589-1.415.589-2.183 0-1.73-.825-5.033-3.258-5.033a2.73 2.73 0 0 0-1.766.67c-.765.687-.902 1.552-.902 2.399 0 1.945.96 5.149 3.336 5.149.765 0 1.55-.373 2-1.002zm-2.453 1.592c-3.12 0-4.788-2.438-4.788-4.64 0-2.576 2.1-4.776 5.082-4.776 2.884 0 4.69 2.26 4.69 4.64 0 2.318-1.786 4.776-4.984 4.776zM57.852 31.295l-2.821.653c-1.145.178-2.17.335-3.255.335-5.445 0-7.515-4.013-7.515-7.156 0-3.834 2.938-7.39 7.97-7.39 1.065 0 2.09.157 3.017.414 1.48.416 2.17.929 2.604 1.226l-1.638 1.561-.69.158.493-.791c-.67-.652-1.894-1.857-4.22-1.857-3.118 0-5.466 2.373-5.466 5.831 0 3.715 2.683 7.214 6.983 7.214 1.264 0 1.913-.257 2.506-.495v-3.181l-2.979.158 1.578-.851H58.6l-.512.494c-.14.119-.158.159-.198.316-.02.178-.04.751-.04.95v2.411"/>
        <path fill="#F9F8F7" d="M93.381 30.726c-.651-.06-.787-.177-.787-.949V18.59l.01-.127c.08-.692.277-.81.89-1.167H90.67l-1.48.712H90.7v.01-.008 12.202c0 .395-.079.455-.533 1.047h3.492l.73-.433c-.335-.041-.67-.06-1.007-.1M99.567 25.058c.372-.137.568-.255.568-.53 0-.784-.88-1.688-1.94-1.688-.784 0-2.252.609-2.252 2.728 0 .334.039.687.06 1.042l3.564-1.552zm1.841 5.85c-.214.118-.43.256-.645.353-.647.295-1.313.374-1.902.374-.625 0-1.606-.041-2.606-.766-1.39-.982-1.997-2.67-1.997-4.142 0-3.043 2.469-4.534 4.486-4.534.706 0 1.431.176 2.02.55.978.646 1.233 1.49 1.369 1.942L97.53 26.55l-1.508.117c.489 2.493 2.173 3.945 4.035 3.945.999 0 1.724-.353 2.39-.686l-1.039.981zM103.3 22.327v1.295h-.158v-1.295h-.427v-.134h1.012v.134h-.428M105.062 23.622v-1.307h-.008l-.398 1.307h-.123l-.401-1.307h-.005v1.307h-.143v-1.43h.245l.363 1.156h.005l.358-1.155h.248v1.43h-.141"/>
        <path fill="#FCFBFA" d="M46.763 12.154c-.349-1.056-.524-1.627-.524-1.713h-.049c0 .08-.18.65-.542 1.713h1.115zm1.415 1.734h-.98c0-.135-.093-.518-.279-1.148h-1.415c-.192.62-.288 1.003-.288 1.148h-.922c0-.08.239-.735.715-1.965.477-1.229.716-1.906.716-2.031h1.158c0 .116.215.784.647 2.002.432 1.219.648 1.883.648 1.994zM52.128 13.888h-.757c0-.084-.28-.527-.842-1.33-.588-.844-.923-1.422-1.004-1.733h-.05c.052.448.077.853.077 1.215 0 .505.014 1.121.043 1.848h-.754c.031-.634.046-1.331.046-2.09 0-.747-.015-1.383-.046-1.906h.91c0 .108.252.541.757 1.298.537.804.845 1.35.925 1.636h.046a11.601 11.601 0 0 1-.074-1.228c0-.554-.014-1.123-.043-1.706h.766a34.702 34.702 0 0 0-.043 1.906c0 .769.014 1.466.043 2.09M55.732 11.884c0-.393-.115-.724-.343-.993-.229-.27-.578-.404-1.048-.404-.088 0-.208.01-.361.028.02.409.03.836.03 1.283 0 .489.01.974.03 1.455.134.026.266.04.4.04.438 0 .763-.137.975-.41.211-.274.317-.606.317-1zm.836-.132c0 .58-.186 1.088-.558 1.522-.371.434-.892.65-1.562.65-.302 0-.719-.012-1.25-.036.027-.618.04-1.315.04-2.09 0-.745-.013-1.38-.04-1.906h.537c.087 0 .218-.003.392-.01.173-.006.287-.009.34-.009.737 0 1.271.184 1.603.553.332.368.498.81.498 1.326zM59.513 11.064c0-.407-.261-.61-.784-.61a2.69 2.69 0 0 0-.509.042c.023.318.034.73.034 1.24.112.005.207.007.285.007.65 0 .974-.226.974-.679zm1.149 2.824h-.907c-.237-.725-.419-1.171-.545-1.341-.127-.17-.33-.255-.613-.255-.118 0-.232 0-.34.003 0 .526.01 1.057.028 1.593h-.852c.027-.618.04-1.315.04-2.09 0-.745-.013-1.38-.04-1.906h.53c.061 0 .19-.003.385-.01.195-.006.375-.009.54-.009.937 0 1.406.322 1.406.964 0 .51-.267.864-.802 1.065v.046c.206.057.387.219.542.483.155.265.364.751.628 1.457zM64.207 11.905c0-.428-.109-.774-.327-1.04-.219-.266-.489-.4-.81-.4-.297 0-.55.135-.759.403-.208.268-.312.606-.312 1.016 0 .425.11.771.329 1.038.22.267.489.401.807.401.298 0 .552-.134.76-.404.208-.269.312-.607.312-1.014zm.846-.089c0 .628-.192 1.15-.576 1.562-.384.413-.859.62-1.424.62-.54 0-.991-.19-1.354-.57-.364-.379-.546-.861-.546-1.446 0-.628.192-1.15.576-1.562.384-.414.859-.62 1.425-.62.539 0 .99.189 1.353.567.364.379.546.862.546 1.449zM66.785 13.888h-.867a50.297 50.297 0 0 0 0-3.996h.867c-.027.515-.04 1.15-.04 1.906 0 .771.013 1.468.04 2.09M70.389 11.884c0-.393-.115-.724-.344-.993-.228-.27-.578-.404-1.047-.404-.088 0-.209.01-.362.028.02.409.031.836.031 1.283 0 .489.01.974.03 1.455.133.026.266.04.399.04.439 0 .764-.137.975-.41.212-.274.318-.606.318-1zm.836-.132c0 .58-.186 1.088-.558 1.522-.371.434-.892.65-1.562.65-.302 0-.719-.012-1.25-.036.027-.618.04-1.315.04-2.09 0-.745-.013-1.38-.04-1.906h.536c.088 0 .219-.003.392-.01.174-.006.287-.009.34-.009.737 0 1.272.184 1.604.553.332.368.498.81.498 1.326zM75.7 12.154c-.35-1.056-.525-1.627-.525-1.713h-.048c0 .08-.18.65-.542 1.713H75.7zm1.415 1.734h-.98c0-.135-.093-.518-.28-1.148H74.44c-.192.62-.287 1.003-.287 1.148h-.922c0-.08.238-.735.715-1.965.477-1.229.715-1.906.715-2.031h1.158c0 .116.216.784.648 2.002.432 1.219.648 1.883.648 1.994zM79.898 11.107c0-.438-.29-.657-.87-.657-.146 0-.299.016-.46.046.023.387.034.825.034 1.314.05.004.11.006.178.006.745 0 1.118-.236 1.118-.709zm.79-.169c0 .49-.181.85-.544 1.084-.362.233-.807.35-1.334.35-.096 0-.164-.002-.205-.007 0 .385.011.892.034 1.523h-.861c.026-.591.04-1.288.04-2.09 0-.737-.014-1.372-.04-1.906h.533c.075 0 .22-.003.435-.01.214-.006.4-.009.557-.009.388 0 .716.088.984.264.267.176.4.443.4.801zM83.572 11.107c0-.438-.29-.657-.87-.657-.146 0-.299.016-.46.046.023.387.034.825.034 1.314.05.004.11.006.178.006.745 0 1.118-.236 1.118-.709zm.79-.169c0 .49-.182.85-.544 1.084-.362.233-.807.35-1.334.35-.096 0-.164-.002-.205-.007 0 .385.011.892.034 1.523h-.861c.026-.591.04-1.288.04-2.09 0-.737-.014-1.372-.04-1.906h.533c.075 0 .22-.003.435-.01.214-.006.4-.009.557-.009.388 0 .716.088.984.264.267.176.4.443.4.801zM89.523 11.905c0-.428-.11-.774-.328-1.04-.218-.266-.488-.4-.809-.4-.298 0-.55.135-.76.403-.207.268-.311.606-.311 1.016 0 .425.11.771.329 1.038.22.267.488.401.807.401.298 0 .551-.134.76-.404.208-.269.312-.607.312-1.014zm.846-.089c0 .628-.192 1.15-.576 1.562-.385.413-.86.62-1.425.62-.539 0-.99-.19-1.354-.57-.363-.379-.545-.861-.545-1.446 0-.628.192-1.15.576-1.562.384-.414.859-.62 1.424-.62.54 0 .99.189 1.354.567.364.379.546.862.546 1.449zM94.52 13.888h-.756c0-.084-.28-.527-.842-1.33-.589-.844-.923-1.422-1.005-1.733h-.05c.052.448.077.853.077 1.215 0 .505.015 1.121.043 1.848h-.753c.03-.634.046-1.331.046-2.09 0-.747-.016-1.383-.046-1.906h.91c0 .108.252.541.756 1.298.537.804.845 1.35.925 1.636h.046a11.607 11.607 0 0 1-.073-1.228c0-.554-.015-1.123-.043-1.706h.765a35.029 35.029 0 0 0-.042 1.906c0 .769.014 1.466.042 2.09"/>
    </g>
</svg>
