<svg xmlns="http://www.w3.org/2000/svg" width="48" height="48" viewBox="0 0 48 48">
    <g fill="none" fill-rule="evenodd">
        <circle cx="24" cy="24" r="23" fill="#1F1F1F"/>
        <path fill="#1ED760" d="M38.197 21.277C30.46 16.682 17.7 16.26 10.315 18.5a2.244 2.244 0 1 1-1.304-4.296c8.478-2.573 22.571-2.076 31.477 3.21a2.245 2.245 0 0 1-2.291 3.862zm-.253 6.804a1.872 1.872 0 0 1-2.574.617c-6.45-3.965-16.285-5.114-23.916-2.797a1.874 1.874 0 0 1-2.335-1.247 1.874 1.874 0 0 1 1.248-2.333c8.717-2.646 19.553-1.365 26.96 3.188a1.871 1.871 0 0 1 .617 2.572zm-2.937 6.535a1.495 1.495 0 0 1-2.057.498c-5.636-3.444-12.73-4.222-21.084-2.314a1.495 1.495 0 1 1-.666-2.916c9.143-2.09 16.985-1.19 23.31 2.675.706.431.928 1.352.497 2.057zM24 0C10.745 0 0 10.745 0 24c0 13.256 10.745 24 24 24s24-10.744 24-24C48 10.745 37.255 0 24 0z"/>
    </g>
</svg>
