<?xml version="1.0" standalone="no"?>
<!DOCTYPE svg PUBLIC "-//W3C//DTD SVG 1.1//EN" "http://www.w3.org/Graphics/SVG/1.1/DTD/svg11.dtd" >
<svg xmlns="http://www.w3.org/2000/svg" xmlns:xlink="http://www.w3.org/1999/xlink" version="1.1">
<metadata>
Created by FontForge 20170910 at Thu Apr  6 12:17:28 2017
 By Jimmy Wärting
Copyright \(c\) 2017 by Henri Friedlaender \(1976\), Yanek Iontef \(2011\). All rights reserved.
</metadata>
<defs>
<font id="HenriRegular" horiz-adv-x="558" >
  <font-face 
    font-family="Henri"
    font-weight="400"
    font-stretch="normal"
    units-per-em="1000"
    panose-1="0 0 5 0 0 0 0 0 0 0"
    ascent="800"
    descent="-200"
    x-height="434"
    cap-height="614"
    bbox="-455 -307 652 897"
    underline-thickness="50"
    underline-position="-100"
    stemh="61"
    stemv="81"
    unicode-range="U+0020-FB4B"
  />
<missing-glyph horiz-adv-x="500" 
d="M410 750v-1000h-317v1000h317zM333 683h-165v-33h65v-37h-66v-33h166v33h-66v37h66v33zM267 554h-100v-104h166v34h-66v70zM233 520v-36h-33v36h33zM333 423h-166v-33h66v-37h-66v-33h100v70h66v33zM333 363h-33v-66h-133v-34h166v100zM333 241h-100v-56h34v23h33v-47
h-100v80h-33v-113h166v113zM333 68h-166v-113h166v113zM300 35v-47h-100v47h100zM333 -68h-166v-33h70l-70 -47v-33h166v33h-102l70 47h32v33z" />
    <glyph glyph-name="fi" unicode="fi" 
d="M234 649c44 0 100 -6 100 -45c0 -14 1 -42 -21 -42c-17 0 -55 24 -93 24c-55 0 -49 -58 -49 -122v-30h68c20 0 37 -9 37 -30c0 -22 -16 -30 -37 -30h-68v-286c0 -25 5 -30 27 -30h41c21 0 37 -10 37 -30s-17 -28 -37 -28h-183c-23 0 -44 4 -44 28s20 30 44 30h16
c17 0 22 9 22 26v290h-38c-18 0 -37 9 -37 30c0 20 20 30 37 30h38v40c0 97 41 175 140 175zM434 649c39 0 62 -30 62 -62c0 -40 -31 -77 -75 -77c-33 0 -64 28 -64 63c0 40 35 76 77 76zM431 446c21 0 29 -13 29 -36v-319c0 -22 4 -33 27 -33h25c17 0 33 -12 33 -30
s-16 -28 -33 -28h-173c-19 0 -35 8 -35 28c0 21 15 28 35 28h21c24 0 24 15 24 41v273l-51 -6c-15 -2 -31 8 -31 26c0 20 23 31 41 34c16 2 31 6 50 12c20 7 32 10 38 10z" />
    <glyph glyph-name="fl" unicode="fl" 
d="M432 663c18 0 26 -14 26 -35v-537c0 -22 5 -33 28 -33h26c17 0 34 -13 34 -30s-18 -28 -34 -28h-175c-20 0 -35 8 -35 28c0 21 15 28 35 28h24c19 0 21 11 21 32v500c-64 8 -159 33 -199 -23c-8 -12 -13 -47 -13 -101v-30h68c20 0 37 -9 37 -30c0 -22 -16 -30 -37 -30
h-68v-286c0 -25 4 -30 26 -30h42c21 0 37 -10 37 -30s-17 -28 -37 -28h-186c-22 0 -41 5 -41 28s18 30 41 30h19c17 0 22 9 22 26v290h-41c-17 0 -34 11 -34 30c0 17 19 30 34 30h41v40c0 60 15 104 41 133c28 30 69 45 126 45h81c21 0 86 11 91 11z" />
    <glyph glyph-name=".notdef" horiz-adv-x="500" 
d="M410 750v-1000h-317v1000h317zM333 683h-165v-33h65v-37h-66v-33h166v33h-66v37h66v33zM267 554h-100v-104h166v34h-66v70zM233 520v-36h-33v36h33zM333 423h-166v-33h66v-37h-66v-33h100v70h66v33zM333 363h-33v-66h-133v-34h166v100zM333 241h-100v-56h34v23h33v-47
h-100v80h-33v-113h166v113zM333 68h-166v-113h166v113zM300 35v-47h-100v47h100zM333 -68h-166v-33h70l-70 -47v-33h166v33h-102l70 47h32v33z" />
    <glyph glyph-name="A" unicode="A" 
d="M263 627c19 0 29 -13 36 -31l188 -507c7 -17 19 -35 42 -35h9c16 0 24 -6 25 -26c0 -15 -11 -28 -28 -28h-199c-13 0 -27 7 -27 28c0 22 15 26 35 26h32c16 0 39 11 30 35l-36 102h-218l-30 -90c-3 -9 -3 -18 -3 -20c0 -21 34 -27 53 -27h19c18 -1 37 -5 37 -26
c0 -15 -13 -28 -29 -28h-178c-9 0 -17 2 -21 7c-6 5 -8 13 -8 21c0 11 8 20 27 30c18 9 30 25 37 46l164 489c6 19 19 34 43 34zM253 497l-81 -245h173z" />
    <glyph glyph-name="Aacute" unicode="&#xc1;" 
d="M364 836c26 0 46 -16 46 -39c0 -26 -34 -40 -52 -46l-158 -60c-8 -4 -28 -11 -37 -11c-10 0 -16 5 -16 14c0 8 6 11 11 14l123 90c27 19 52 38 83 38zM263 627c19 0 29 -13 36 -31l188 -507c7 -17 19 -35 42 -35h9c16 0 24 -6 25 -26c0 -15 -11 -28 -28 -28h-199
c-13 0 -27 7 -27 28c0 22 15 26 35 26h32c16 0 39 11 30 35l-36 102h-218l-30 -90c-3 -9 -3 -18 -3 -20c0 -21 34 -27 53 -27h19c18 -1 37 -5 37 -26c0 -15 -13 -28 -29 -28h-178c-9 0 -17 2 -21 7c-6 5 -8 13 -8 21c0 11 8 20 27 30c18 9 30 25 37 46l164 489
c6 19 19 34 43 34zM253 497l-81 -245h173z" />
    <glyph glyph-name="Acircumflex" unicode="&#xc2;" 
d="M303 825c17 0 28 -10 41 -22c4 -4 96 -104 96 -112s-9 -15 -18 -15c-13 0 -25 7 -36 15l-80 54c-7 6 -15 9 -27 9c-10 0 -19 -2 -28 -9l-80 -54c-10 -7 -21 -15 -34 -15c-8 0 -19 5 -19 15s77 93 96 112c10 10 23 22 40 22h49zM263 627c19 0 29 -13 36 -31l188 -507
c7 -17 19 -35 42 -35h9c16 0 24 -6 25 -26c0 -15 -11 -28 -28 -28h-199c-13 0 -27 7 -27 28c0 22 15 26 35 26h32c16 0 39 11 30 35l-36 102h-218l-30 -90c-3 -9 -3 -18 -3 -20c0 -21 34 -27 53 -27h19c18 -1 37 -5 37 -26c0 -15 -13 -28 -29 -28h-178c-9 0 -17 2 -21 7
c-6 5 -8 13 -8 21c0 11 8 20 27 30c18 9 30 25 37 46l164 489c6 19 19 34 43 34zM253 497l-81 -245h173z" />
    <glyph glyph-name="Adieresis" unicode="&#xc4;" 
d="M159 809c31 0 55 -24 55 -55s-24 -55 -55 -55s-55 24 -55 55s24 55 55 55zM398 809c32 0 56 -24 56 -55s-24 -55 -56 -55c-31 0 -54 24 -54 55s23 55 54 55zM263 627c19 0 29 -13 36 -31l188 -507c7 -17 19 -35 42 -35h9c16 0 24 -6 25 -26c0 -15 -11 -28 -28 -28h-199
c-13 0 -27 7 -27 28c0 22 15 26 35 26h32c16 0 39 11 30 35l-36 102h-218l-30 -90c-3 -9 -3 -18 -3 -20c0 -21 34 -27 53 -27h19c18 -1 37 -5 37 -26c0 -15 -13 -28 -29 -28h-178c-9 0 -17 2 -21 7c-6 5 -8 13 -8 21c0 11 8 20 27 30c18 9 30 25 37 46l164 489
c6 19 19 34 43 34zM253 497l-81 -245h173z" />
    <glyph glyph-name="Agrave" unicode="&#xc0;" 
d="M193 836c31 0 56 -19 83 -38l123 -90c5 -3 11 -6 11 -14c0 -9 -6 -14 -16 -14c-9 0 -29 7 -37 11l-157 60c-19 6 -53 20 -53 46c0 23 20 39 46 39zM263 627c19 0 29 -13 36 -31l188 -507c7 -17 19 -35 42 -35h9c16 0 24 -6 25 -26c0 -15 -11 -28 -28 -28h-199
c-13 0 -27 7 -27 28c0 22 15 26 35 26h32c16 0 39 11 30 35l-36 102h-218l-30 -90c-3 -9 -3 -18 -3 -20c0 -21 34 -27 53 -27h19c18 -1 37 -5 37 -26c0 -15 -13 -28 -29 -28h-178c-9 0 -17 2 -21 7c-6 5 -8 13 -8 21c0 11 8 20 27 30c18 9 30 25 37 46l164 489
c6 19 19 34 43 34zM253 497l-81 -245h173z" />
    <glyph glyph-name="Aring" unicode="&#xc5;" 
d="M278 897c62 0 116 -50 115 -113c0 -65 -51 -114 -115 -114s-114 49 -114 114c0 62 51 113 114 113zM278 845c-31 0 -61 -28 -61 -61c0 -35 27 -62 61 -62c33 0 62 29 62 62s-30 61 -62 61zM263 627c19 0 29 -13 36 -31l188 -507c7 -17 19 -35 42 -35h9c16 0 24 -6 25 -26
c0 -15 -11 -28 -28 -28h-199c-13 0 -27 7 -27 28c0 22 15 26 35 26h32c16 0 39 11 30 35l-36 102h-218l-30 -90c-3 -9 -3 -18 -3 -20c0 -21 34 -27 53 -27h19c18 -1 37 -5 37 -26c0 -15 -13 -28 -29 -28h-178c-9 0 -17 2 -21 7c-6 5 -8 13 -8 21c0 11 8 20 27 30
c18 9 30 25 37 46l164 489c6 19 19 34 43 34zM253 497l-81 -245h173z" />
    <glyph glyph-name="Atilde" unicode="&#xc3;" 
d="M425 816c10 0 18 -7 18 -16c0 -58 -62 -86 -103 -86c-16 0 -33 1 -43 2l-63 10c-10 1 -20 5 -33 5c-18 0 -32 -7 -42 -18c-10 -12 -17 -18 -25 -18c-5 0 -19 2 -19 14c0 57 65 88 117 88c12 0 26 -1 38 -3l56 -10c8 -1 21 -5 29 -5c18 0 30 7 42 19c11 12 21 18 28 18z
M263 627c19 0 29 -13 36 -31l188 -507c7 -17 19 -35 42 -35h9c16 0 24 -6 25 -26c0 -15 -11 -28 -28 -28h-199c-13 0 -27 7 -27 28c0 22 15 26 35 26h32c16 0 39 11 30 35l-36 102h-218l-30 -90c-3 -9 -3 -18 -3 -20c0 -21 34 -27 53 -27h19c18 -1 37 -5 37 -26
c0 -15 -13 -28 -29 -28h-178c-9 0 -17 2 -21 7c-6 5 -8 13 -8 21c0 11 8 20 27 30c18 9 30 25 37 46l164 489c6 19 19 34 43 34zM253 497l-81 -245h173z" />
    <glyph glyph-name="AE" unicode="&#xc6;" 
d="M504 619c30 0 40 -5 40 -35v-25l-6 -93c-1 -20 -7 -30 -25 -30c-16 0 -28 14 -29 40c-4 45 -36 78 -93 80h-77v-204h27c32 0 43 20 43 49c0 22 10 33 27 33c20 0 32 -11 32 -32v-164c0 -20 -12 -35 -31 -35c-18 0 -29 11 -29 29v64h-69v-244h96c46 0 83 11 87 77
c3 34 11 50 28 50c23 0 29 -14 29 -36v-119c0 -18 -9 -30 -30 -30l-157 5c-40 1 -72 1 -94 1h-49c-21 0 -28 8 -28 28c0 16 7 30 25 30h23v133h-127l-30 -91c-3 -8 -7 -20 -7 -26c0 -12 10 -18 34 -18c20 0 25 -10 25 -32c0 -14 -10 -24 -25 -24h-128c-22 0 -37 4 -37 27
c0 13 10 19 25 27c29 16 40 30 47 49l154 451h-23c-22 0 -30 8 -30 30c0 28 10 30 38 30h214c27 0 104 5 130 5zM244 554h-11l-96 -302h107v302z" />
    <glyph glyph-name="B" unicode="B" horiz-adv-x="537" 
d="M270 614c86 0 187 -30 187 -138c0 -64 -45 -111 -107 -134c85 -13 146 -73 150 -166c0 -113 -103 -176 -216 -176h-210c-17 0 -34 11 -34 32c0 18 14 31 34 31h49v492h-49c-16 0 -34 9 -34 29c0 18 14 30 34 30h196zM264 555c-20 0 -40 -1 -61 -2v-187h43
c63 0 117 35 120 104c0 57 -43 85 -102 85zM244 302h-41v-239h47c72 0 156 28 160 115c0 88 -85 124 -166 124z" />
    <glyph glyph-name="C" unicode="C" horiz-adv-x="546" 
d="M284 627c41 0 81 -22 112 -22c15 0 28 11 45 11c29 0 35 -29 37 -55l4 -99c0 -21 -12 -41 -37 -41c-17 0 -29 19 -31 42l-2 23c-4 50 -55 80 -110 80c-139 0 -175 -140 -175 -261c0 -91 32 -261 157 -261c69 0 114 50 132 120c8 28 22 41 37 41c18 0 29 -16 29 -36v-76
c0 -69 -148 -109 -203 -109c-166 0 -242 168 -242 321c0 149 68 322 247 322z" />
    <glyph glyph-name="Ccedilla" unicode="&#xc7;" horiz-adv-x="546" 
d="M453 205c18 0 29 -16 29 -36v-76c0 -66 -135 -105 -195 -109l-10 -43h22c53 0 90 -23 90 -78c0 -56 -45 -82 -101 -82c-32 0 -62 6 -89 17c-28 11 -42 22 -42 34c0 10 8 23 18 23c3 0 15 -6 39 -17c22 -10 43 -14 64 -14c27 0 46 11 46 39c0 26 -16 39 -43 42h-12
c-20 0 -31 7 -31 20c0 7 6 31 11 47l4 13c-148 17 -216 175 -216 320c0 149 68 322 247 322c41 0 81 -22 112 -22c15 0 28 11 45 11c29 0 35 -29 37 -55l4 -99c0 -21 -12 -41 -37 -41c-17 0 -29 19 -31 42l-2 23c-4 50 -55 80 -110 80c-139 0 -175 -140 -175 -261
c0 -91 32 -261 157 -261c69 0 114 50 132 120c8 28 22 41 37 41z" />
    <glyph glyph-name="D" unicode="D" horiz-adv-x="549" 
d="M172 614c214 0 336 -73 340 -307c0 -218 -118 -307 -340 -307h-120c-15 0 -33 9 -33 28c0 18 14 30 33 30h39v500h-39c-18 0 -33 9 -33 27c0 21 13 29 33 29h120zM208 558h-36v-500h36c158 0 212 100 214 251c0 142 -49 249 -214 249z" />
    <glyph glyph-name="Eth" unicode="&#xd0;" 
d="M191 614c209 0 321 -85 321 -307c0 -225 -114 -307 -323 -307h-137c-18 0 -33 10 -33 28c0 19 14 30 33 30h39v232h-57c-18 0 -34 9 -34 30c0 20 14 32 34 32h57v206h-39c-18 0 -33 9 -33 27c0 21 13 29 33 29h139zM208 558h-36v-206h121c20 0 33 -13 33 -32
c0 -18 -13 -31 -33 -30h-121v-232h36c158 0 214 94 214 251s-53 249 -214 249z" />
    <glyph glyph-name="E" unicode="E" horiz-adv-x="555" 
d="M437 619c17 0 30 -2 36 -6c14 -11 8 -32 8 -51l-3 -96c0 -15 -10 -32 -29 -32c-18 0 -28 14 -28 46c0 22 -3 54 -28 65c-13 8 -46 11 -100 11h-103v-201h83c14 0 28 11 28 29v29c0 17 11 30 30 30c15 0 30 -12 30 -29v-190c0 -14 -13 -28 -30 -28c-20 0 -29 14 -29 28v80
h-112v-248h116c41 0 103 1 123 46c3 10 5 27 9 52c2 26 13 39 29 39c20 0 27 -15 27 -36v-133c0 -24 -16 -27 -43 -27c-37 0 -98 4 -202 4c-18 0 -36 -1 -181 -1c-17 0 -35 7 -35 28c0 19 14 30 35 30h42v498h-42c-17 0 -35 8 -35 29c0 20 14 29 35 29h243c38 0 77 5 126 5z
" />
    <glyph glyph-name="Eacute" unicode="&#xc9;" horiz-adv-x="555" 
d="M363 836c26 0 46 -16 46 -39c0 -26 -34 -40 -52 -46l-158 -60c-8 -4 -28 -11 -37 -11c-10 0 -16 5 -16 14c0 8 6 11 11 14l123 90c27 19 52 38 83 38zM437 619c17 0 30 -2 36 -6c14 -11 8 -32 8 -51l-3 -96c0 -15 -10 -32 -29 -32c-18 0 -28 14 -28 46c0 22 -3 54 -28 65
c-13 8 -46 11 -100 11h-103v-201h83c14 0 28 11 28 29v29c0 17 11 30 30 30c15 0 30 -12 30 -29v-190c0 -14 -13 -28 -30 -28c-20 0 -29 14 -29 28v80h-112v-248h116c41 0 103 1 123 46c3 10 5 27 9 52c2 26 13 39 29 39c20 0 27 -15 27 -36v-133c0 -24 -16 -27 -43 -27
c-37 0 -98 4 -202 4c-18 0 -36 -1 -181 -1c-17 0 -35 7 -35 28c0 19 14 30 35 30h42v498h-42c-17 0 -35 8 -35 29c0 20 14 29 35 29h243c38 0 77 5 126 5z" />
    <glyph glyph-name="Ecircumflex" unicode="&#xca;" horiz-adv-x="555" 
d="M302 825c17 0 28 -10 41 -22c4 -4 96 -104 96 -112s-9 -15 -18 -15c-13 0 -25 7 -36 15l-80 54c-7 6 -15 9 -27 9c-10 0 -19 -2 -28 -9l-80 -54c-10 -7 -21 -15 -34 -15c-8 0 -19 5 -19 15s77 93 96 112c10 10 23 22 40 22h49zM437 619c17 0 30 -2 36 -6
c14 -11 8 -32 8 -51l-3 -96c0 -15 -10 -32 -29 -32c-18 0 -28 14 -28 46c0 22 -3 54 -28 65c-13 8 -46 11 -100 11h-103v-201h83c14 0 28 11 28 29v29c0 17 11 30 30 30c15 0 30 -12 30 -29v-190c0 -14 -13 -28 -30 -28c-20 0 -29 14 -29 28v80h-112v-248h116
c41 0 103 1 123 46c3 10 5 27 9 52c2 26 13 39 29 39c20 0 27 -15 27 -36v-133c0 -24 -16 -27 -43 -27c-37 0 -98 4 -202 4c-18 0 -36 -1 -181 -1c-17 0 -35 7 -35 28c0 19 14 30 35 30h42v498h-42c-17 0 -35 8 -35 29c0 20 14 29 35 29h243c38 0 77 5 126 5z" />
    <glyph glyph-name="Edieresis" unicode="&#xcb;" horiz-adv-x="555" 
d="M158 809c31 0 55 -24 55 -55s-24 -55 -55 -55s-55 24 -55 55s24 55 55 55zM397 809c32 0 56 -24 56 -55s-24 -55 -56 -55c-31 0 -54 24 -54 55s23 55 54 55zM437 619c17 0 30 -2 36 -6c14 -11 8 -32 8 -51l-3 -96c0 -15 -10 -32 -29 -32c-18 0 -28 14 -28 46
c0 22 -3 54 -28 65c-13 8 -46 11 -100 11h-103v-201h83c14 0 28 11 28 29v29c0 17 11 30 30 30c15 0 30 -12 30 -29v-190c0 -14 -13 -28 -30 -28c-20 0 -29 14 -29 28v80h-112v-248h116c41 0 103 1 123 46c3 10 5 27 9 52c2 26 13 39 29 39c20 0 27 -15 27 -36v-133
c0 -24 -16 -27 -43 -27c-37 0 -98 4 -202 4c-18 0 -36 -1 -181 -1c-17 0 -35 7 -35 28c0 19 14 30 35 30h42v498h-42c-17 0 -35 8 -35 29c0 20 14 29 35 29h243c38 0 77 5 126 5z" />
    <glyph glyph-name="Egrave" unicode="&#xc8;" horiz-adv-x="555" 
d="M192 836c31 0 56 -19 83 -38l123 -90c5 -3 11 -6 11 -14c0 -9 -6 -14 -16 -14c-9 0 -29 7 -37 11l-157 60c-19 6 -53 20 -53 46c0 23 20 39 46 39zM437 619c17 0 30 -2 36 -6c14 -11 8 -32 8 -51l-3 -96c0 -15 -10 -32 -29 -32c-18 0 -28 14 -28 46c0 22 -3 54 -28 65
c-13 8 -46 11 -100 11h-103v-201h83c14 0 28 11 28 29v29c0 17 11 30 30 30c15 0 30 -12 30 -29v-190c0 -14 -13 -28 -30 -28c-20 0 -29 14 -29 28v80h-112v-248h116c41 0 103 1 123 46c3 10 5 27 9 52c2 26 13 39 29 39c20 0 27 -15 27 -36v-133c0 -24 -16 -27 -43 -27
c-37 0 -98 4 -202 4c-18 0 -36 -1 -181 -1c-17 0 -35 7 -35 28c0 19 14 30 35 30h42v498h-42c-17 0 -35 8 -35 29c0 20 14 29 35 29h243c38 0 77 5 126 5z" />
    <glyph glyph-name="F" unicode="F" 
d="M474 619c12 0 22 -3 29 -7c12 -15 8 -33 6 -50l-5 -108c0 -13 -10 -33 -28 -33c-20 0 -25 12 -25 33c0 29 -10 72 -41 88c-21 10 -50 14 -88 14h-103v-202h72c13 0 39 10 39 28v29c1 19 7 29 31 29c14 0 28 -12 28 -28v-191c0 -13 -14 -27 -29 -27c-20 0 -29 14 -29 26
v81h-112v-243h104c14 0 28 -15 28 -30s-11 -28 -28 -28h-239c-16 0 -31 8 -31 28c0 16 14 30 31 30h54v498h-67c-17 0 -34 9 -34 29c0 18 14 29 34 29h270c41 0 83 5 133 5z" />
    <glyph glyph-name="G" unicode="G" 
d="M287 627c64 0 96 -22 118 -22c15 0 27 9 47 9c12 0 20 -4 25 -10c6 -9 7 -22 8 -42l5 -121c1 -17 -8 -41 -30 -41c-20 0 -33 11 -33 41c0 68 -47 130 -118 130c-137 0 -180 -147 -180 -267c0 -103 26 -258 164 -258c38 0 70 13 110 38v115h-76c-15 0 -27 12 -27 30
c0 15 10 27 27 27h182c16 0 29 -8 29 -27c0 -17 -9 -30 -29 -30h-25v-131c0 -15 -3 -34 -23 -34c-7 0 -14 5 -20 5c-4 0 -11 -5 -25 -11c-51 -28 -100 -42 -145 -42c-167 0 -232 167 -232 318c0 144 73 323 248 323z" />
    <glyph glyph-name="H" unicode="H" horiz-adv-x="574" 
d="M521 614c17 0 36 -7 36 -29c0 -18 -18 -27 -36 -27h-38v-502h38c16 0 36 -6 36 -28c0 -19 -18 -28 -36 -28h-166c-16 0 -35 7 -35 28c0 19 13 28 35 28h47v233h-230v-233h49c17 0 34 -6 34 -28c0 -18 -15 -28 -34 -28h-169c-15 0 -33 9 -33 28s12 28 33 28h39v502h-39
c-15 0 -33 8 -33 27c0 18 12 29 33 29h169c18 0 34 -7 34 -29c0 -18 -15 -27 -34 -27h-49v-204h230v204h-47c-15 0 -35 6 -35 27c0 20 13 29 35 29h166z" />
    <glyph glyph-name="I" unicode="I" horiz-adv-x="440" 
d="M385 614c21 0 36 -10 36 -29c0 -20 -20 -27 -36 -27h-123v-499h123c19 0 36 -11 36 -29c0 -21 -19 -30 -36 -30h-331c-16 0 -35 9 -35 30c0 18 17 29 35 29h124v499h-124c-15 0 -35 7 -35 27c0 19 14 29 35 29h331z" />
    <glyph glyph-name="Iacute" unicode="&#xcd;" horiz-adv-x="440" 
d="M305 836c26 0 46 -16 46 -39c0 -26 -34 -40 -52 -46l-158 -60c-8 -4 -28 -11 -37 -11c-10 0 -16 5 -16 14c0 8 6 11 11 14l123 90c27 19 52 38 83 38zM385 614c21 0 36 -10 36 -29c0 -20 -20 -27 -36 -27h-123v-499h123c19 0 36 -11 36 -29c0 -21 -19 -30 -36 -30h-331
c-16 0 -35 9 -35 30c0 18 17 29 35 29h124v499h-124c-15 0 -35 7 -35 27c0 19 14 29 35 29h331z" />
    <glyph glyph-name="Icircumflex" unicode="&#xce;" horiz-adv-x="440" 
d="M244 825c17 0 28 -10 41 -22c4 -4 96 -104 96 -112s-9 -15 -18 -15c-13 0 -25 7 -36 15l-80 54c-7 6 -15 9 -27 9c-10 0 -19 -2 -28 -9l-80 -54c-10 -7 -21 -15 -34 -15c-8 0 -19 5 -19 15s77 93 96 112c10 10 23 22 40 22h49zM385 614c21 0 36 -10 36 -29
c0 -20 -20 -27 -36 -27h-123v-499h123c19 0 36 -11 36 -29c0 -21 -19 -30 -36 -30h-331c-16 0 -35 9 -35 30c0 18 17 29 35 29h124v499h-124c-15 0 -35 7 -35 27c0 19 14 29 35 29h331z" />
    <glyph glyph-name="Idieresis" unicode="&#xcf;" horiz-adv-x="440" 
d="M100 809c31 0 55 -24 55 -55s-24 -55 -55 -55s-55 24 -55 55s24 55 55 55zM339 809c32 0 56 -24 56 -55s-24 -55 -56 -55c-31 0 -54 24 -54 55s23 55 54 55zM385 614c21 0 36 -10 36 -29c0 -20 -20 -27 -36 -27h-123v-499h123c19 0 36 -11 36 -29c0 -21 -19 -30 -36 -30
h-331c-16 0 -35 9 -35 30c0 18 17 29 35 29h124v499h-124c-15 0 -35 7 -35 27c0 19 14 29 35 29h331z" />
    <glyph glyph-name="Igrave" unicode="&#xcc;" horiz-adv-x="440" 
d="M134 836c31 0 56 -19 83 -38l123 -90c5 -3 11 -6 11 -14c0 -9 -6 -14 -16 -14c-9 0 -29 7 -37 11l-157 60c-19 6 -53 20 -53 46c0 23 20 39 46 39zM385 614c21 0 36 -10 36 -29c0 -20 -20 -27 -36 -27h-123v-499h123c19 0 36 -11 36 -29c0 -21 -19 -30 -36 -30h-331
c-16 0 -35 9 -35 30c0 18 17 29 35 29h124v499h-124c-15 0 -35 7 -35 27c0 19 14 29 35 29h331z" />
    <glyph glyph-name="J" unicode="J" horiz-adv-x="517" 
d="M450 614c17 0 34 -7 34 -29c0 -20 -13 -27 -34 -27h-63v-390c0 -120 -52 -184 -179 -184c-51 0 -108 12 -157 37c-24 12 -40 32 -40 63v50c0 20 11 40 36 40c16 0 26 -13 32 -41c3 -18 6 -29 11 -36c18 -36 68 -54 109 -54c115 0 108 124 108 217v298h-84
c-17 0 -35 5 -35 27c0 21 12 29 35 29h227z" />
    <glyph glyph-name="K" unicode="K" 
d="M470 614c17 0 37 -6 37 -29c0 -17 -12 -31 -43 -31c-20 0 -46 -33 -58 -50l-86 -114c-14 -20 -31 -37 -54 -60l181 -226c18 -22 44 -45 76 -45c28 -5 41 -15 41 -31c0 -14 -11 -28 -27 -28h-87c-20 0 -30 18 -44 31l-195 252c-7 -6 -16 -11 -22 -15c-7 -5 -15 -9 -24 -14
v-196h70c17 0 36 -9 36 -30s-13 -28 -36 -28h-174c-14 0 -37 9 -37 28c0 18 19 30 37 30h23v500h-42c-15 0 -34 8 -34 27c0 18 14 29 34 29h157c17 0 35 -6 35 -29c0 -18 -16 -27 -35 -27h-34v-238c33 20 61 44 94 84l95 125c2 4 3 7 3 13c0 11 -11 16 -23 16h-30
c-14 0 -30 9 -30 27c0 19 15 29 36 29h160z" />
    <glyph glyph-name="L" unicode="L" 
d="M272 614c19 0 37 -7 37 -30c0 -20 -16 -30 -37 -30h-68v-495h132c46 0 77 3 91 8c31 13 30 45 34 77c3 38 13 57 31 57c20 0 30 -15 30 -37l-11 -140c-3 -24 -13 -27 -41 -27c-43 0 -187 3 -257 3h-132c-18 0 -38 4 -38 28c0 20 17 30 38 30h43v496h-71
c-17 0 -39 7 -39 30c0 21 16 30 39 30h219z" />
    <glyph glyph-name="Lslash" unicode="&#x141;" 
d="M272 614c22 0 37 -7 37 -30c0 -22 -16 -30 -37 -30h-68v-203l95 64c4 3 20 13 31 13c14 0 27 -10 27 -27c0 -10 -4 -21 -14 -27l-139 -97v-218h132c92 0 117 1 125 85c3 38 13 57 31 57c22 0 32 -16 30 -37l-11 -140c-4 -31 -13 -27 -43 -27c-22 0 -30 3 -143 3h-244
c-23 0 -38 6 -38 28c0 21 17 30 38 30h43v168l-40 -27c-5 -5 -13 -7 -21 -7c-13 0 -29 11 -29 28c0 10 8 20 17 26l73 54v254h-71c-21 0 -39 7 -39 30s17 30 39 30h219z" />
    <glyph glyph-name="M" unicode="M" horiz-adv-x="626" 
d="M575 614c15 0 28 -11 28 -29c0 -13 -13 -27 -28 -27h-37v-500h44c17 0 35 -9 35 -30c0 -19 -15 -28 -35 -28h-181c-17 0 -35 6 -35 28c0 19 12 30 35 30h53v428l-110 -245c-8 -18 -18 -39 -42 -39c-19 0 -27 13 -36 32l-116 240v-354c0 -43 13 -62 43 -62h32
c26 0 37 -14 37 -30c0 -15 -11 -28 -28 -28h-189c-13 0 -23 14 -23 28c0 16 9 26 27 30c26 4 25 34 25 62v438h-26c-16 0 -39 6 -39 27c0 20 16 29 39 29h83c19 0 31 -5 39 -25l134 -284l119 272c8 18 20 37 44 37h108z" />
    <glyph glyph-name="N" unicode="N" horiz-adv-x="591" 
d="M544 614c15 0 28 -12 28 -30c0 -15 -10 -30 -26 -30h-12c-15 0 -16 -15 -16 -47v-473c0 -21 -20 -40 -45 -40c-19 0 -30 14 -39 30l-260 458v-387c0 -27 15 -35 35 -35h34c25 0 37 -12 37 -29c0 -15 -14 -31 -30 -31h-173c-17 0 -29 13 -29 31c0 15 9 29 30 29h6
c15 0 17 15 17 32v462h-54c-15 0 -28 14 -28 30c0 13 11 30 28 30h118c24 0 29 -10 38 -27l242 -425v344c0 38 -20 48 -44 48h-31c-18 0 -30 13 -30 30c0 15 11 30 30 30h174z" />
    <glyph glyph-name="Ntilde" unicode="&#xd1;" horiz-adv-x="591" 
d="M442 816c10 0 18 -7 18 -16c0 -58 -62 -86 -103 -86c-16 0 -33 1 -43 2l-63 10c-10 1 -20 5 -33 5c-18 0 -32 -7 -42 -18c-10 -12 -17 -18 -25 -18c-5 0 -19 2 -19 14c0 57 65 88 117 88c12 0 26 -1 38 -3l56 -10c8 -1 21 -5 29 -5c18 0 30 7 42 19c11 12 21 18 28 18z
M544 614c15 0 28 -12 28 -30c0 -15 -10 -30 -26 -30h-12c-15 0 -16 -15 -16 -47v-473c0 -21 -20 -40 -45 -40c-19 0 -30 14 -39 30l-260 458v-387c0 -27 15 -35 35 -35h34c25 0 37 -12 37 -29c0 -15 -14 -31 -30 -31h-173c-17 0 -29 13 -29 31c0 15 9 29 30 29h6
c15 0 17 15 17 32v462h-54c-15 0 -28 14 -28 30c0 13 11 30 28 30h118c24 0 29 -10 38 -27l242 -425v344c0 38 -20 48 -44 48h-31c-18 0 -30 13 -30 30c0 15 11 30 30 30h174z" />
    <glyph glyph-name="O" unicode="O" 
d="M279 627c169 0 249 -157 246 -320c0 -160 -74 -321 -246 -321c-171 0 -246 162 -246 321c0 163 74 320 246 320zM279 561c-127 0 -156 -137 -156 -254s28 -253 156 -253s155 135 157 253c0 118 -32 254 -157 254z" />
    <glyph glyph-name="Oacute" unicode="&#xd3;" 
d="M364 836c26 0 46 -16 46 -39c0 -26 -34 -40 -52 -46l-158 -60c-8 -4 -28 -11 -37 -11c-10 0 -16 5 -16 14c0 8 6 11 11 14l123 90c27 19 52 38 83 38zM279 627c169 0 249 -157 246 -320c0 -160 -74 -321 -246 -321c-171 0 -246 162 -246 321c0 163 74 320 246 320z
M279 561c-127 0 -156 -137 -156 -254s28 -253 156 -253s155 135 157 253c0 118 -32 254 -157 254z" />
    <glyph glyph-name="Ocircumflex" unicode="&#xd4;" 
d="M303 825c17 0 28 -10 41 -22c4 -4 96 -104 96 -112s-9 -15 -18 -15c-13 0 -25 7 -36 15l-80 54c-7 6 -15 9 -27 9c-10 0 -19 -2 -28 -9l-80 -54c-10 -7 -21 -15 -34 -15c-8 0 -19 5 -19 15s77 93 96 112c10 10 23 22 40 22h49zM279 627c169 0 249 -157 246 -320
c0 -160 -74 -321 -246 -321c-171 0 -246 162 -246 321c0 163 74 320 246 320zM279 561c-127 0 -156 -137 -156 -254s28 -253 156 -253s155 135 157 253c0 118 -32 254 -157 254z" />
    <glyph glyph-name="Odieresis" unicode="&#xd6;" 
d="M159 809c31 0 55 -24 55 -55s-24 -55 -55 -55s-55 24 -55 55s24 55 55 55zM398 809c32 0 56 -24 56 -55s-24 -55 -56 -55c-31 0 -54 24 -54 55s23 55 54 55zM279 627c169 0 249 -157 246 -320c0 -160 -74 -321 -246 -321c-171 0 -246 162 -246 321c0 163 74 320 246 320z
M279 561c-127 0 -156 -137 -156 -254s28 -253 156 -253s155 135 157 253c0 118 -32 254 -157 254z" />
    <glyph glyph-name="Ograve" unicode="&#xd2;" 
d="M193 836c31 0 56 -19 83 -38l123 -90c5 -3 11 -6 11 -14c0 -9 -6 -14 -16 -14c-9 0 -29 7 -37 11l-157 60c-19 6 -53 20 -53 46c0 23 20 39 46 39zM279 627c169 0 249 -157 246 -320c0 -160 -74 -321 -246 -321c-171 0 -246 162 -246 321c0 163 74 320 246 320zM279 561
c-127 0 -156 -137 -156 -254s28 -253 156 -253s155 135 157 253c0 118 -32 254 -157 254z" />
    <glyph glyph-name="Oslash" unicode="&#xd8;" 
d="M424 707c9 0 18 -3 26 -8c11 -6 6 -22 4 -29l-36 -89c79 -65 107 -168 107 -274c0 -160 -74 -321 -246 -321c-35 0 -64 7 -95 20l-37 -91c-4 -9 -12 -16 -20 -16c-9 0 -17 2 -23 7c-11 9 -12 19 -7 31l40 99c-75 67 -104 169 -104 271c0 166 75 320 250 320
c31 0 59 -3 87 -18l34 83c6 10 8 15 20 15zM279 561c-127 0 -156 -137 -156 -254c0 -73 7 -137 45 -193l175 430c-20 12 -39 17 -64 17zM385 504l-174 -431c20 -13 43 -19 68 -19c126 0 157 135 157 253c0 75 -9 144 -51 197z" />
    <glyph glyph-name="Otilde" unicode="&#xd5;" 
d="M425 816c10 0 18 -7 18 -16c0 -58 -62 -86 -103 -86c-16 0 -33 1 -43 2l-63 10c-10 1 -20 5 -33 5c-18 0 -32 -7 -42 -18c-10 -12 -17 -18 -25 -18c-5 0 -19 2 -19 14c0 57 65 88 117 88c12 0 26 -1 38 -3l56 -10c8 -1 21 -5 29 -5c18 0 30 7 42 19c11 12 21 18 28 18z
M279 627c169 0 249 -157 246 -320c0 -160 -74 -321 -246 -321c-171 0 -246 162 -246 321c0 163 74 320 246 320zM279 561c-127 0 -156 -137 -156 -254s28 -253 156 -253s155 135 157 253c0 118 -32 254 -157 254z" />
    <glyph glyph-name="OE" unicode="&#x152;" 
d="M500 620c22 0 38 -8 38 -34v-23l-4 -92c-1 -16 -10 -35 -30 -35c-14 0 -23 12 -23 35c0 0 -1 40 -3 46c-7 41 -42 45 -84 45h-64v-212h32c22 0 33 4 39 25v27c0 24 14 30 30 30c14 0 23 -10 23 -28v-166c0 -14 -11 -28 -27 -28c-15 0 -26 10 -26 28v62h-71v-247h47
c73 0 113 -9 117 78c1 33 10 50 27 50c18 0 25 -17 25 -37v-120c0 -34 -23 -24 -91 -24h-125h-77c-186 0 -229 128 -229 307c0 183 43 309 229 309h124c40 0 80 4 123 4zM254 562h-19c-125 0 -125 -129 -125 -258c0 -118 0 -253 116 -253c9 0 28 2 28 2v509z" />
    <glyph glyph-name="P" unicode="P" horiz-adv-x="535" 
d="M284 614c126 0 214 -29 214 -177c0 -117 -103 -183 -217 -183c-27 0 -51 2 -80 10v-206h85c16 0 36 -8 36 -30c0 -19 -16 -28 -36 -28h-216c-16 0 -39 6 -39 28c0 20 18 30 39 30h51v496h-51c-18 0 -46 4 -46 30c0 24 21 30 46 30h214zM294 554h-93v-228
c20 -6 41 -12 70 -12c76 0 133 46 137 127c0 67 -41 113 -114 113z" />
    <glyph glyph-name="Thorn" unicode="&#xde;" 
d="M274 614c27 0 47 -4 47 -30s-22 -30 -47 -30h-50v-60h92c129 0 205 -58 205 -170c0 -118 -97 -183 -211 -183c-29 0 -58 2 -86 9v-92h85c21 0 36 -9 36 -30c0 -18 -15 -30 -36 -28h-216c-22 0 -39 7 -39 28c0 22 17 30 39 30h51v496h-51c-23 0 -46 5 -46 30
c0 26 21 30 46 30h181zM317 432h-93v-219c25 -8 46 -12 70 -12c78 0 137 43 137 123c0 69 -42 109 -114 108z" />
    <glyph glyph-name="Q" unicode="Q" 
d="M277 627c174 0 247 -154 247 -318c0 -127 -42 -251 -154 -307c19 -15 35 -32 51 -48c15 -16 30 -33 43 -51c16 -21 20 -26 29 -26c14 0 25 11 40 11c13 0 21 -13 22 -27c0 -11 -4 -20 -14 -26l-79 -38c-1 -1 -9 -5 -14 -5c-17 0 -25 18 -34 34c-31 52 -58 91 -81 116
s-48 40 -70 44c-161 0 -230 184 -230 323c0 162 72 318 244 318zM279 561c-127 0 -156 -137 -156 -254s28 -253 156 -253s155 135 157 253c0 118 -32 254 -157 254z" />
    <glyph glyph-name="R" unicode="R" 
d="M269 614c103 0 196 -37 196 -158c0 -90 -69 -143 -153 -165c24 -14 47 -31 65 -51c24 -27 41 -60 59 -93c31 -58 52 -84 71 -84l20 1c16 0 26 -12 27 -30c0 -15 -9 -22 -25 -26c-23 -5 -48 -10 -75 -10c-10 0 -20 4 -29 12c-32 32 -54 83 -74 128
c-50 94 -105 139 -165 139h-1v-219h65c19 0 37 -7 37 -30c0 -20 -17 -28 -37 -28h-177c-16 0 -36 7 -36 28c0 19 15 30 36 30h31v497h-51c-21 0 -37 8 -37 30c0 23 16 29 37 29h216zM273 555h-88v-219c7 -1 15 -2 40 -2c78 0 150 30 154 119c0 63 -39 102 -106 102z" />
    <glyph glyph-name="S" unicode="S" 
d="M283 628c41 0 82 -21 113 -21c12 0 22 9 36 9c20 0 26 -12 26 -34l-4 -127c0 -13 -13 -27 -30 -27c-32 0 -37 30 -37 58c0 55 -53 82 -106 82c-58 0 -129 -30 -129 -100c0 -68 72 -91 132 -108c95 -29 199 -70 199 -188c0 -105 -91 -185 -199 -185c-42 0 -82 17 -125 17
c-16 0 -28 -10 -45 -10c-25 0 -34 25 -34 50l-1 105c0 23 5 54 36 54c17 0 27 -13 32 -41c8 -63 59 -115 127 -115c65 0 124 42 124 113c0 78 -79 102 -145 122c-84 25 -184 67 -184 172c0 114 105 174 214 174z" />
    <glyph glyph-name="T" unicode="T" 
d="M460 615c30 2 58 -5 58 -42v-132c0 -17 -12 -27 -32 -27c-14 0 -35 8 -35 27v71c0 21 -15 41 -38 41h-97v-495h90c16 0 29 -12 29 -30c0 -17 -11 -28 -29 -28h-256c-15 0 -30 10 -30 28c0 15 12 30 30 30h88v495h-94c-22 0 -39 -18 -39 -41v-71c0 -18 -14 -27 -34 -27
c-14 0 -35 8 -35 27v132c0 31 24 46 59 42c62 -5 125 -8 189 -8c59 0 117 3 176 8z" />
    <glyph glyph-name="U" unicode="U" 
d="M504 614c20 0 37 -7 37 -29c0 -21 -18 -31 -37 -31h-32v-348c0 -126 -39 -219 -190 -219c-164 0 -192 93 -192 219v348h-32c-19 0 -37 10 -37 31c0 22 17 29 37 29h146c19 0 34 -8 34 -29c0 -20 -15 -31 -34 -31h-40v-333c0 -108 24 -160 118 -160c92 0 115 52 115 160
v333h-40c-18 0 -33 11 -33 31c0 21 15 29 33 29h147z" />
    <glyph glyph-name="Uacute" unicode="&#xda;" 
d="M364 836c26 0 46 -16 46 -39c0 -26 -34 -40 -52 -46l-158 -60c-8 -4 -28 -11 -37 -11c-10 0 -16 5 -16 14c0 8 6 11 11 14l123 90c27 19 52 38 83 38zM504 614c20 0 37 -7 37 -29c0 -21 -18 -31 -37 -31h-32v-348c0 -126 -39 -219 -190 -219c-164 0 -192 93 -192 219v348
h-32c-19 0 -37 10 -37 31c0 22 17 29 37 29h146c19 0 34 -8 34 -29c0 -20 -15 -31 -34 -31h-40v-333c0 -108 24 -160 118 -160c92 0 115 52 115 160v333h-40c-18 0 -33 11 -33 31c0 21 15 29 33 29h147z" />
    <glyph glyph-name="Ucircumflex" unicode="&#xdb;" 
d="M303 825c17 0 28 -10 41 -22c4 -4 96 -104 96 -112s-9 -15 -18 -15c-13 0 -25 7 -36 15l-80 54c-7 6 -15 9 -27 9c-10 0 -19 -2 -28 -9l-80 -54c-10 -7 -21 -15 -34 -15c-8 0 -19 5 -19 15s77 93 96 112c10 10 23 22 40 22h49zM504 614c20 0 37 -7 37 -29
c0 -21 -18 -31 -37 -31h-32v-348c0 -126 -39 -219 -190 -219c-164 0 -192 93 -192 219v348h-32c-19 0 -37 10 -37 31c0 22 17 29 37 29h146c19 0 34 -8 34 -29c0 -20 -15 -31 -34 -31h-40v-333c0 -108 24 -160 118 -160c92 0 115 52 115 160v333h-40c-18 0 -33 11 -33 31
c0 21 15 29 33 29h147z" />
    <glyph glyph-name="Udieresis" unicode="&#xdc;" 
d="M159 809c31 0 55 -24 55 -55s-24 -55 -55 -55s-55 24 -55 55s24 55 55 55zM398 809c32 0 56 -24 56 -55s-24 -55 -56 -55c-31 0 -54 24 -54 55s23 55 54 55zM504 614c20 0 37 -7 37 -29c0 -21 -18 -31 -37 -31h-32v-348c0 -126 -39 -219 -190 -219
c-164 0 -192 93 -192 219v348h-32c-19 0 -37 10 -37 31c0 22 17 29 37 29h146c19 0 34 -8 34 -29c0 -20 -15 -31 -34 -31h-40v-333c0 -108 24 -160 118 -160c92 0 115 52 115 160v333h-40c-18 0 -33 11 -33 31c0 21 15 29 33 29h147z" />
    <glyph glyph-name="Ugrave" unicode="&#xd9;" 
d="M193 836c31 0 56 -19 83 -38l123 -90c5 -3 11 -6 11 -14c0 -9 -6 -14 -16 -14c-9 0 -29 7 -37 11l-157 60c-19 6 -53 20 -53 46c0 23 20 39 46 39zM504 614c20 0 37 -7 37 -29c0 -21 -18 -31 -37 -31h-32v-348c0 -126 -39 -219 -190 -219c-164 0 -192 93 -192 219v348
h-32c-19 0 -37 10 -37 31c0 22 17 29 37 29h146c19 0 34 -8 34 -29c0 -20 -15 -31 -34 -31h-40v-333c0 -108 24 -160 118 -160c92 0 115 52 115 160v333h-40c-18 0 -33 11 -33 31c0 21 15 29 33 29h147z" />
    <glyph glyph-name="V" unicode="V" 
d="M509 614c18 0 29 -9 29 -29c0 -16 -11 -27 -29 -27h-21l-153 -530c-8 -29 -19 -45 -49 -45c-26 0 -37 19 -46 47l-173 528h-19c-15 0 -28 9 -28 27c0 17 8 29 28 29h173c17 0 29 -9 29 -29c0 -16 -12 -27 -29 -27h-69l141 -438l122 438h-55c-17 0 -29 6 -29 27
c0 17 8 29 29 29h149z" />
    <glyph glyph-name="W" unicode="W" horiz-adv-x="620" 
d="M576 614c19 0 36 -6 36 -29c0 -16 -10 -31 -29 -31h-22l-71 -542c-3 -20 -19 -34 -42 -34c-30 0 -42 20 -53 53l-78 240l-72 -241c-7 -26 -16 -52 -50 -52c-31 0 -42 25 -46 53l-78 523h-31c-18 0 -29 12 -29 31c0 21 16 29 39 29h156c19 0 37 -4 37 -29
c0 -16 -11 -31 -29 -31h-63l59 -444l74 241c6 18 15 41 38 41c14 0 27 -13 35 -38c0 -2 2 -2 79 -244l48 444h-70c-17 0 -28 11 -28 31c0 19 10 29 34 29h156z" />
    <glyph glyph-name="X" unicode="X" 
d="M490 614c16 0 31 -8 31 -28c0 -19 -18 -25 -37 -29c-20 -4 -37 -14 -46 -30l-123 -205l156 -233c1 0 1 -1 1 -1c9 -14 20 -24 31 -26c2 -1 6 -2 12 -3c20 -6 31 -17 31 -31c0 -16 -14 -28 -32 -28h-153c-16 0 -34 9 -34 28c0 18 16 30 35 30h39l-131 195l-106 -195h52
c17 0 30 -11 30 -30c0 -16 -12 -28 -30 -28h-174c-15 0 -29 9 -29 28c0 15 11 25 34 30c7 2 14 3 17 4c20 5 37 31 47 48l122 197l-139 215c-6 10 -19 30 -32 34c-4 2 -11 3 -20 6c-20 2 -30 12 -30 24c0 18 12 28 32 28h172c17 0 34 -8 34 -28c0 -17 -16 -27 -34 -27h-59
l124 -185l101 185h-55c-15 0 -32 8 -32 27s15 28 36 28h159z" />
    <glyph glyph-name="Y" unicode="Y" horiz-adv-x="535" 
d="M483 614c18 0 42 -6 42 -30c0 -13 -9 -22 -25 -27c-6 -1 -10 -2 -12 -3c-14 -3 -26 -32 -33 -43l-125 -240v-212h66c20 0 39 -6 39 -31c0 -20 -19 -28 -39 -28h-213c-16 0 -39 6 -39 28s15 31 39 31h67v205l-176 270c-9 13 -16 19 -34 23c-16 2 -30 9 -30 28
c0 22 16 29 39 29h165c20 0 38 -5 38 -30c0 -20 -16 -30 -38 -30h-67l140 -233c64 129 76 154 98 196l20 37h-55c-19 0 -36 7 -36 30c0 20 12 30 36 30h133z" />
    <glyph glyph-name="Yacute" unicode="&#xdd;" horiz-adv-x="535" 
d="M353 836c26 0 46 -16 46 -39c0 -26 -34 -40 -52 -46l-158 -60c-8 -4 -28 -11 -37 -11c-10 0 -16 5 -16 14c0 8 6 11 11 14l123 90c27 19 52 38 83 38zM483 614c18 0 42 -6 42 -30c0 -13 -9 -22 -25 -27c-6 -1 -10 -2 -12 -3c-14 -3 -26 -32 -33 -43l-125 -240v-212h66
c20 0 39 -6 39 -31c0 -20 -19 -28 -39 -28h-213c-16 0 -39 6 -39 28s15 31 39 31h67v205l-176 270c-9 13 -16 19 -34 23c-16 2 -30 9 -30 28c0 22 16 29 39 29h165c20 0 38 -5 38 -30c0 -20 -16 -30 -38 -30h-67l140 -233c64 129 76 154 98 196l20 37h-55
c-19 0 -36 7 -36 30c0 20 12 30 36 30h133z" />
    <glyph glyph-name="Ycircumflex" unicode="&#x176;" horiz-adv-x="535" 
d="M292 825c17 0 28 -10 41 -22c4 -4 96 -104 96 -112s-9 -15 -18 -15c-13 0 -25 7 -36 15l-80 54c-7 6 -15 9 -27 9c-10 0 -19 -2 -28 -9l-80 -54c-10 -7 -21 -15 -34 -15c-8 0 -19 5 -19 15s77 93 96 112c10 10 23 22 40 22h49zM483 614c18 0 42 -6 42 -30
c0 -13 -9 -22 -25 -27c-6 -1 -10 -2 -12 -3c-14 -3 -26 -32 -33 -43l-125 -240v-212h66c20 0 39 -6 39 -31c0 -20 -19 -28 -39 -28h-213c-16 0 -39 6 -39 28s15 31 39 31h67v205l-176 270c-9 13 -16 19 -34 23c-16 2 -30 9 -30 28c0 22 16 29 39 29h165c20 0 38 -5 38 -30
c0 -20 -16 -30 -38 -30h-67l140 -233c64 129 76 154 98 196l20 37h-55c-19 0 -36 7 -36 30c0 20 12 30 36 30h133z" />
    <glyph glyph-name="Ydieresis" unicode="&#x178;" horiz-adv-x="535" 
d="M148 809c31 0 55 -24 55 -55s-24 -55 -55 -55s-55 24 -55 55s24 55 55 55zM387 809c32 0 56 -24 56 -55s-24 -55 -56 -55c-31 0 -54 24 -54 55s23 55 54 55zM483 614c18 0 42 -6 42 -30c0 -13 -9 -22 -25 -27c-6 -1 -10 -2 -12 -3c-14 -3 -26 -32 -33 -43l-125 -240v-212
h66c20 0 39 -6 39 -31c0 -20 -19 -28 -39 -28h-213c-16 0 -39 6 -39 28s15 31 39 31h67v205l-176 270c-9 13 -16 19 -34 23c-16 2 -30 9 -30 28c0 22 16 29 39 29h165c20 0 38 -5 38 -30c0 -20 -16 -30 -38 -30h-67l140 -233c64 129 76 154 98 196l20 37h-55
c-19 0 -36 7 -36 30c0 20 12 30 36 30h133z" />
    <glyph glyph-name="Ygrave" unicode="&#x1ef2;" horiz-adv-x="535" 
d="M182 836c31 0 56 -19 83 -38l123 -90c5 -3 11 -6 11 -14c0 -9 -6 -14 -16 -14c-9 0 -29 7 -37 11l-157 60c-19 6 -53 20 -53 46c0 23 20 39 46 39zM483 614c18 0 42 -6 42 -30c0 -13 -9 -22 -25 -27c-6 -1 -10 -2 -12 -3c-14 -3 -26 -32 -33 -43l-125 -240v-212h66
c20 0 39 -6 39 -31c0 -20 -19 -28 -39 -28h-213c-16 0 -39 6 -39 28s15 31 39 31h67v205l-176 270c-9 13 -16 19 -34 23c-16 2 -30 9 -30 28c0 22 16 29 39 29h165c20 0 38 -5 38 -30c0 -20 -16 -30 -38 -30h-67l140 -233c64 129 76 154 98 196l20 37h-55
c-19 0 -36 7 -36 30c0 20 12 30 36 30h133z" />
    <glyph glyph-name="Z" unicode="Z" horiz-adv-x="515" 
d="M107 623c52 0 104 -7 169 -7h118c22 0 58 -4 58 -35c0 -14 -8 -26 -18 -43l-317 -475h205c48 0 79 26 92 77c7 25 19 39 34 39c16 0 26 -12 26 -30l-11 -127c0 -10 -5 -18 -10 -22c-7 -4 -18 -3 -30 -3c-53 0 -107 3 -171 3h-131c-38 0 -80 2 -80 52c0 31 18 57 37 85
l276 417h-145c-31 0 -64 -10 -80 -39c-5 -8 -7 -20 -12 -37c-7 -26 -19 -41 -36 -41c-16 0 -27 15 -27 31l11 126c3 20 19 29 42 29z" />
    <glyph glyph-name="a" unicode="a" horiz-adv-x="523" 
d="M287 444c38 0 78 -11 105 -41c21 -24 27 -56 27 -94v-247l34 12c7 1 14 5 25 5c15 0 25 -8 26 -26c0 -13 -10 -22 -33 -30l-51 -17c-19 -7 -31 -9 -37 -9c-10 0 -17 4 -24 13c-5 11 -10 24 -10 42c-50 -41 -106 -64 -170 -64c-65 0 -142 39 -142 115c0 49 26 85 78 111
c51 27 126 42 227 46v40c0 51 -15 89 -75 89c-27 0 -81 -7 -97 -35c-1 -2 -3 -10 -3 -21c-3 -32 -18 -49 -45 -49c-30 0 -37 33 -37 60c0 29 13 45 40 60c46 26 104 40 162 40zM342 199c-74 -1 -132 -10 -166 -25c-37 -14 -56 -36 -56 -64c0 -41 38 -61 78 -61
c48 0 112 25 144 62v88z" />
    <glyph glyph-name="aacute" unicode="&#xe1;" horiz-adv-x="523" 
d="M347 656c26 0 46 -16 46 -39c0 -26 -34 -40 -52 -46l-158 -60c-8 -4 -28 -11 -37 -11c-10 0 -16 5 -16 14c0 8 6 11 11 14l123 90c27 19 52 38 83 38zM287 444c38 0 78 -11 105 -41c21 -24 27 -56 27 -94v-247l34 12c7 1 14 5 25 5c15 0 25 -8 26 -26
c0 -13 -10 -22 -33 -30l-51 -17c-19 -7 -31 -9 -37 -9c-10 0 -17 4 -24 13c-5 11 -10 24 -10 42c-50 -41 -106 -64 -170 -64c-65 0 -142 39 -142 115c0 49 26 85 78 111c51 27 126 42 227 46v40c0 51 -15 89 -75 89c-27 0 -81 -7 -97 -35c-1 -2 -3 -10 -3 -21
c-3 -32 -18 -49 -45 -49c-30 0 -37 33 -37 60c0 29 13 45 40 60c46 26 104 40 162 40zM342 199c-74 -1 -132 -10 -166 -25c-37 -14 -56 -36 -56 -64c0 -41 38 -61 78 -61c48 0 112 25 144 62v88z" />
    <glyph glyph-name="acircumflex" unicode="&#xe2;" horiz-adv-x="523" 
d="M286 645c17 0 28 -10 41 -22c4 -4 96 -104 96 -112s-9 -15 -18 -15c-13 0 -25 7 -36 15l-80 54c-7 6 -15 9 -27 9c-10 0 -19 -2 -28 -9l-80 -54c-10 -7 -21 -15 -34 -15c-8 0 -19 5 -19 15s77 93 96 112c10 10 23 22 40 22h49zM287 444c38 0 78 -11 105 -41
c21 -24 27 -56 27 -94v-247l34 12c7 1 14 5 25 5c15 0 25 -8 26 -26c0 -13 -10 -22 -33 -30l-51 -17c-19 -7 -31 -9 -37 -9c-10 0 -17 4 -24 13c-5 11 -10 24 -10 42c-50 -41 -106 -64 -170 -64c-65 0 -142 39 -142 115c0 49 26 85 78 111c51 27 126 42 227 46v40
c0 51 -15 89 -75 89c-27 0 -81 -7 -97 -35c-1 -2 -3 -10 -3 -21c-3 -32 -18 -49 -45 -49c-30 0 -37 33 -37 60c0 29 13 45 40 60c46 26 104 40 162 40zM342 199c-74 -1 -132 -10 -166 -25c-37 -14 -56 -36 -56 -64c0 -41 38 -61 78 -61c48 0 112 25 144 62v88z" />
    <glyph glyph-name="adieresis" unicode="&#xe4;" horiz-adv-x="523" 
d="M142 629c31 0 55 -24 55 -55s-24 -55 -55 -55s-55 24 -55 55s24 55 55 55zM381 629c32 0 56 -24 56 -55s-24 -55 -56 -55c-31 0 -54 24 -54 55s23 55 54 55zM287 444c38 0 78 -11 105 -41c21 -24 27 -56 27 -94v-247l34 12c7 1 14 5 25 5c15 0 25 -8 26 -26
c0 -13 -10 -22 -33 -30l-51 -17c-19 -7 -31 -9 -37 -9c-10 0 -17 4 -24 13c-5 11 -10 24 -10 42c-50 -41 -106 -64 -170 -64c-65 0 -142 39 -142 115c0 49 26 85 78 111c51 27 126 42 227 46v40c0 51 -15 89 -75 89c-27 0 -81 -7 -97 -35c-1 -2 -3 -10 -3 -21
c-3 -32 -18 -49 -45 -49c-30 0 -37 33 -37 60c0 29 13 45 40 60c46 26 104 40 162 40zM342 199c-74 -1 -132 -10 -166 -25c-37 -14 -56 -36 -56 -64c0 -41 38 -61 78 -61c48 0 112 25 144 62v88z" />
    <glyph glyph-name="agrave" unicode="&#xe0;" horiz-adv-x="523" 
d="M176 656c31 0 56 -19 83 -38l123 -90c5 -3 11 -6 11 -14c0 -9 -6 -14 -16 -14c-9 0 -29 7 -37 11l-157 60c-19 6 -53 20 -53 46c0 23 20 39 46 39zM287 444c38 0 78 -11 105 -41c21 -24 27 -56 27 -94v-247l34 12c7 1 14 5 25 5c15 0 25 -8 26 -26c0 -13 -10 -22 -33 -30
l-51 -17c-19 -7 -31 -9 -37 -9c-10 0 -17 4 -24 13c-5 11 -10 24 -10 42c-50 -41 -106 -64 -170 -64c-65 0 -142 39 -142 115c0 49 26 85 78 111c51 27 126 42 227 46v40c0 51 -15 89 -75 89c-27 0 -81 -7 -97 -35c-1 -2 -3 -10 -3 -21c-3 -32 -18 -49 -45 -49
c-30 0 -37 33 -37 60c0 29 13 45 40 60c46 26 104 40 162 40zM342 199c-74 -1 -132 -10 -166 -25c-37 -14 -56 -36 -56 -64c0 -41 38 -61 78 -61c48 0 112 25 144 62v88z" />
    <glyph glyph-name="aring" unicode="&#xe5;" horiz-adv-x="523" 
d="M261 717c62 0 116 -50 115 -113c0 -65 -51 -114 -115 -114s-114 49 -114 114c0 62 51 113 114 113zM261 665c-31 0 -61 -28 -61 -61c0 -35 27 -62 61 -62c33 0 62 29 62 62s-30 61 -62 61zM287 444c38 0 78 -11 105 -41c21 -24 27 -56 27 -94v-247l34 12c7 1 14 5 25 5
c15 0 25 -8 26 -26c0 -13 -10 -22 -33 -30l-51 -17c-19 -7 -31 -9 -37 -9c-10 0 -17 4 -24 13c-5 11 -10 24 -10 42c-50 -41 -106 -64 -170 -64c-65 0 -142 39 -142 115c0 49 26 85 78 111c51 27 126 42 227 46v40c0 51 -15 89 -75 89c-27 0 -81 -7 -97 -35
c-1 -2 -3 -10 -3 -21c-3 -32 -18 -49 -45 -49c-30 0 -37 33 -37 60c0 29 13 45 40 60c46 26 104 40 162 40zM342 199c-74 -1 -132 -10 -166 -25c-37 -14 -56 -36 -56 -64c0 -41 38 -61 78 -61c48 0 112 25 144 62v88z" />
    <glyph glyph-name="atilde" unicode="&#xe3;" horiz-adv-x="523" 
d="M408 636c10 0 18 -7 18 -16c0 -58 -62 -86 -103 -86c-16 0 -33 1 -43 2l-63 10c-10 1 -20 5 -33 5c-18 0 -32 -7 -42 -18c-10 -12 -17 -18 -25 -18c-5 0 -19 2 -19 14c0 57 65 88 117 88c12 0 26 -1 38 -3l56 -10c8 -1 21 -5 29 -5c18 0 30 7 42 19c11 12 21 18 28 18z
M287 444c38 0 78 -11 105 -41c21 -24 27 -56 27 -94v-247l34 12c7 1 14 5 25 5c15 0 25 -8 26 -26c0 -13 -10 -22 -33 -30l-51 -17c-19 -7 -31 -9 -37 -9c-10 0 -17 4 -24 13c-5 11 -10 24 -10 42c-50 -41 -106 -64 -170 -64c-65 0 -142 39 -142 115c0 49 26 85 78 111
c51 27 126 42 227 46v40c0 51 -15 89 -75 89c-27 0 -81 -7 -97 -35c-1 -2 -3 -10 -3 -21c-3 -32 -18 -49 -45 -49c-30 0 -37 33 -37 60c0 29 13 45 40 60c46 26 104 40 162 40zM342 199c-74 -1 -132 -10 -166 -25c-37 -14 -56 -36 -56 -64c0 -41 38 -61 78 -61
c48 0 112 25 144 62v88z" />
    <glyph glyph-name="ae" unicode="&#xe6;" 
d="M394 446c110 0 153 -100 153 -202c0 -18 -3 -30 -9 -35c-5 -6 -22 -8 -50 -8h-184v-8c0 -78 22 -139 104 -139c25 0 52 9 80 25c30 15 46 24 50 24c9 0 21 -13 21 -23c0 -23 -17 -44 -55 -64c-36 -19 -76 -29 -118 -29c-54 0 -94 25 -122 72c-49 -46 -76 -72 -140 -72
c-68 0 -120 45 -120 115c0 128 108 144 230 164v41c0 43 -11 82 -54 82c-20 0 -67 -13 -70 -35c-1 -5 -1 -10 -2 -17c-3 -32 -14 -46 -37 -46c-10 0 -18 4 -23 15c-5 10 -7 28 -7 50c0 28 7 38 30 52c33 23 87 38 127 38c42 0 72 -21 84 -62c27 40 65 62 112 62zM391 382
c-57 0 -89 -55 -87 -109v-7h169c-2 58 -21 116 -82 116zM234 201c-70 -7 -157 -15 -157 -92c0 -35 23 -62 57 -62c44 0 77 26 110 57c-3 10 -6 24 -8 39s-2 33 -2 58z" />
    <glyph glyph-name="b" unicode="b" horiz-adv-x="522" 
d="M146 663c22 0 27 -17 27 -39v-239c36 28 79 49 128 49c116 0 186 -97 188 -210c0 -126 -89 -230 -223 -230c-37 0 -68 8 -106 27c-6 -13 -18 -28 -35 -28c-15 0 -39 8 -39 28c0 22 11 47 11 73v490l-56 -9c-20 0 -32 12 -32 29c0 18 16 28 32 32c20 7 43 11 67 18
c23 5 36 9 38 9zM271 370c-35 0 -64 -18 -98 -36v-241c24 -25 55 -42 93 -42c90 0 137 76 139 162c0 74 -48 157 -134 157z" />
    <glyph glyph-name="c" unicode="c" horiz-adv-x="509" 
d="M300 446c38 0 122 -14 122 -69c0 -20 -1 -40 -2 -63c-1 -24 -11 -48 -41 -48c-20 0 -39 14 -41 39l-4 36c-6 31 -35 46 -68 46c-84 0 -145 -81 -145 -163c0 -84 56 -170 150 -170c32 0 69 9 107 25c39 16 61 24 66 24c14 0 28 -9 28 -26c0 -23 -25 -36 -45 -46
c-52 -25 -109 -44 -171 -44c-125 0 -221 90 -221 222c0 147 122 237 265 237z" />
    <glyph glyph-name="ccedilla" unicode="&#xe7;" horiz-adv-x="509" 
d="M444 103c14 0 28 -9 28 -26c0 -23 -25 -36 -45 -46c-48 -23 -100 -41 -157 -44l-11 -46h22c53 0 90 -23 90 -78c0 -56 -45 -82 -101 -82c-32 0 -62 6 -89 17c-28 11 -42 22 -42 34c0 10 8 23 18 23c3 0 15 -6 39 -17c22 -10 43 -14 64 -14c27 0 46 11 46 39
c0 26 -16 39 -43 42h-12c-20 0 -31 7 -31 20c0 7 6 31 11 47l5 16c-115 9 -201 96 -201 221c0 147 122 237 265 237c38 0 122 -14 122 -69c0 -20 -1 -40 -2 -63c-1 -24 -11 -48 -41 -48c-20 0 -39 14 -41 39l-4 36c-6 31 -35 46 -68 46c-84 0 -145 -81 -145 -163
c0 -84 56 -170 150 -170c32 0 69 9 107 25c39 16 61 24 66 24z" />
    <glyph glyph-name="d" unicode="d" horiz-adv-x="548" 
d="M404 663c21 0 30 -16 30 -39v-551l42 10c16 4 29 -5 31 -22c0 -15 -11 -29 -25 -33c0 0 -66 -28 -88 -28c-14 0 -24 6 -34 22c-33 -22 -65 -34 -104 -34c-124 0 -205 104 -205 226c0 125 76 223 202 223c37 0 72 -7 104 -23v170l-56 -8c-14 -2 -32 5 -32 26
c0 17 18 27 34 33c0 0 84 28 101 28zM277 375c-93 0 -143 -82 -143 -171s47 -152 137 -152c32 0 60 9 86 29v263c-24 22 -48 31 -80 31z" />
    <glyph glyph-name="eth" unicode="&#xf0;" 
d="M154 664c14 0 30 -5 49 -12c20 -8 52 -26 101 -53l102 53c9 4 14 5 22 5c15 0 26 -11 26 -24c0 -15 -12 -27 -27 -34l-78 -40c88 -94 146 -210 146 -338c0 -131 -83 -234 -216 -234c-128 0 -215 85 -215 214c0 125 88 223 215 223c45 0 52 -9 75 -14c-7 17 -18 35 -30 54
s-30 38 -50 58l-102 -54c-10 -4 -12 -5 -22 -5c-13 0 -26 11 -26 24c0 17 15 26 28 34l73 38c-16 12 -39 23 -63 35c-29 12 -43 26 -43 40c0 19 18 30 35 30zM279 354c-84 0 -132 -55 -132 -139c0 -86 47 -159 136 -159c82 0 128 56 128 136c0 85 -44 162 -132 162z" />
    <glyph glyph-name="e" unicode="e" horiz-adv-x="515" 
d="M263 446c118 0 200 -92 200 -206c0 -38 -46 -36 -79 -36h-263c0 -93 62 -150 154 -150c37 0 74 9 112 25c38 15 54 24 63 24c7 0 15 -1 21 -9c21 -27 -18 -54 -38 -64c-56 -27 -118 -43 -177 -43c-132 0 -221 88 -221 222c0 132 95 237 228 237zM258 384
c-74 0 -130 -55 -137 -129l258 10c-10 66 -54 119 -121 119z" />
    <glyph glyph-name="eacute" unicode="&#xe9;" horiz-adv-x="515" 
d="M343 656c26 0 46 -16 46 -39c0 -26 -34 -40 -52 -46l-158 -60c-8 -4 -28 -11 -37 -11c-10 0 -16 5 -16 14c0 8 6 11 11 14l123 90c27 19 52 38 83 38zM263 446c118 0 200 -92 200 -206c0 -38 -46 -36 -79 -36h-263c0 -93 62 -150 154 -150c37 0 74 9 112 25
c38 15 54 24 63 24c7 0 15 -1 21 -9c21 -27 -18 -54 -38 -64c-56 -27 -118 -43 -177 -43c-132 0 -221 88 -221 222c0 132 95 237 228 237zM258 384c-74 0 -130 -55 -137 -129l258 10c-10 66 -54 119 -121 119z" />
    <glyph glyph-name="ecircumflex" unicode="&#xea;" horiz-adv-x="515" 
d="M282 645c17 0 28 -10 41 -22c4 -4 96 -104 96 -112s-9 -15 -18 -15c-13 0 -25 7 -36 15l-80 54c-7 6 -15 9 -27 9c-10 0 -19 -2 -28 -9l-80 -54c-10 -7 -21 -15 -34 -15c-8 0 -19 5 -19 15s77 93 96 112c10 10 23 22 40 22h49zM263 446c118 0 200 -92 200 -206
c0 -38 -46 -36 -79 -36h-263c0 -93 62 -150 154 -150c37 0 74 9 112 25c38 15 54 24 63 24c7 0 15 -1 21 -9c21 -27 -18 -54 -38 -64c-56 -27 -118 -43 -177 -43c-132 0 -221 88 -221 222c0 132 95 237 228 237zM258 384c-74 0 -130 -55 -137 -129l258 10
c-10 66 -54 119 -121 119z" />
    <glyph glyph-name="edieresis" unicode="&#xeb;" horiz-adv-x="515" 
d="M138 629c31 0 55 -24 55 -55s-24 -55 -55 -55s-55 24 -55 55s24 55 55 55zM377 629c32 0 56 -24 56 -55s-24 -55 -56 -55c-31 0 -54 24 -54 55s23 55 54 55zM263 446c118 0 200 -92 200 -206c0 -38 -46 -36 -79 -36h-263c0 -93 62 -150 154 -150c37 0 74 9 112 25
c38 15 54 24 63 24c7 0 15 -1 21 -9c21 -27 -18 -54 -38 -64c-56 -27 -118 -43 -177 -43c-132 0 -221 88 -221 222c0 132 95 237 228 237zM258 384c-74 0 -130 -55 -137 -129l258 10c-10 66 -54 119 -121 119z" />
    <glyph glyph-name="egrave" unicode="&#xe8;" horiz-adv-x="515" 
d="M172 656c31 0 56 -19 83 -38l123 -90c5 -3 11 -6 11 -14c0 -9 -6 -14 -16 -14c-9 0 -29 7 -37 11l-157 60c-19 6 -53 20 -53 46c0 23 20 39 46 39zM263 446c118 0 200 -92 200 -206c0 -38 -46 -36 -79 -36h-263c0 -93 62 -150 154 -150c37 0 74 9 112 25
c38 15 54 24 63 24c7 0 15 -1 21 -9c21 -27 -18 -54 -38 -64c-56 -27 -118 -43 -177 -43c-132 0 -221 88 -221 222c0 132 95 237 228 237zM258 384c-74 0 -130 -55 -137 -129l258 10c-10 66 -54 119 -121 119z" />
    <glyph glyph-name="f" unicode="f" horiz-adv-x="432" 
d="M282 652c44 0 79 -4 104 -13c28 -9 40 -27 40 -42c0 -19 -15 -35 -41 -35s-45 24 -119 24c-67 0 -71 -58 -71 -122v-30h148c18 0 43 -7 43 -30s-20 -30 -43 -30h-147v-286c0 -19 6 -30 28 -30h119c18 0 37 -9 37 -30c0 -19 -18 -28 -37 -28h-294c-17 0 -35 7 -35 28
c0 19 14 30 35 30h49c14 0 23 10 23 26v290h-72c-18 0 -37 8 -37 30c0 18 18 30 37 30h72v40c0 102 44 178 161 178z" />
    <glyph glyph-name="g" unicode="g" horiz-adv-x="516" 
d="M231 451c42 0 85 -14 120 -41h95c21 0 37 -10 37 -35c0 -18 -17 -30 -37 -30h-57c7 -19 14 -39 14 -63c0 -104 -94 -148 -190 -148c-14 -6 -41 -20 -41 -41c0 -16 17 -25 33 -25l140 3h6c74 0 143 -32 146 -118c0 -126 -164 -158 -267 -158c-76 0 -195 30 -195 128
c0 47 36 83 69 114c-10 10 -23 16 -23 34c0 21 19 39 35 57l31 32c-50 24 -88 64 -88 127c0 94 75 164 172 164zM231 394c-58 0 -98 -39 -98 -100c0 -58 36 -100 98 -100c60 0 99 39 100 100c0 58 -40 100 -100 100zM324 14h-9l-161 -2c-21 -19 -44 -44 -44 -76
c0 -61 70 -79 122 -79c60 0 194 14 199 99c0 55 -57 58 -107 58z" />
    <glyph glyph-name="h" unicode="h" 
d="M149 663c22 0 27 -17 27 -39v-233c54 32 96 54 155 54c102 0 136 -68 136 -168v-218h49c16 0 37 -9 37 -29c0 -18 -18 -30 -37 -30h-146c-17 0 -34 10 -34 30c0 17 15 29 34 29h20v187c0 80 -10 129 -88 129c-47 0 -79 -14 -126 -36v-280h57c17 0 38 -8 38 -29
c0 -20 -17 -30 -38 -30h-153c-19 0 -33 10 -33 30c0 18 15 29 33 29h21v525l-57 -9h-5c-15 0 -27 12 -27 29c0 18 16 28 32 32l67 18c23 6 36 9 38 9z" />
    <glyph glyph-name="i" unicode="i" horiz-adv-x="453" 
d="M245 663c39 0 62 -30 62 -62c0 -40 -31 -77 -75 -77c-33 0 -64 28 -64 63c0 40 35 76 77 76zM244 446c21 0 28 -12 28 -36v-319c0 -17 5 -33 26 -33h97c19 0 38 -8 39 -30c0 -20 -19 -28 -39 -28h-322c-16 0 -39 7 -39 28c0 20 18 28 39 28h95c24 0 28 17 28 42v272
l-139 -10c-14 -1 -32 6 -32 25c0 37 49 33 80 36c31 2 62 7 92 14c31 9 46 11 47 11z" />
    <glyph glyph-name="dotlessi" unicode="&#x131;" horiz-adv-x="460" 
d="M251 446c21 0 28 -12 28 -36v-319c0 -17 5 -33 26 -33h97c19 0 38 -8 39 -30c0 -20 -19 -28 -39 -28h-322c-16 0 -39 7 -39 28c0 20 18 28 39 28h95c24 0 28 17 28 42v272l-139 -10c-14 -1 -32 6 -32 25c0 37 49 33 80 36c31 2 62 7 92 14c31 9 46 11 47 11z" />
    <glyph glyph-name="iacute" unicode="&#xed;" horiz-adv-x="460" 
d="M315 656c26 0 46 -16 46 -39c0 -26 -34 -40 -52 -46l-158 -60c-8 -4 -28 -11 -37 -11c-10 0 -16 5 -16 14c0 8 6 11 11 14l123 90c27 19 52 38 83 38zM251 446c21 0 28 -12 28 -36v-319c0 -17 5 -33 26 -33h97c19 0 38 -8 39 -30c0 -20 -19 -28 -39 -28h-322
c-16 0 -39 7 -39 28c0 20 18 28 39 28h95c24 0 28 17 28 42v272l-139 -10c-14 -1 -32 6 -32 25c0 37 49 33 80 36c31 2 62 7 92 14c31 9 46 11 47 11z" />
    <glyph glyph-name="icircumflex" unicode="&#xee;" horiz-adv-x="460" 
d="M254 645c17 0 28 -10 41 -22c4 -4 96 -104 96 -112s-9 -15 -18 -15c-13 0 -25 7 -36 15l-80 54c-7 6 -15 9 -27 9c-10 0 -19 -2 -28 -9l-80 -54c-10 -7 -21 -15 -34 -15c-8 0 -19 5 -19 15s77 93 96 112c10 10 23 22 40 22h49zM251 446c21 0 28 -12 28 -36v-319
c0 -17 5 -33 26 -33h97c19 0 38 -8 39 -30c0 -20 -19 -28 -39 -28h-322c-16 0 -39 7 -39 28c0 20 18 28 39 28h95c24 0 28 17 28 42v272l-139 -10c-14 -1 -32 6 -32 25c0 37 49 33 80 36c31 2 62 7 92 14c31 9 46 11 47 11z" />
    <glyph glyph-name="idieresis" unicode="&#xef;" horiz-adv-x="460" 
d="M110 629c31 0 55 -24 55 -55s-24 -55 -55 -55s-55 24 -55 55s24 55 55 55zM349 629c32 0 56 -24 56 -55s-24 -55 -56 -55c-31 0 -54 24 -54 55s23 55 54 55zM251 446c21 0 28 -12 28 -36v-319c0 -17 5 -33 26 -33h97c19 0 38 -8 39 -30c0 -20 -19 -28 -39 -28h-322
c-16 0 -39 7 -39 28c0 20 18 28 39 28h95c24 0 28 17 28 42v272l-139 -10c-14 -1 -32 6 -32 25c0 37 49 33 80 36c31 2 62 7 92 14c31 9 46 11 47 11z" />
    <glyph glyph-name="igrave" unicode="&#xec;" horiz-adv-x="460" 
d="M144 656c31 0 56 -19 83 -38l123 -90c5 -3 11 -6 11 -14c0 -9 -6 -14 -16 -14c-9 0 -29 7 -37 11l-157 60c-19 6 -53 20 -53 46c0 23 20 39 46 39zM251 446c21 0 28 -12 28 -36v-319c0 -17 5 -33 26 -33h97c19 0 38 -8 39 -30c0 -20 -19 -28 -39 -28h-322
c-16 0 -39 7 -39 28c0 20 18 28 39 28h95c24 0 28 17 28 42v272l-139 -10c-14 -1 -32 6 -32 25c0 37 49 33 80 36c31 2 62 7 92 14c31 9 46 11 47 11z" />
    <glyph glyph-name="j" unicode="j" horiz-adv-x="366" 
d="M223 663c39 0 62 -30 62 -62c0 -40 -31 -77 -75 -77c-32 0 -63 28 -63 63c0 40 34 76 76 76zM254 446c22 0 29 -12 29 -36v-413c0 -124 -24 -202 -165 -202c-34 0 -168 15 -168 68c0 16 13 37 32 37c46 0 87 -44 139 -44c92 0 86 106 86 186v328l-130 -10h-7
c-16 0 -34 6 -34 25c0 36 51 33 80 36c31 2 62 6 93 14c30 8 44 11 45 11z" />
    <glyph glyph-name="k" unicode="k" 
d="M149 663c22 0 27 -17 27 -39v-398c26 24 50 47 77 70c26 26 56 53 89 83c-18 3 -31 5 -38 10c-8 5 -11 11 -11 19c0 22 22 26 43 26h140c14 0 28 -8 28 -26c0 -21 -29 -24 -49 -28c-15 -4 -33 -11 -53 -24c-19 -12 -43 -32 -72 -56l-36 -31c52 -71 92 -124 120 -155
c29 -31 50 -47 62 -47c19 0 33 16 53 16c13 0 25 -10 25 -24c0 -8 -1 -17 -9 -21l-51 -30c-18 -10 -32 -14 -41 -14c-17 0 -45 20 -86 67c-25 29 -56 69 -95 121c-7 9 -28 39 -28 39l-66 -61v-77c0 -13 6 -25 23 -25h32c18 0 27 -14 27 -30c0 -17 -9 -28 -27 -28h-149
c-21 0 -36 7 -36 28s16 30 36 30h17v526l-57 -9h-4c-14 0 -27 12 -27 29c0 16 16 28 33 32l66 18c22 5 35 9 37 9z" />
    <glyph glyph-name="l" unicode="l" horiz-adv-x="453" 
d="M239 663c20 0 25 -17 25 -38v-534c0 -21 6 -33 27 -33h106c20 0 39 -8 39 -30c0 -21 -20 -28 -39 -28h-347c-18 0 -33 10 -33 28c0 22 14 28 33 28h113c23 0 26 14 26 38v491l-119 -8h-6c-14 0 -30 7 -30 26c0 30 46 32 75 33c30 1 58 7 86 14z" />
    <glyph glyph-name="lslash" unicode="&#x142;" 
d="M302 663c23 0 25 -16 25 -38v-254l99 70c7 3 14 6 20 6c16 0 30 -13 30 -29c0 -10 -5 -18 -13 -24l-136 -93v-210c0 -21 6 -33 27 -33h129c20 0 39 -8 39 -30c0 -21 -20 -28 -39 -28h-370c-18 0 -33 10 -33 28c0 22 14 28 33 28h113c24 0 26 14 26 38v162l-99 -68
c-9 -5 -15 -7 -25 -7c-15 0 -25 11 -25 24s6 21 15 28l134 93v259l-124 -8c-17 -1 -30 7 -30 26c0 11 6 19 15 23c10 6 30 6 59 10c36 6 101 27 130 27z" />
    <glyph glyph-name="m" unicode="m" horiz-adv-x="664" 
d="M259 438c35 0 65 -13 88 -44c34 21 94 43 137 43c89 0 110 -85 110 -163v-216h28c14 0 30 -14 30 -30s-13 -28 -30 -28h-114c-15 0 -27 9 -27 28c0 16 11 30 31 30h9v216c0 35 -2 97 -53 97c-27 0 -72 -15 -95 -30c0 -17 2 -34 2 -71v-212h29c16 0 27 -12 27 -30
c0 -19 -10 -28 -31 -28h-95c-16 0 -31 8 -31 28c0 14 3 28 22 28h6v213c0 44 1 102 -60 102c-22 0 -60 -7 -81 -16v-297h32c17 0 28 -11 28 -30s-13 -28 -35 -28h-106c-17 0 -31 7 -31 28c0 16 5 30 26 30h10v308l-45 -5h-7c-12 0 -21 9 -21 23c0 16 11 23 28 28
c18 3 35 9 54 13c19 7 36 9 37 9c10 0 21 -4 21 -18v-14c24 16 70 36 107 36z" />
    <glyph glyph-name="n" unicode="n" 
d="M331 444c100 0 136 -68 136 -164v-221h49c16 0 37 -9 37 -29c0 -18 -18 -30 -37 -30h-149c-15 0 -31 12 -31 30c0 17 15 29 34 29h22v187c0 63 -12 129 -90 129c-44 0 -82 -16 -126 -36v-280h59c17 0 36 -9 36 -29c0 -18 -16 -30 -36 -30h-157c-16 0 -31 12 -31 30
c0 16 13 29 31 29h23v306l-58 -5h-4c-16 0 -27 10 -27 27c0 16 10 25 26 29c18 4 39 8 64 12c23 6 39 8 42 8c16 0 25 -8 25 -26v-23c47 30 100 57 162 57z" />
    <glyph glyph-name="ntilde" unicode="&#xf1;" 
d="M425 636c10 0 18 -7 18 -16c0 -58 -62 -86 -103 -86c-16 0 -33 1 -43 2l-63 10c-10 1 -20 5 -33 5c-18 0 -32 -7 -42 -18c-10 -12 -17 -18 -25 -18c-5 0 -19 2 -19 14c0 57 65 88 117 88c12 0 26 -1 38 -3l56 -10c8 -1 21 -5 29 -5c18 0 30 7 42 19c11 12 21 18 28 18z
M331 444c100 0 136 -68 136 -164v-221h49c16 0 37 -9 37 -29c0 -18 -18 -30 -37 -30h-149c-15 0 -31 12 -31 30c0 17 15 29 34 29h22v187c0 63 -12 129 -90 129c-44 0 -82 -16 -126 -36v-280h59c17 0 36 -9 36 -29c0 -18 -16 -30 -36 -30h-157c-16 0 -31 12 -31 30
c0 16 13 29 31 29h23v306l-58 -5h-4c-16 0 -27 10 -27 27c0 16 10 25 26 29c18 4 39 8 64 12c23 6 39 8 42 8c16 0 25 -8 25 -26v-23c47 30 100 57 162 57z" />
    <glyph glyph-name="o" unicode="o" horiz-adv-x="525" 
d="M270 445c128 0 222 -92 219 -222c0 -131 -95 -236 -227 -236c-138 0 -227 92 -227 229c0 136 101 229 235 229zM262 380c-93 0 -145 -61 -145 -151c0 -95 52 -175 149 -175c88 0 140 60 139 148c0 92 -47 178 -143 178z" />
    <glyph glyph-name="oacute" unicode="&#xf3;" horiz-adv-x="525" 
d="M348 656c26 0 46 -16 46 -39c0 -26 -34 -40 -52 -46l-158 -60c-8 -4 -28 -11 -37 -11c-10 0 -16 5 -16 14c0 8 6 11 11 14l123 90c27 19 52 38 83 38zM270 445c128 0 222 -92 219 -222c0 -131 -95 -236 -227 -236c-138 0 -227 92 -227 229c0 136 101 229 235 229z
M262 380c-93 0 -145 -61 -145 -151c0 -95 52 -175 149 -175c88 0 140 60 139 148c0 92 -47 178 -143 178z" />
    <glyph glyph-name="ocircumflex" unicode="&#xf4;" horiz-adv-x="525" 
d="M287 645c17 0 28 -10 41 -22c4 -4 96 -104 96 -112s-9 -15 -18 -15c-13 0 -25 7 -36 15l-80 54c-7 6 -15 9 -27 9c-10 0 -19 -2 -28 -9l-80 -54c-10 -7 -21 -15 -34 -15c-8 0 -19 5 -19 15s77 93 96 112c10 10 23 22 40 22h49zM270 445c128 0 222 -92 219 -222
c0 -131 -95 -236 -227 -236c-138 0 -227 92 -227 229c0 136 101 229 235 229zM262 380c-93 0 -145 -61 -145 -151c0 -95 52 -175 149 -175c88 0 140 60 139 148c0 92 -47 178 -143 178z" />
    <glyph glyph-name="odieresis" unicode="&#xf6;" horiz-adv-x="525" 
d="M143 629c31 0 55 -24 55 -55s-24 -55 -55 -55s-55 24 -55 55s24 55 55 55zM382 629c32 0 56 -24 56 -55s-24 -55 -56 -55c-31 0 -54 24 -54 55s23 55 54 55zM270 445c128 0 222 -92 219 -222c0 -131 -95 -236 -227 -236c-138 0 -227 92 -227 229c0 136 101 229 235 229z
M262 380c-93 0 -145 -61 -145 -151c0 -95 52 -175 149 -175c88 0 140 60 139 148c0 92 -47 178 -143 178z" />
    <glyph glyph-name="ograve" unicode="&#xf2;" horiz-adv-x="525" 
d="M177 656c31 0 56 -19 83 -38l123 -90c5 -3 11 -6 11 -14c0 -9 -6 -14 -16 -14c-9 0 -29 7 -37 11l-157 60c-19 6 -53 20 -53 46c0 23 20 39 46 39zM270 445c128 0 222 -92 219 -222c0 -131 -95 -236 -227 -236c-138 0 -227 92 -227 229c0 136 101 229 235 229zM262 380
c-93 0 -145 -61 -145 -151c0 -95 52 -175 149 -175c88 0 140 60 139 148c0 92 -47 178 -143 178z" />
    <glyph glyph-name="oslash" unicode="&#xf8;" 
d="M414 534c16 0 27 -9 27 -25c0 -3 0 -4 -1 -7l-40 -87c71 -41 107 -120 107 -201c0 -135 -95 -230 -230 -230c-24 0 -48 6 -73 10l-40 -86c-4 -10 -11 -15 -22 -15c-14 0 -27 12 -27 25c0 5 2 9 4 14l40 84c-72 45 -107 113 -107 198c0 137 95 231 231 231
c26 0 52 -4 71 -9l37 80c5 11 10 18 23 18zM277 380c-94 0 -149 -69 -149 -162c0 -54 19 -104 63 -130l133 286c-14 3 -32 6 -47 6zM370 351l-135 -289c16 -5 27 -8 42 -8c97 0 155 68 155 164c0 56 -19 101 -62 133z" />
    <glyph glyph-name="otilde" unicode="&#xf5;" horiz-adv-x="525" 
d="M409 636c10 0 18 -7 18 -16c0 -58 -62 -86 -103 -86c-16 0 -33 1 -43 2l-63 10c-10 1 -20 5 -33 5c-18 0 -32 -7 -42 -18c-10 -12 -17 -18 -25 -18c-5 0 -19 2 -19 14c0 57 65 88 117 88c12 0 26 -1 38 -3l56 -10c8 -1 21 -5 29 -5c18 0 30 7 42 19c11 12 21 18 28 18z
M270 445c128 0 222 -92 219 -222c0 -131 -95 -236 -227 -236c-138 0 -227 92 -227 229c0 136 101 229 235 229zM262 380c-93 0 -145 -61 -145 -151c0 -95 52 -175 149 -175c88 0 140 60 139 148c0 92 -47 178 -143 178z" />
    <glyph glyph-name="oe" unicode="&#x153;" 
d="M424 447c105 0 144 -101 144 -198c0 -20 -2 -33 -6 -38c-7 -7 -24 -9 -50 -9l-182 1c0 -82 24 -147 108 -147c44 0 99 48 121 48c14 0 22 -15 22 -26c0 -57 -115 -91 -160 -91c-61 0 -104 27 -130 83c-26 -56 -69 -83 -131 -83c-114 0 -162 122 -162 229
c0 114 46 231 166 231c61 0 96 -31 130 -83c30 53 71 83 130 83zM416 380c-61 0 -87 -54 -86 -111v-9l162 2c-2 54 -17 118 -76 118zM169 377c-75 0 -88 -92 -88 -161c0 -67 16 -158 88 -158c75 0 90 90 90 158c0 70 -15 161 -90 161z" />
    <glyph glyph-name="p" unicode="p" horiz-adv-x="539" 
d="M312 444c116 0 192 -97 189 -212c0 -133 -85 -234 -220 -234c-31 0 -58 6 -90 16v-161h51c17 0 32 -7 32 -28s-13 -30 -36 -30h-139c-19 0 -38 4 -38 30c0 16 14 28 33 28h20v517l-55 -6h-6c-15 0 -29 8 -29 27c0 13 12 27 27 30c24 4 48 11 72 15c22 6 35 8 37 8
c14 0 31 -4 31 -23v-20c38 24 77 43 121 43zM289 380c-39 0 -67 -19 -98 -46v-240c30 -24 58 -40 94 -40c85 0 139 73 136 157c0 82 -45 169 -132 169z" />
    <glyph glyph-name="thorn" unicode="&#xfe;" 
d="M159 663c22 6 26 -14 26 -38v-224c38 25 78 43 122 43c119 0 188 -97 188 -212c0 -133 -84 -234 -220 -234c-29 0 -61 6 -90 16v-161h53c20 0 32 -7 32 -28c0 -24 -16 -30 -38 -30h-138c-23 0 -38 4 -38 30c0 20 16 28 34 28h20v732l-126 -8c-14 -1 -28 7 -28 26
c0 23 47 30 74 33c32 4 87 14 129 27zM284 380c-39 0 -68 -19 -99 -46v-240c29 -24 59 -40 96 -40c89 0 133 73 133 157c0 81 -42 169 -130 169z" />
    <glyph glyph-name="q" unicode="q" horiz-adv-x="510" 
d="M412 445c17 0 33 -12 33 -31c0 -1 -1 -6 -4 -13c-13 -48 -21 -107 -21 -177v-373h42c16 0 28 -12 29 -29c0 -18 -14 -27 -35 -27h-149c-18 0 -33 5 -33 27c0 17 14 29 33 29h37v163c-36 -13 -67 -21 -104 -21c-127 0 -205 98 -205 223c0 126 73 225 201 225
c47 0 88 -13 126 -37l19 22c7 8 18 19 31 19zM260 375c-92 0 -141 -82 -141 -170c0 -84 48 -149 135 -149c32 0 61 12 90 28v261c-25 21 -51 30 -84 30z" />
    <glyph glyph-name="r" unicode="r" horiz-adv-x="459" 
d="M392 446c35 0 77 -12 77 -57c0 -28 -18 -43 -47 -43c-53 0 -98 18 -149 -13c-23 -14 -47 -37 -68 -67v-210h131c19 0 42 -3 42 -28c0 -17 -15 -28 -33 -28h-251c-16 0 -36 6 -36 28c0 20 15 28 36 28h36v318l-82 -8h-6c-17 0 -27 9 -27 28c0 29 37 34 61 37
c38 3 69 6 98 13c3 1 6 1 7 1c18 0 24 -12 24 -32v-69c47 59 106 102 187 102z" />
    <glyph glyph-name="s" unicode="s" horiz-adv-x="528" 
d="M269 446c38 0 97 -18 108 -18s22 3 34 3c18 0 26 -24 28 -40l7 -61c2 -25 -1 -46 -33 -46c-23 0 -35 39 -44 67c-12 35 -61 41 -98 41c-50 0 -107 -17 -107 -69c0 -34 43 -53 125 -73l23 -6c86 -20 146 -41 146 -117c0 -103 -96 -140 -192 -140c-42 0 -100 22 -127 22
c-6 0 -22 -3 -29 -3c-26 0 -31 6 -33 33l-7 89c0 19 14 35 35 35c17 0 25 -16 34 -48l4 -12c12 -45 67 -63 117 -63s119 19 119 73c0 31 -38 51 -110 67l-20 4c-89 20 -160 37 -160 123c0 97 89 139 180 139z" />
    <glyph glyph-name="germandbls" unicode="&#xdf;" 
d="M254 650c100 0 189 -57 189 -162c0 -56 -29 -93 -80 -118c99 -35 166 -111 166 -217c0 -95 -51 -163 -147 -163c-76 0 -133 36 -133 113c0 31 13 59 45 59c23 0 40 -13 40 -38c0 -11 -4 -25 -10 -36c0 -27 21 -40 47 -40c56 0 76 50 76 104c0 86 -43 143 -123 172
c-14 6 -34 9 -59 10c-27 3 -41 12 -41 28c0 13 14 22 39 24c59 6 100 37 100 100c0 68 -48 108 -114 108c-85 0 -100 -53 -100 -137v-373c0 -22 3 -28 25 -28h14c17 0 27 -12 27 -28c0 -21 -10 -28 -32 -28h-139c-23 0 -37 3 -37 28c0 14 14 28 29 28h16c13 0 21 12 21 26
v372c0 133 47 196 181 196z" />
    <glyph glyph-name="t" unicode="t" horiz-adv-x="447" 
d="M129 532c34 0 38 -26 38 -52v-59h206c18 0 29 -11 29 -30c0 -18 -10 -31 -28 -31h-207v-229c0 -49 9 -73 58 -73c31 0 69 6 111 17c43 14 68 19 75 19c13 0 27 -11 27 -25c0 -25 -28 -41 -53 -48c-49 -17 -129 -31 -179 -31c-103 0 -117 60 -117 164v206h-49
c-21 0 -37 9 -37 29c0 23 13 32 37 32h49v59c0 28 10 52 40 52z" />
    <glyph glyph-name="u" unicode="u" 
d="M440 434c16 0 21 -19 21 -36v-331l55 6h6c12 0 26 -6 26 -22c0 -18 -14 -25 -32 -30l-63 -14c-21 -5 -32 -7 -32 -7c-19 0 -27 11 -27 32v24c-55 -34 -104 -59 -164 -59c-93 0 -138 60 -138 152v207l-48 -15c-1 0 -2 -1 -8 -1c-14 0 -24 12 -24 26c0 17 10 26 26 31
c22 7 45 16 67 24c24 9 38 13 40 13c19 0 27 -14 27 -36v-218c0 -72 9 -121 84 -121c46 0 91 21 130 49v247l-36 -11c-5 -1 -17 -4 -21 -4c-15 0 -24 11 -24 26c0 18 12 27 29 31l67 24c23 9 27 13 39 13z" />
    <glyph glyph-name="uacute" unicode="&#xfa;" 
d="M364 656c26 0 46 -16 46 -39c0 -26 -34 -40 -52 -46l-158 -60c-8 -4 -28 -11 -37 -11c-10 0 -16 5 -16 14c0 8 6 11 11 14l123 90c27 19 52 38 83 38zM440 434c16 0 21 -19 21 -36v-331l55 6h6c12 0 26 -6 26 -22c0 -18 -14 -25 -32 -30l-63 -14c-21 -5 -32 -7 -32 -7
c-19 0 -27 11 -27 32v24c-55 -34 -104 -59 -164 -59c-93 0 -138 60 -138 152v207l-48 -15c-1 0 -2 -1 -8 -1c-14 0 -24 12 -24 26c0 17 10 26 26 31c22 7 45 16 67 24c24 9 38 13 40 13c19 0 27 -14 27 -36v-218c0 -72 9 -121 84 -121c46 0 91 21 130 49v247l-36 -11
c-5 -1 -17 -4 -21 -4c-15 0 -24 11 -24 26c0 18 12 27 29 31l67 24c23 9 27 13 39 13z" />
    <glyph glyph-name="ucircumflex" unicode="&#xfb;" 
d="M303 645c17 0 28 -10 41 -22c4 -4 96 -104 96 -112s-9 -15 -18 -15c-13 0 -25 7 -36 15l-80 54c-7 6 -15 9 -27 9c-10 0 -19 -2 -28 -9l-80 -54c-10 -7 -21 -15 -34 -15c-8 0 -19 5 -19 15s77 93 96 112c10 10 23 22 40 22h49zM440 434c16 0 21 -19 21 -36v-331l55 6h6
c12 0 26 -6 26 -22c0 -18 -14 -25 -32 -30l-63 -14c-21 -5 -32 -7 -32 -7c-19 0 -27 11 -27 32v24c-55 -34 -104 -59 -164 -59c-93 0 -138 60 -138 152v207l-48 -15c-1 0 -2 -1 -8 -1c-14 0 -24 12 -24 26c0 17 10 26 26 31c22 7 45 16 67 24c24 9 38 13 40 13
c19 0 27 -14 27 -36v-218c0 -72 9 -121 84 -121c46 0 91 21 130 49v247l-36 -11c-5 -1 -17 -4 -21 -4c-15 0 -24 11 -24 26c0 18 12 27 29 31l67 24c23 9 27 13 39 13z" />
    <glyph glyph-name="udieresis" unicode="&#xfc;" 
d="M159 629c31 0 55 -24 55 -55s-24 -55 -55 -55s-55 24 -55 55s24 55 55 55zM398 629c32 0 56 -24 56 -55s-24 -55 -56 -55c-31 0 -54 24 -54 55s23 55 54 55zM440 434c16 0 21 -19 21 -36v-331l55 6h6c12 0 26 -6 26 -22c0 -18 -14 -25 -32 -30l-63 -14
c-21 -5 -32 -7 -32 -7c-19 0 -27 11 -27 32v24c-55 -34 -104 -59 -164 -59c-93 0 -138 60 -138 152v207l-48 -15c-1 0 -2 -1 -8 -1c-14 0 -24 12 -24 26c0 17 10 26 26 31c22 7 45 16 67 24c24 9 38 13 40 13c19 0 27 -14 27 -36v-218c0 -72 9 -121 84 -121
c46 0 91 21 130 49v247l-36 -11c-5 -1 -17 -4 -21 -4c-15 0 -24 11 -24 26c0 18 12 27 29 31l67 24c23 9 27 13 39 13z" />
    <glyph glyph-name="ugrave" unicode="&#xf9;" 
d="M193 656c31 0 56 -19 83 -38l123 -90c5 -3 11 -6 11 -14c0 -9 -6 -14 -16 -14c-9 0 -29 7 -37 11l-157 60c-19 6 -53 20 -53 46c0 23 20 39 46 39zM440 434c16 0 21 -19 21 -36v-331l55 6h6c12 0 26 -6 26 -22c0 -18 -14 -25 -32 -30l-63 -14c-21 -5 -32 -7 -32 -7
c-19 0 -27 11 -27 32v24c-55 -34 -104 -59 -164 -59c-93 0 -138 60 -138 152v207l-48 -15c-1 0 -2 -1 -8 -1c-14 0 -24 12 -24 26c0 17 10 26 26 31c22 7 45 16 67 24c24 9 38 13 40 13c19 0 27 -14 27 -36v-218c0 -72 9 -121 84 -121c46 0 91 21 130 49v247l-36 -11
c-5 -1 -17 -4 -21 -4c-15 0 -24 11 -24 26c0 18 12 27 29 31l67 24c23 9 27 13 39 13z" />
    <glyph glyph-name="v" unicode="v" horiz-adv-x="556" 
d="M513 434c19 0 34 -9 34 -30c0 -22 -13 -31 -34 -31h-31l-112 -323c-14 -39 -49 -66 -70 -66c-24 0 -58 37 -70 66l-139 323h-52c-20 0 -30 11 -30 31c0 16 17 30 32 30h162c18 0 35 -10 35 -30s-14 -31 -33 -31h-28c21 -63 42 -120 64 -172c21 -52 41 -94 60 -126
c22 48 40 96 59 146c16 49 32 100 45 152h-60c-20 0 -35 10 -35 31s18 30 38 30h165z" />
    <glyph glyph-name="w" unicode="w" horiz-adv-x="625" 
d="M580 434c22 0 36 -8 36 -30c0 -21 -10 -31 -31 -31h-12l-88 -322c-9 -32 -28 -69 -61 -69c-31 0 -48 28 -56 59l-50 168l-57 -185c-8 -23 -26 -42 -50 -42c-34 0 -50 32 -60 67l-95 324h-17c-19 0 -30 9 -30 29c0 24 18 32 41 32h175c23 0 36 -6 36 -29
c0 -24 -14 -32 -38 -32h-87l82 -310l66 207c6 16 16 40 38 40c16 0 28 -14 36 -39c1 -1 1 -1 63 -208l78 310h-85c-22 0 -33 7 -33 31c0 21 15 30 35 30h164z" />
    <glyph glyph-name="wacute" unicode="&#x1e83;" horiz-adv-x="625" 
d="M398 656c26 0 46 -16 46 -39c0 -26 -34 -40 -52 -46l-158 -60c-8 -4 -28 -11 -37 -11c-10 0 -16 5 -16 14c0 8 6 11 11 14l123 90c27 19 52 38 83 38zM580 434c22 0 36 -8 36 -30c0 -21 -10 -31 -31 -31h-12l-88 -322c-9 -32 -28 -69 -61 -69c-31 0 -48 28 -56 59
l-50 168l-57 -185c-8 -23 -26 -42 -50 -42c-34 0 -50 32 -60 67l-95 324h-17c-19 0 -30 9 -30 29c0 24 18 32 41 32h175c23 0 36 -6 36 -29c0 -24 -14 -32 -38 -32h-87l82 -310l66 207c6 16 16 40 38 40c16 0 28 -14 36 -39c1 -1 1 -1 63 -208l78 310h-85
c-22 0 -33 7 -33 31c0 21 15 30 35 30h164z" />
    <glyph glyph-name="wcircumflex" unicode="&#x175;" horiz-adv-x="625" 
d="M337 645c17 0 28 -10 41 -22c4 -4 96 -104 96 -112s-9 -15 -18 -15c-13 0 -25 7 -36 15l-80 54c-7 6 -15 9 -27 9c-10 0 -19 -2 -28 -9l-80 -54c-10 -7 -21 -15 -34 -15c-8 0 -19 5 -19 15s77 93 96 112c10 10 23 22 40 22h49zM580 434c22 0 36 -8 36 -30
c0 -21 -10 -31 -31 -31h-12l-88 -322c-9 -32 -28 -69 -61 -69c-31 0 -48 28 -56 59l-50 168l-57 -185c-8 -23 -26 -42 -50 -42c-34 0 -50 32 -60 67l-95 324h-17c-19 0 -30 9 -30 29c0 24 18 32 41 32h175c23 0 36 -6 36 -29c0 -24 -14 -32 -38 -32h-87l82 -310l66 207
c6 16 16 40 38 40c16 0 28 -14 36 -39c1 -1 1 -1 63 -208l78 310h-85c-22 0 -33 7 -33 31c0 21 15 30 35 30h164z" />
    <glyph glyph-name="wdieresis" unicode="&#x1e85;" horiz-adv-x="625" 
d="M193 629c31 0 55 -24 55 -55s-24 -55 -55 -55s-55 24 -55 55s24 55 55 55zM432 629c32 0 56 -24 56 -55s-24 -55 -56 -55c-31 0 -54 24 -54 55s23 55 54 55zM580 434c22 0 36 -8 36 -30c0 -21 -10 -31 -31 -31h-12l-88 -322c-9 -32 -28 -69 -61 -69c-31 0 -48 28 -56 59
l-50 168l-57 -185c-8 -23 -26 -42 -50 -42c-34 0 -50 32 -60 67l-95 324h-17c-19 0 -30 9 -30 29c0 24 18 32 41 32h175c23 0 36 -6 36 -29c0 -24 -14 -32 -38 -32h-87l82 -310l66 207c6 16 16 40 38 40c16 0 28 -14 36 -39c1 -1 1 -1 63 -208l78 310h-85
c-22 0 -33 7 -33 31c0 21 15 30 35 30h164z" />
    <glyph glyph-name="wgrave" unicode="&#x1e81;" horiz-adv-x="625" 
d="M227 656c31 0 56 -19 83 -38l123 -90c5 -3 11 -6 11 -14c0 -9 -6 -14 -16 -14c-9 0 -29 7 -37 11l-157 60c-19 6 -53 20 -53 46c0 23 20 39 46 39zM580 434c22 0 36 -8 36 -30c0 -21 -10 -31 -31 -31h-12l-88 -322c-9 -32 -28 -69 -61 -69c-31 0 -48 28 -56 59l-50 168
l-57 -185c-8 -23 -26 -42 -50 -42c-34 0 -50 32 -60 67l-95 324h-17c-19 0 -30 9 -30 29c0 24 18 32 41 32h175c23 0 36 -6 36 -29c0 -24 -14 -32 -38 -32h-87l82 -310l66 207c6 16 16 40 38 40c16 0 28 -14 36 -39c1 -1 1 -1 63 -208l78 310h-85c-22 0 -33 7 -33 31
c0 21 15 30 35 30h164z" />
    <glyph glyph-name="x" unicode="x" horiz-adv-x="576" 
d="M483 434c21 0 36 -8 36 -30c0 -23 -16 -32 -37 -32c-24 0 -46 -15 -71 -45l-87 -102l120 -127c20 -23 42 -35 70 -37c25 -2 43 -5 43 -30c0 -20 -13 -31 -33 -31h-157c-23 0 -40 6 -40 31c0 21 15 30 35 30h22l-108 113l-102 -113h42c17 0 32 -12 32 -30
c0 -23 -13 -31 -37 -31h-148c-24 0 -36 6 -36 31c0 22 17 29 37 32c24 2 43 16 60 36c0 0 4 4 109 122l-99 106c-19 23 -35 37 -65 43c-33 4 -50 15 -50 34c0 22 15 30 37 30h155c21 0 37 -8 37 -30c0 -21 -13 -31 -34 -31h-26l93 -101l83 101h-30c-21 0 -35 9 -35 31
c0 20 15 30 34 30h150z" />
    <glyph glyph-name="y" unicode="y" horiz-adv-x="535" 
d="M492 434c21 0 34 -9 34 -30c0 -22 -11 -31 -32 -31h-18l-203 -431c-31 -66 -72 -148 -160 -148c-36 0 -72 23 -72 61c0 23 20 47 47 47c22 0 35 -30 57 -30c16 0 34 20 54 61l55 116l-170 324h-28c-18 0 -32 12 -32 31c0 22 16 30 37 30h150c20 0 33 -10 33 -30
c0 -23 -12 -31 -34 -31h-42l126 -242l106 242h-66c-22 0 -34 8 -34 31c0 19 16 30 34 30h158z" />
    <glyph glyph-name="yacute" unicode="&#xfd;" horiz-adv-x="535" 
d="M353 656c26 0 46 -16 46 -39c0 -26 -34 -40 -52 -46l-158 -60c-8 -4 -28 -11 -37 -11c-10 0 -16 5 -16 14c0 8 6 11 11 14l123 90c27 19 52 38 83 38zM492 434c21 0 34 -9 34 -30c0 -22 -11 -31 -32 -31h-18l-203 -431c-31 -66 -72 -148 -160 -148c-36 0 -72 23 -72 61
c0 23 20 47 47 47c22 0 35 -30 57 -30c16 0 34 20 54 61l55 116l-170 324h-28c-18 0 -32 12 -32 31c0 22 16 30 37 30h150c20 0 33 -10 33 -30c0 -23 -12 -31 -34 -31h-42l126 -242l106 242h-66c-22 0 -34 8 -34 31c0 19 16 30 34 30h158z" />
    <glyph glyph-name="ycircumflex" unicode="&#x177;" horiz-adv-x="535" 
d="M292 645c17 0 28 -10 41 -22c4 -4 96 -104 96 -112s-9 -15 -18 -15c-13 0 -25 7 -36 15l-80 54c-7 6 -15 9 -27 9c-10 0 -19 -2 -28 -9l-80 -54c-10 -7 -21 -15 -34 -15c-8 0 -19 5 -19 15s77 93 96 112c10 10 23 22 40 22h49zM492 434c21 0 34 -9 34 -30
c0 -22 -11 -31 -32 -31h-18l-203 -431c-31 -66 -72 -148 -160 -148c-36 0 -72 23 -72 61c0 23 20 47 47 47c22 0 35 -30 57 -30c16 0 34 20 54 61l55 116l-170 324h-28c-18 0 -32 12 -32 31c0 22 16 30 37 30h150c20 0 33 -10 33 -30c0 -23 -12 -31 -34 -31h-42l126 -242
l106 242h-66c-22 0 -34 8 -34 31c0 19 16 30 34 30h158z" />
    <glyph glyph-name="ydieresis" unicode="&#xff;" horiz-adv-x="535" 
d="M148 629c31 0 55 -24 55 -55s-24 -55 -55 -55s-55 24 -55 55s24 55 55 55zM387 629c32 0 56 -24 56 -55s-24 -55 -56 -55c-31 0 -54 24 -54 55s23 55 54 55zM492 434c21 0 34 -9 34 -30c0 -22 -11 -31 -32 -31h-18l-203 -431c-31 -66 -72 -148 -160 -148
c-36 0 -72 23 -72 61c0 23 20 47 47 47c22 0 35 -30 57 -30c16 0 34 20 54 61l55 116l-170 324h-28c-18 0 -32 12 -32 31c0 22 16 30 37 30h150c20 0 33 -10 33 -30c0 -23 -12 -31 -34 -31h-42l126 -242l106 242h-66c-22 0 -34 8 -34 31c0 19 16 30 34 30h158z" />
    <glyph glyph-name="ygrave" unicode="&#x1ef3;" horiz-adv-x="535" 
d="M182 656c31 0 56 -19 83 -38l123 -90c5 -3 11 -6 11 -14c0 -9 -6 -14 -16 -14c-9 0 -29 7 -37 11l-157 60c-19 6 -53 20 -53 46c0 23 20 39 46 39zM492 434c21 0 34 -9 34 -30c0 -22 -11 -31 -32 -31h-18l-203 -431c-31 -66 -72 -148 -160 -148c-36 0 -72 23 -72 61
c0 23 20 47 47 47c22 0 35 -30 57 -30c16 0 34 20 54 61l55 116l-170 324h-28c-18 0 -32 12 -32 31c0 22 16 30 37 30h150c20 0 33 -10 33 -30c0 -23 -12 -31 -34 -31h-42l126 -242l106 242h-66c-22 0 -34 8 -34 31c0 19 16 30 34 30h158z" />
    <glyph glyph-name="z" unicode="z" horiz-adv-x="492" 
d="M398 434c21 0 41 -17 41 -40c0 -14 -7 -27 -23 -42l-273 -293h152c27 0 68 3 78 34l9 28c6 24 17 38 36 38c20 0 26 -21 23 -39l-19 -96c-5 -18 -19 -24 -40 -24h-291c-16 0 -32 0 -32 24v39c0 15 6 21 26 41l260 270h-154c-39 0 -62 -20 -68 -59c-4 -30 -17 -40 -32 -40
c-17 0 -27 17 -26 34l9 94c2 19 21 31 41 31h283z" />
    <glyph glyph-name="ordfeminine" unicode="&#xaa;" 
d="M310 627c81 0 112 -38 112 -120v-184l30 10c15 6 22 6 28 6c10 0 15 -6 15 -22c0 -11 -12 -22 -40 -28c0 0 -55 -18 -63 -18c-20 0 -28 24 -30 43c-41 -31 -91 -50 -143 -50c-59 0 -121 28 -121 91c0 39 21 69 65 90c43 21 108 32 193 36v33c0 50 -13 70 -63 70
c-28 0 -49 -5 -63 -12c-16 -8 -22 -19 -22 -34c0 -26 -13 -37 -39 -37s-32 22 -32 46c0 27 12 37 35 49c39 18 94 31 138 31zM356 432c-64 -1 -112 -8 -142 -19c-30 -12 -46 -29 -46 -52c0 -34 33 -49 65 -49c41 0 96 19 123 50v70z" />
    <glyph glyph-name="ordmasculine" unicode="&#xba;" 
d="M286 627c111 0 186 -72 186 -183c0 -107 -88 -184 -193 -184c-110 0 -195 71 -194 184c0 111 94 183 201 183zM279 575c-75 0 -124 -46 -122 -121c0 -78 46 -140 125 -140c74 0 119 46 119 120s-45 141 -122 141z" />
    <glyph glyph-name="uni03BC" unicode="&#x3bc;" 
d="M464 418c22 0 33 -10 29 -33l-69 -323h29c17 0 27 -9 27 -26c0 -26 -16 -36 -42 -36h-71c-13 0 -25 4 -21 22l9 32c-43 -42 -93 -64 -152 -64c-31 0 -52 11 -73 32l-30 -156c-6 -29 -9 -51 -36 -51c-34 0 -36 22 -31 51l101 489h-36c-16 0 -27 10 -27 27
c0 24 14 36 40 36h79c14 0 25 -3 21 -22l-52 -241c-14 -61 0 -101 65 -101c71 0 143 51 158 121l42 211c6 28 19 32 40 32z" />
    <glyph glyph-name="uni05D0" unicode="&#x5d0;" horiz-adv-x="544" 
d="M109 552c8 0 17 -14 36 -43c0 0 44 -72 76 -117c28 -40 80 -103 80 -103c4 -6 9 -10 14 -4c0 0 46 40 93 111c6 11 14 26 14 39c0 12 -11 19 -22 23l-27 10c-6 2 -13 6 -11 18l11 49c5 20 19 22 37 16l50 -17c32 -11 43 -31 43 -69c0 -34 -23 -69 -49 -104
c-23 -32 -109 -120 -109 -120s61 -67 86 -87c23 -18 54 -42 71 -56c14 -10 16 -15 7 -28l-46 -67c-12 -18 -31 3 -42 16c-61 68 -185 221 -235 287c-3 4 -8 11 -10 11c-3 0 -5 -3 -7 -6c0 0 -37 -53 -37 -80c0 -62 28 -148 35 -181c2 -9 7 -22 -7 -29l-61 -30
c-11 -5 -31 -7 -34 25l-18 160c-3 33 2 76 23 101l70 86l-72 82c-12 12 -16 20 -8 35l31 56c6 10 9 16 18 16z" />
    <glyph glyph-name="uni05D1" unicode="&#x5d1;" horiz-adv-x="532" 
d="M139 582c16 0 19 -23 22 -37c4 -14 6 -30 17 -30c0 0 49 2 75 2c178 0 217 -97 207 -268c-5 -76 -32 -156 -32 -156h50c17 0 25 -8 19 -28l-13 -46c-4 -15 -7 -19 -25 -19h-411c-9 0 -17 4 -14 19l7 51c2 13 2 23 23 23h293c4 0 7 2 9 11c0 0 17 86 17 160
c0 125 -30 168 -160 168c-41 0 -75 -2 -115 -8c-17 -1 -29 11 -23 28l31 97c4 14 10 33 23 33z" />
    <glyph glyph-name="uni05D2" unicode="&#x5d2;" horiz-adv-x="415" 
d="M160 582c17 0 20 -30 23 -47c3 -18 17 -19 31 -20c38 -4 58 -18 70 -31c17 -20 24 -51 36 -107c14 -74 48 -225 59 -267c7 -31 24 -77 24 -77c3 -13 -2 -33 -17 -33h-45c-10 0 -20 10 -23 19c-5 13 -13 50 -20 91c-9 52 -17 83 -17 83s-9 -2 -19 -18l-105 -158
c-8 -13 -31 -17 -47 -19l-79 -11c-15 -3 -22 4 -19 19l14 58c3 17 8 19 20 21l49 10c50 10 76 45 93 64c20 24 67 83 67 83c7 9 12 22 12 22s-20 90 -40 130c-17 31 -44 38 -67 38c-21 0 -43 -4 -43 -4c-20 -1 -21 18 -16 32l31 83c4 10 13 39 28 39z" />
    <glyph glyph-name="uni05D3" unicode="&#x5d3;" horiz-adv-x="499" 
d="M73 581c14 0 21 -20 21 -34c0 -15 3 -37 28 -35c41 4 101 5 161 5s146 -6 175 -13c15 -3 22 -8 18 -21l-14 -48c-5 -17 -16 -17 -28 -15l-34 3v-402c0 -12 -11 -21 -21 -21h-38c-13 0 -22 9 -22 21v390c0 5 -1 17 -12 17c-24 2 -56 4 -102 4s-150 -9 -171 -9
s-30 10 -21 34l38 96c8 19 11 28 22 28z" />
    <glyph glyph-name="uni05D4" unicode="&#x5d4;" horiz-adv-x="550" 
d="M137 582c13 0 17 -21 19 -35c3 -23 8 -41 26 -38c31 5 55 8 87 8c149 0 200 -34 204 -210l5 -286c0 -12 -9 -21 -21 -21h-39c-12 0 -21 9 -21 21l-5 248c-3 118 -21 163 -119 163c-43 0 -152 -11 -174 -11c-21 0 -31 14 -21 40l33 87c8 19 12 34 26 34zM154 293
c11 0 20 -9 18 -21l-17 -251c-1 -12 -11 -21 -22 -21h-40c-13 0 -22 9 -20 21l18 251c2 12 12 21 24 21h39z" />
    <glyph glyph-name="uni05D5" unicode="&#x5d5;" horiz-adv-x="351" 
d="M92 582c19 0 17 -25 21 -43c4 -16 20 -22 35 -25l50 -10c62 -12 81 -51 81 -124v-359c0 -12 -10 -21 -21 -21h-39c-13 0 -21 9 -21 21v318c0 68 -23 85 -89 93l-60 6c-15 2 -18 15 -13 27l24 64c5 16 13 53 32 53z" />
    <glyph glyph-name="uni05D6" unicode="&#x5d6;" horiz-adv-x="398" 
d="M80 582c12 0 15 -25 19 -41c4 -20 13 -22 41 -24l122 -8c62 -4 73 15 84 15c13 0 14 -8 14 -23c0 -17 -13 -48 -17 -59c-6 -12 -10 -24 -30 -22l-70 5c-7 0 -14 -1 -15 -10c0 0 -19 -98 -19 -173c0 -93 34 -135 54 -171c8 -10 7 -24 -1 -31l-59 -47c-4 -3 -8 -4 -14 -4
s-11 3 -16 11c-16 27 -42 90 -42 148c0 48 4 81 17 161c6 43 24 121 24 121c-41 3 -116 7 -116 7c-25 1 -25 19 -19 38l15 58c6 20 9 49 28 49z" />
    <glyph glyph-name="uni05D7" unicode="&#x5d7;" horiz-adv-x="557" 
d="M130 581c12 0 23 -9 23 -22v-53c31 5 67 11 154 11c100 0 178 -33 178 -142v-354c0 -12 -9 -21 -21 -21h-39c-12 0 -21 9 -21 21v314c0 91 -38 98 -129 98c-49 0 -91 -7 -122 -13v-399c0 -12 -10 -21 -21 -21h-37c-12 0 -23 9 -23 21v538c0 13 10 22 21 22h37z" />
    <glyph glyph-name="uni05D8" unicode="&#x5d8;" horiz-adv-x="529" 
d="M82 554l65 -35c17 -8 31 -18 23 -59c0 0 -24 -108 -30 -164c-11 -122 31 -212 127 -212c103 0 155 75 155 178c0 120 -48 170 -93 170c-40 0 -52 -27 -61 -42c-4 -8 -7 -9 -10 -8l-14 4c-4 1 -3 4 -1 8l45 127c2 7 7 14 16 14c13 0 46 -7 64 -11c47 -13 126 -61 126 -262
c0 -193 -113 -273 -227 -273c-90 0 -194 68 -194 215c0 108 30 208 30 208c1 4 -1 5 -4 6c0 0 -52 23 -61 32c-7 6 -5 10 0 27l21 62c5 15 11 20 23 15z" />
    <glyph glyph-name="uni05D9" unicode="&#x5d9;" horiz-adv-x="351" 
d="M81 582c19 0 17 -25 21 -43c5 -16 20 -23 36 -25c73 -11 174 -17 174 -117c0 -35 -25 -84 -50 -131c-28 -50 -46 -80 -71 -121c-7 -12 -19 -17 -29 -8l-39 32c-12 10 -9 20 0 29c23 22 42 38 65 72c14 21 26 43 32 57c9 27 8 58 -9 74c-18 16 -49 21 -84 26
c-36 5 -64 7 -88 11c-15 3 -18 15 -13 27l27 72c11 30 12 45 28 45z" />
    <glyph glyph-name="uni05DA" unicode="&#x5da;" horiz-adv-x="478" 
d="M78 582c17 -3 13 -27 15 -40c0 -13 8 -27 23 -27c0 0 73 2 112 2c38 0 141 -5 168 -14c12 -5 20 -8 15 -21c-4 -12 -13 -35 -12 -71v-510c0 -12 -9 -21 -21 -21h-40c-12 0 -21 9 -21 21v506c0 6 7 13 -12 18c-26 7 -50 7 -75 7c-89 0 -181 -12 -195 -12
c-21 0 -30 8 -21 34l36 100c7 19 13 29 28 28z" />
    <glyph glyph-name="uni05DB" unicode="&#x5db;" horiz-adv-x="523" 
d="M119 582c14 0 17 -21 18 -35c0 -12 6 -34 26 -34c21 0 57 4 105 4c179 0 209 -87 209 -255c0 -193 -114 -262 -229 -262h-208c-19 0 -23 10 -18 28l14 43c4 16 10 22 24 22h168c124 0 173 59 173 162c0 139 -48 176 -172 176c-31 0 -109 -7 -137 -11
c-21 -4 -39 12 -30 38l34 96c6 19 10 28 23 28z" />
    <glyph glyph-name="uni05DC" unicode="&#x5dc;" horiz-adv-x="459" 
d="M154 748c28 0 34 -17 34 -30c0 -16 -11 -73 -39 -120l-41 -69c-11 -20 -1 -28 20 -24c24 4 61 12 135 12c112 0 173 -20 173 -160c0 -46 -25 -149 -144 -268c-62 -61 -150 -100 -172 -100c-18 0 -31 4 -28 20l13 55c2 11 8 15 20 23c29 15 109 48 153 89
c73 68 79 142 79 181c0 29 -16 75 -118 75c-117 0 -187 -19 -203 -21s-30 14 -22 34c7 18 41 88 53 117c13 29 21 48 21 82c0 23 -12 53 -22 74c-6 12 -4 30 17 30h71z" />
    <glyph glyph-name="uni05DD" unicode="&#x5dd;" 
d="M115 582c19 0 17 -26 20 -43c4 -17 14 -30 36 -30c20 0 95 8 155 8c131 0 179 -56 179 -187v-311c0 -12 -12 -19 -23 -19h-330c-30 0 -41 8 -50 39c-12 39 -13 108 -13 176c0 70 18 197 18 197c1 14 -8 18 -17 18l-11 -2c-20 0 -32 8 -23 30l31 79c7 20 10 45 28 45z
M284 432c-36 0 -114 -4 -114 -4s-7 -123 -7 -196c0 -72 16 -139 72 -139h161c18 0 28 7 28 25v211c0 88 -64 103 -140 103z" />
    <glyph glyph-name="uni05DE" unicode="&#x5de;" 
d="M72 554c10 0 41 -7 71 -42c12 -15 20 -37 24 -54c4 -23 7 -54 7 -54c2 -13 10 -8 19 0c0 0 41 44 75 71c33 26 76 42 104 42c109 0 144 -285 144 -356c0 -39 0 -113 -23 -140c-19 -22 -48 -21 -69 -21h-183c-11 0 -13 8 -10 23l9 50c3 21 14 20 22 20h176s5 15 5 28
c0 73 -10 304 -128 304c-53 0 -120 -79 -141 -191l-40 -213c-2 -12 -9 -21 -21 -21h-44c-10 0 -17 9 -15 21l63 319c4 22 0 50 -12 62c-12 14 -55 28 -55 28c-9 4 -9 8 -7 24l15 85c2 10 4 15 14 15z" />
    <glyph glyph-name="uni05DF" unicode="&#x5df;" horiz-adv-x="340" 
d="M68 582c19 0 16 -25 21 -43c4 -16 11 -23 25 -25l67 -9c68 -10 87 -63 87 -125v-479c0 -12 -10 -21 -22 -21h-38c-13 0 -22 9 -22 21v441c0 32 -8 69 -45 74l-114 16c-15 2 -18 13 -14 26l33 93c4 14 7 31 22 31z" />
    <glyph glyph-name="uni05E0" unicode="&#x5e0;" horiz-adv-x="404" 
d="M151 582c18 0 16 -25 21 -43c4 -16 11 -23 25 -25l48 -10c68 -11 87 -63 88 -125l10 -357c0 -12 -10 -22 -21 -22h-297c-10 0 -16 0 -12 16l17 61c3 12 10 16 18 16h203c7 0 9 2 9 9l-8 241c-1 32 -10 69 -46 74l-96 16c-15 2 -18 13 -14 27l32 91c6 14 8 31 23 31z" />
    <glyph glyph-name="uni05E1" unicode="&#x5e1;" horiz-adv-x="518" 
d="M107 582c13 0 16 -21 16 -35c0 -12 6 -34 27 -34c20 0 55 4 104 4c168 0 219 -82 221 -254c0 -172 -91 -274 -223 -274c-148 0 -198 126 -198 235c0 82 37 168 50 191l-34 5c-18 2 -30 12 -21 38l32 96c7 19 10 28 26 28zM253 424c-38 0 -58 -4 -58 -4
c-23 -4 -35 -26 -38 -33c-4 -6 -34 -55 -34 -144c0 -96 60 -159 137 -159c86 0 143 76 143 165c0 124 -82 175 -150 175z" />
    <glyph glyph-name="uni05E2" unicode="&#x5e2;" horiz-adv-x="508" 
d="M79 556c0 0 52 -23 71 -34c15 -9 36 -21 45 -61c0 0 26 -108 35 -150c25 -121 37 -220 37 -220s33 24 46 40c54 61 71 147 71 250c0 52 -52 69 -68 78c-9 5 -14 12 -9 28l20 58c4 12 18 16 29 10l82 -45c37 -21 36 -70 36 -93c0 -26 -23 -235 -144 -355
c-106 -105 -263 -160 -301 -160c-16 0 -30 8 -27 24l18 63c3 11 12 21 28 21c51 0 114 23 153 48c5 3 12 9 12 19c0 36 -18 102 -32 158c-19 69 -40 129 -42 135c-6 15 -22 40 -47 54l-45 25c-15 8 -12 22 -8 35l16 56c4 15 10 22 24 16z" />
    <glyph glyph-name="uni05E3" unicode="&#x5e3;" horiz-adv-x="505" 
d="M107 582c14 0 13 -26 28 -34c19 -9 40 -14 53 -17l123 -37c106 -32 122 -118 122 -217v-376c0 -12 -9 -21 -21 -21h-39c-12 0 -21 9 -21 21v359c0 89 -18 131 -63 144l-150 43l-15 -155c-3 -40 7 -51 27 -54l60 -9c12 -3 17 -18 13 -29l-11 -43c-4 -16 -4 -26 -21 -26
c-21 0 -89 16 -117 37c-19 14 -34 52 -28 92l42 291c3 21 6 31 18 31z" />
    <glyph glyph-name="uni05E4" unicode="&#x5e4;" horiz-adv-x="507" 
d="M174 549l216 -63c31 -9 38 -39 40 -56c0 0 44 -272 44 -298c0 -27 -39 -96 -68 -103c-28 -7 -138 -29 -241 -29h-116c-11 0 -17 1 -15 19l7 56c1 12 8 18 21 18h130c125 0 184 26 199 31c8 3 13 6 10 19l-31 170c-10 58 -23 89 -54 98l-120 34c-20 6 -32 -4 -36 -15
l-21 -83c-10 -40 -1 -47 18 -56c21 -10 57 -18 57 -18c12 -4 12 -18 8 -28l-17 -35c-5 -9 -15 -17 -31 -14c-27 6 -68 28 -96 49c-17 15 -19 48 -9 82l56 200c8 27 33 27 49 22z" />
    <glyph glyph-name="uni05E5" unicode="&#x5e5;" horiz-adv-x="501" 
d="M63 553l109 -36c8 -2 13 -8 10 -22l-3 -12c-5 -19 -3 -39 -1 -51l28 -238c26 21 73 48 108 96c29 39 53 86 53 112c0 24 -11 39 -24 44l-27 12c-16 8 -12 19 -6 40l10 36c6 22 21 24 43 13l74 -36c36 -18 35 -43 21 -81c-6 -20 -43 -98 -85 -149
c-50 -61 -97 -101 -147 -140c-7 -7 -10 -17 -8 -27l32 -213c2 -12 -4 -21 -20 -21h-41c-11 0 -20 9 -21 21c0 0 -17 173 -34 283c-11 78 -32 199 -32 199c-3 21 -10 47 -26 53l-40 16c-15 6 -16 9 -7 41l12 44c3 11 11 19 22 16z" />
    <glyph glyph-name="uni05E6" unicode="&#x5e6;" horiz-adv-x="531" 
d="M395 551c19 -7 64 -30 85 -49c14 -11 17 -25 18 -39c1 -59 -48 -142 -92 -184l-61 -59c6 -12 62 -92 76 -108c9 -11 26 -18 29 -22c5 -6 4 -8 0 -20l-11 -49c-3 -14 -9 -21 -25 -21h-338c-14 0 -32 -1 -29 18l9 52c3 18 5 23 23 23h259c2 0 8 0 5 5l-205 292
c-9 12 -16 21 -23 27c-17 17 -42 26 -42 26c-12 8 -16 9 -7 41l15 53c3 11 4 17 16 14l70 -20c9 -3 17 -12 21 -29c5 -19 8 -32 15 -48c14 -34 35 -72 47 -93c10 -18 63 -96 63 -96c2 -3 5 -2 8 0l48 46c29 26 39 55 39 81c0 30 -12 46 -27 53l-26 13c-16 8 -12 24 -8 37
l16 48c3 11 14 14 32 8z" />
    <glyph glyph-name="uni05E7" unicode="&#x5e7;" 
d="M125 582c10 0 13 -21 14 -35c0 -12 8 -38 28 -38c19 0 75 8 123 8c92 0 206 -34 206 -143c0 -84 -30 -176 -117 -291c-44 -56 -65 -84 -82 -84c-12 0 -16 14 -21 27l-20 52c-5 13 3 15 20 27c76 52 144 116 144 214c0 73 -53 113 -155 113c-104 0 -144 -17 -171 -17
c-21 0 -38 12 -30 38l34 101c6 19 16 28 27 28zM150 309c11 0 18 -9 18 -20l10 -388c0 -12 -8 -21 -20 -21h-39c-11 0 -22 9 -22 21l-10 386c0 12 8 22 21 22h42z" />
    <glyph glyph-name="uni05E8" unicode="&#x5e8;" horiz-adv-x="498" 
d="M70 582c18 0 18 -25 21 -43c2 -16 9 -25 25 -25c10 0 51 3 106 3c128 0 206 -29 206 -175v-321c0 -12 -9 -21 -22 -21h-38c-10 0 -21 9 -21 21v265c0 115 -37 146 -144 146c-58 0 -116 -4 -175 -8c-20 -1 -21 17 -17 30l35 95c4 13 5 33 24 33z" />
    <glyph glyph-name="uni05E9" unicode="&#x5e9;" horiz-adv-x="594" 
d="M463 558c17 0 96 -50 99 -69c1 -7 2 -13 2 -20c1 -103 -31 -215 -63 -293c-19 -47 -82 -187 -217 -187c-138 0 -194 112 -202 191c-19 187 -2 239 -23 254c-10 7 -31 17 -28 37l10 64c3 18 12 23 22 23c19 0 55 -22 74 -34c21 -13 20 -45 14 -70
c-11 -46 -21 -109 -21 -165c0 -45 5 -60 7 -71c2 -7 3 -9 7 -6c31 19 74 49 98 77c25 30 43 63 43 105c-1 37 -24 45 -40 54c-15 9 -12 28 -7 45l11 38c3 10 8 27 20 27c17 0 65 -30 76 -42c13 -14 18 -27 19 -44c1 -65 -18 -143 -64 -196c-29 -33 -92 -85 -141 -118
c26 -47 79 -75 148 -75c102 0 150 112 168 208c7 39 10 78 9 113c-1 19 -6 40 -25 47l-18 7c-7 3 -11 8 -11 18c-1 11 11 48 16 62c2 9 10 20 17 20z" />
    <glyph glyph-name="uni05EA" unicode="&#x5ea;" 
d="M127 582c18 0 17 -25 21 -43c2 -16 9 -28 24 -28c42 0 83 6 125 6c123 0 189 -22 189 -163v-333c0 -12 -11 -21 -22 -21h-38c-11 0 -21 9 -21 21v275c0 98 -7 136 -112 136c-28 0 -59 -2 -83 -6c-17 -36 -37 -101 -37 -155c0 -45 61 -177 61 -177c4 -10 6 -17 0 -36
l-10 -37c-3 -12 -9 -21 -21 -21h-149c-11 0 -21 3 -17 18l14 59c3 12 11 16 19 16h61c7 0 12 0 10 9c0 0 -38 122 -38 171c0 38 35 116 55 153c0 0 -21 -1 -33 -1c-13 0 -28 3 -28 3c-15 2 -19 12 -14 35l18 78c8 32 10 41 26 41z" />
    <glyph glyph-name="uniFB2A" unicode="&#xfb2a;" horiz-adv-x="594" 
d="M494 688c24 0 44 -20 44 -44s-20 -44 -44 -44s-44 20 -44 44s20 44 44 44zM463 558c17 0 96 -50 99 -69c1 -7 2 -13 2 -20c1 -103 -31 -215 -63 -293c-19 -47 -82 -187 -217 -187c-138 0 -194 112 -202 191c-19 187 -2 239 -23 254c-10 7 -31 17 -28 37l10 64
c3 18 12 23 22 23c19 0 55 -22 74 -34c21 -13 20 -45 14 -70c-11 -46 -21 -109 -21 -165c0 -45 5 -60 7 -71c2 -7 3 -9 7 -6c31 19 74 49 98 77c25 30 43 63 43 105c-1 37 -24 45 -40 54c-15 9 -12 28 -7 45l11 38c3 10 8 27 20 27c17 0 65 -30 76 -42c13 -14 18 -27 19 -44
c1 -65 -18 -143 -64 -196c-29 -33 -92 -85 -141 -118c26 -47 79 -75 148 -75c102 0 150 112 168 208c7 39 10 78 9 113c-1 19 -6 40 -25 47l-18 7c-7 3 -11 8 -11 18c-1 11 11 48 16 62c2 9 10 20 17 20z" />
    <glyph glyph-name="uniFB2B" unicode="&#xfb2b;" horiz-adv-x="594" 
d="M104 688c24 0 44 -20 44 -44s-20 -44 -44 -44s-44 20 -44 44s20 44 44 44zM463 558c17 0 96 -50 99 -69c1 -7 2 -13 2 -20c1 -103 -31 -215 -63 -293c-19 -47 -82 -187 -217 -187c-138 0 -194 112 -202 191c-19 187 -2 239 -23 254c-10 7 -31 17 -28 37l10 64
c3 18 12 23 22 23c19 0 55 -22 74 -34c21 -13 20 -45 14 -70c-11 -46 -21 -109 -21 -165c0 -45 5 -60 7 -71c2 -7 3 -9 7 -6c31 19 74 49 98 77c25 30 43 63 43 105c-1 37 -24 45 -40 54c-15 9 -12 28 -7 45l11 38c3 10 8 27 20 27c17 0 65 -30 76 -42c13 -14 18 -27 19 -44
c1 -65 -18 -143 -64 -196c-29 -33 -92 -85 -141 -118c26 -47 79 -75 148 -75c102 0 150 112 168 208c7 39 10 78 9 113c-1 19 -6 40 -25 47l-18 7c-7 3 -11 8 -11 18c-1 11 11 48 16 62c2 9 10 20 17 20z" />
    <glyph glyph-name="uniFB2C" unicode="&#xfb2c;" horiz-adv-x="594" 
d="M494 688c24 0 44 -20 44 -44s-20 -44 -44 -44s-44 20 -44 44s20 44 44 44zM463 558c17 0 96 -50 99 -69c1 -7 2 -13 2 -20c1 -103 -31 -215 -63 -293c-19 -47 -82 -187 -217 -187c-138 0 -194 112 -202 191c-19 187 -2 239 -23 254c-10 7 -31 17 -28 37l10 64
c3 18 12 23 22 23c19 0 55 -22 74 -34c21 -13 20 -45 14 -70c-11 -46 -21 -109 -21 -165c0 -45 5 -60 7 -71c2 -7 3 -9 7 -6c31 19 74 49 98 77c25 30 43 63 43 105c-1 37 -24 45 -40 54c-15 9 -12 28 -7 45l11 38c3 10 8 27 20 27c17 0 65 -30 76 -42c13 -14 18 -27 19 -44
c1 -65 -18 -143 -64 -196c-29 -33 -92 -85 -141 -118c26 -47 79 -75 148 -75c102 0 150 112 168 208c7 39 10 78 9 113c-1 19 -6 40 -25 47l-18 7c-7 3 -11 8 -11 18c-1 11 11 48 16 62c2 9 10 20 17 20zM347 247c24 0 44 -20 44 -45c0 -24 -20 -44 -44 -44s-44 20 -44 44
c0 25 20 45 44 45z" />
    <glyph glyph-name="uniFB2D" unicode="&#xfb2d;" horiz-adv-x="594" 
d="M104 688c24 0 44 -20 44 -44s-20 -44 -44 -44s-44 20 -44 44s20 44 44 44zM463 558c17 0 96 -50 99 -69c1 -7 2 -13 2 -20c1 -103 -31 -215 -63 -293c-19 -47 -82 -187 -217 -187c-138 0 -194 112 -202 191c-19 187 -2 239 -23 254c-10 7 -31 17 -28 37l10 64
c3 18 12 23 22 23c19 0 55 -22 74 -34c21 -13 20 -45 14 -70c-11 -46 -21 -109 -21 -165c0 -45 5 -60 7 -71c2 -7 3 -9 7 -6c31 19 74 49 98 77c25 30 43 63 43 105c-1 37 -24 45 -40 54c-15 9 -12 28 -7 45l11 38c3 10 8 27 20 27c17 0 65 -30 76 -42c13 -14 18 -27 19 -44
c1 -65 -18 -143 -64 -196c-29 -33 -92 -85 -141 -118c26 -47 79 -75 148 -75c102 0 150 112 168 208c7 39 10 78 9 113c-1 19 -6 40 -25 47l-18 7c-7 3 -11 8 -11 18c-1 11 11 48 16 62c2 9 10 20 17 20zM347 247c24 0 44 -20 44 -45c0 -24 -20 -44 -44 -44s-44 20 -44 44
c0 25 20 45 44 45z" />
    <glyph glyph-name="uniFB2E" unicode="&#xfb2e;" horiz-adv-x="544" 
d="M109 552c8 0 17 -14 36 -43c0 0 44 -72 76 -117c28 -40 80 -103 80 -103c4 -6 9 -10 14 -4c0 0 46 40 93 111c6 11 14 26 14 39c0 12 -11 19 -22 23l-27 10c-6 2 -13 6 -11 18l11 49c5 20 19 22 37 16l50 -17c32 -11 43 -31 43 -69c0 -34 -23 -69 -49 -104
c-23 -32 -109 -120 -109 -120s61 -67 86 -87c23 -18 54 -42 71 -56c14 -10 16 -15 7 -28l-46 -67c-12 -18 -31 3 -42 16c-61 68 -185 221 -235 287c-3 4 -8 11 -10 11c-3 0 -5 -3 -7 -6c0 0 -37 -53 -37 -80c0 -62 28 -148 35 -181c2 -9 7 -22 -7 -29l-61 -30
c-11 -5 -31 -7 -34 25l-18 160c-3 33 2 76 23 101l70 86l-72 82c-12 12 -16 20 -8 35l31 56c6 10 9 16 18 16zM361 -95c12 0 15 -3 15 -16v-24c0 -13 -2 -16 -15 -16h-178c-13 0 -15 3 -15 16v24c0 13 2 16 15 16h178z" />
    <glyph glyph-name="uniFB2F" unicode="&#xfb2f;" horiz-adv-x="544" 
d="M109 552c8 0 17 -14 36 -43c0 0 44 -72 76 -117c28 -40 80 -103 80 -103c4 -6 9 -10 14 -4c0 0 46 40 93 111c6 11 14 26 14 39c0 12 -11 19 -22 23l-27 10c-6 2 -13 6 -11 18l11 49c5 20 19 22 37 16l50 -17c32 -11 43 -31 43 -69c0 -34 -23 -69 -49 -104
c-23 -32 -109 -120 -109 -120s61 -67 86 -87c23 -18 54 -42 71 -56c14 -10 16 -15 7 -28l-46 -67c-12 -18 -31 3 -42 16c-61 68 -185 221 -235 287c-3 4 -8 11 -10 11c-3 0 -5 -3 -7 -6c0 0 -37 -53 -37 -80c0 -62 28 -148 35 -181c2 -9 7 -22 -7 -29l-61 -30
c-11 -5 -31 -7 -34 25l-18 160c-3 33 2 76 23 101l70 86l-72 82c-12 12 -16 20 -8 35l31 56c6 10 9 16 18 16zM361 -95c12 0 15 -3 15 -16v-24c0 -13 -2 -16 -15 -16h-65l6 -43v-90c0 -11 -3 -13 -14 -13h-32c-12 0 -14 2 -14 13v90l6 43h-65c-13 0 -15 3 -15 16v24
c0 13 2 16 15 16h178z" />
    <glyph glyph-name="uniFB30" unicode="&#xfb30;" horiz-adv-x="544" 
d="M109 552c8 0 17 -14 36 -43c0 0 44 -72 76 -117c28 -40 80 -103 80 -103c4 -6 9 -10 14 -4c0 0 46 40 93 111c6 11 14 26 14 39c0 12 -11 19 -22 23l-27 10c-6 2 -13 6 -11 18l11 49c5 20 19 22 37 16l50 -17c32 -11 43 -31 43 -69c0 -34 -23 -69 -49 -104
c-23 -32 -109 -120 -109 -120s61 -67 86 -87c23 -18 54 -42 71 -56c14 -10 16 -15 7 -28l-46 -67c-12 -18 -31 3 -42 16c-61 68 -185 221 -235 287c-3 4 -8 11 -10 11c-3 0 -5 -3 -7 -6c0 0 -37 -53 -37 -80c0 -62 28 -148 35 -181c2 -9 7 -22 -7 -29l-61 -30
c-11 -5 -31 -7 -34 25l-18 160c-3 33 2 76 23 101l70 86l-72 82c-12 12 -16 20 -8 35l31 56c6 10 9 16 18 16zM221 181c24 0 44 -20 44 -45c0 -24 -20 -44 -44 -44s-44 20 -44 44c0 25 20 45 44 45z" />
    <glyph glyph-name="uniFB31" unicode="&#xfb31;" horiz-adv-x="532" 
d="M139 582c16 0 19 -23 22 -37c4 -14 6 -30 17 -30c0 0 49 2 75 2c178 0 217 -97 207 -268c-5 -76 -32 -156 -32 -156h50c17 0 25 -8 19 -28l-13 -46c-4 -15 -7 -19 -25 -19h-411c-9 0 -17 4 -14 19l7 51c2 13 2 23 23 23h293c4 0 7 2 9 11c0 0 17 86 17 160
c0 125 -30 168 -160 168c-41 0 -75 -2 -115 -8c-17 -1 -29 11 -23 28l31 97c4 14 10 33 23 33zM211 315c24 0 44 -20 44 -45c0 -24 -20 -44 -44 -44s-44 20 -44 44c0 25 20 45 44 45z" />
    <glyph glyph-name="uniFB32" unicode="&#xfb32;" horiz-adv-x="415" 
d="M160 582c17 0 20 -30 23 -47c3 -18 17 -19 31 -20c38 -4 58 -18 70 -31c17 -20 24 -51 36 -107c14 -74 48 -225 59 -267c7 -31 24 -77 24 -77c3 -13 -2 -33 -17 -33h-45c-10 0 -20 10 -23 19c-5 13 -13 50 -20 91c-9 52 -17 83 -17 83s-9 -2 -19 -18l-105 -158
c-8 -13 -31 -17 -47 -19l-79 -11c-15 -3 -22 4 -19 19l14 58c3 17 8 19 20 21l49 10c50 10 76 45 93 64c20 24 67 83 67 83c7 9 12 22 12 22s-20 90 -40 130c-17 31 -44 38 -67 38c-21 0 -43 -4 -43 -4c-20 -1 -21 18 -16 32l31 83c4 10 13 39 28 39zM139 315
c24 0 44 -20 44 -45c0 -24 -20 -44 -44 -44s-44 20 -44 44c0 25 20 45 44 45z" />
    <glyph glyph-name="uniFB33" unicode="&#xfb33;" horiz-adv-x="499" 
d="M73 581c14 0 21 -20 21 -34c0 -15 3 -37 28 -35c41 4 101 5 161 5s146 -6 175 -13c15 -3 22 -8 18 -21l-14 -48c-5 -17 -16 -17 -28 -15l-34 3v-402c0 -12 -11 -21 -21 -21h-38c-13 0 -22 9 -22 21v390c0 5 -1 17 -12 17c-24 2 -56 4 -102 4s-150 -9 -171 -9
s-30 10 -21 34l38 96c8 19 11 28 22 28zM177 315c24 0 44 -20 44 -45c0 -24 -20 -44 -44 -44s-44 20 -44 44c0 25 20 45 44 45z" />
    <glyph glyph-name="uniFB34" unicode="&#xfb34;" horiz-adv-x="550" 
d="M137 582c13 0 17 -21 19 -35c3 -23 8 -41 26 -38c31 5 55 8 87 8c149 0 200 -34 204 -210l5 -286c0 -12 -9 -21 -21 -21h-39c-12 0 -21 9 -21 21l-5 248c-3 118 -21 163 -119 163c-43 0 -152 -11 -174 -11c-21 0 -31 14 -21 40l33 87c8 19 12 34 26 34zM275 315
c24 0 44 -20 44 -45c0 -24 -20 -44 -44 -44s-44 20 -44 44c0 25 20 45 44 45zM154 293c11 0 20 -9 18 -21l-17 -251c-1 -12 -11 -21 -22 -21h-40c-13 0 -22 9 -20 21l18 251c2 12 12 21 24 21h39z" />
    <glyph glyph-name="uniFB35" unicode="&#xfb35;" horiz-adv-x="351" 
d="M92 582c19 0 17 -25 21 -43c4 -16 20 -22 35 -25l50 -10c62 -12 81 -51 81 -124v-359c0 -12 -10 -21 -21 -21h-39c-13 0 -21 9 -21 21v318c0 68 -23 85 -89 93l-60 6c-15 2 -18 15 -13 27l24 64c5 16 13 53 32 53zM103 315c24 0 44 -20 44 -45c0 -24 -20 -44 -44 -44
s-44 20 -44 44c0 25 20 45 44 45z" />
    <glyph glyph-name="uniFB36" unicode="&#xfb36;" horiz-adv-x="398" 
d="M80 582c12 0 15 -25 19 -41c4 -20 13 -22 41 -24l122 -8c62 -4 73 15 84 15c13 0 14 -8 14 -23c0 -17 -13 -48 -17 -59c-6 -12 -10 -24 -30 -22l-70 5c-7 0 -14 -1 -15 -10c0 0 -19 -98 -19 -173c0 -93 34 -135 54 -171c8 -10 7 -24 -1 -31l-59 -47c-4 -3 -8 -4 -14 -4
s-11 3 -16 11c-16 27 -42 90 -42 148c0 48 4 81 17 161c6 43 24 121 24 121c-41 3 -116 7 -116 7c-25 1 -25 19 -19 38l15 58c6 20 9 49 28 49zM60 315c24 0 44 -20 44 -45c0 -24 -20 -44 -44 -44s-44 20 -44 44c0 25 20 45 44 45z" />
    <glyph glyph-name="uniFB38" unicode="&#xfb38;" horiz-adv-x="529" 
d="M82 554l65 -35c17 -8 31 -18 23 -59c0 0 -24 -108 -30 -164c-11 -122 31 -212 127 -212c103 0 155 75 155 178c0 120 -48 170 -93 170c-40 0 -52 -27 -61 -42c-4 -8 -7 -9 -10 -8l-14 4c-4 1 -3 4 -1 8l45 127c2 7 7 14 16 14c13 0 46 -7 64 -11c47 -13 126 -61 126 -262
c0 -193 -113 -273 -227 -273c-90 0 -194 68 -194 215c0 108 30 208 30 208c1 4 -1 5 -4 6c0 0 -52 23 -61 32c-7 6 -5 10 0 27l21 62c5 15 11 20 23 15zM281 315c24 0 44 -20 44 -45c0 -24 -20 -44 -44 -44s-44 20 -44 44c0 25 20 45 44 45z" />
    <glyph glyph-name="uniFB39" unicode="&#xfb39;" horiz-adv-x="351" 
d="M81 582c19 0 17 -25 21 -43c5 -16 20 -23 36 -25c73 -11 174 -17 174 -117c0 -35 -25 -84 -50 -131c-28 -50 -46 -80 -71 -121c-7 -12 -19 -17 -29 -8l-39 32c-12 10 -9 20 0 29c23 22 42 38 65 72c14 21 26 43 32 57c9 27 8 58 -9 74c-18 16 -49 21 -84 26
c-36 5 -64 7 -88 11c-15 3 -18 15 -13 27l27 72c11 30 12 45 28 45zM87 382c24 0 44 -20 44 -45c0 -24 -20 -44 -44 -44s-44 20 -44 44c0 25 20 45 44 45z" />
    <glyph glyph-name="uniFB3A" unicode="&#xfb3a;" horiz-adv-x="478" 
d="M78 582c17 -3 13 -27 15 -40c0 -13 8 -27 23 -27c0 0 73 2 112 2c38 0 141 -5 168 -14c12 -5 20 -8 15 -21c-4 -12 -13 -35 -12 -71v-510c0 -12 -9 -21 -21 -21h-40c-12 0 -21 9 -21 21v506c0 6 7 13 -12 18c-26 7 -50 7 -75 7c-89 0 -181 -12 -195 -12
c-21 0 -30 8 -21 34l36 100c7 19 13 29 28 28zM185 315c24 0 44 -20 44 -45c0 -24 -20 -44 -44 -44s-44 20 -44 44c0 25 20 45 44 45z" />
    <glyph glyph-name="uniFB3B" unicode="&#xfb3b;" horiz-adv-x="523" 
d="M119 582c14 0 17 -21 18 -35c0 -12 6 -34 26 -34c21 0 57 4 105 4c179 0 209 -87 209 -255c0 -193 -114 -262 -229 -262h-208c-19 0 -23 10 -18 28l14 43c4 16 10 22 24 22h168c124 0 173 59 173 162c0 139 -48 176 -172 176c-31 0 -109 -7 -137 -11
c-21 -4 -39 12 -30 38l34 96c6 19 10 28 23 28zM220 315c24 0 44 -20 44 -45c0 -24 -20 -44 -44 -44s-44 20 -44 44c0 25 20 45 44 45z" />
    <glyph glyph-name="uniFB3C" unicode="&#xfb3c;" horiz-adv-x="459" 
d="M154 748c28 0 34 -17 34 -30c0 -16 -11 -73 -39 -120l-41 -69c-11 -20 -1 -28 20 -24c24 4 61 12 135 12c112 0 173 -20 173 -160c0 -46 -25 -149 -144 -268c-62 -61 -150 -100 -172 -100c-18 0 -31 4 -28 20l13 55c2 11 8 15 20 23c29 15 109 48 153 89
c73 68 79 142 79 181c0 29 -16 75 -118 75c-117 0 -187 -19 -203 -21s-30 14 -22 34c7 18 41 88 53 117c13 29 21 48 21 82c0 23 -12 53 -22 74c-6 12 -4 30 17 30h71zM181 333c24 0 44 -20 44 -45c0 -24 -20 -44 -44 -44s-44 20 -44 44c0 25 20 45 44 45z" />
    <glyph glyph-name="uniFB3E" unicode="&#xfb3e;" 
d="M72 554c10 0 41 -7 71 -42c12 -15 20 -37 24 -54c4 -23 7 -54 7 -54c2 -13 10 -8 19 0c0 0 41 44 75 71c33 26 76 42 104 42c109 0 144 -285 144 -356c0 -39 0 -113 -23 -140c-19 -22 -48 -21 -69 -21h-183c-11 0 -13 8 -10 23l9 50c3 21 14 20 22 20h176s5 15 5 28
c0 73 -10 304 -128 304c-53 0 -120 -79 -141 -191l-40 -213c-2 -12 -9 -21 -21 -21h-44c-10 0 -17 9 -15 21l63 319c4 22 0 50 -12 62c-12 14 -55 28 -55 28c-9 4 -9 8 -7 24l15 85c2 10 4 15 14 15zM313 315c24 0 44 -20 44 -45c0 -24 -20 -44 -44 -44s-44 20 -44 44
c0 25 20 45 44 45z" />
    <glyph glyph-name="uniFB40" unicode="&#xfb40;" horiz-adv-x="404" 
d="M151 582c18 0 16 -25 21 -43c4 -16 11 -23 25 -25l48 -10c68 -11 87 -63 88 -125l10 -357c0 -12 -10 -22 -21 -22h-297c-10 0 -16 0 -12 16l17 61c3 12 10 16 18 16h203c7 0 9 2 9 9l-8 241c-1 32 -10 69 -46 74l-96 16c-15 2 -18 13 -14 27l32 91c6 14 8 31 23 31z
M145 315c24 0 44 -20 44 -45c0 -24 -20 -44 -44 -44s-44 20 -44 44c0 25 20 45 44 45z" />
    <glyph glyph-name="uniFB41" unicode="&#xfb41;" horiz-adv-x="518" 
d="M107 582c13 0 16 -21 16 -35c0 -12 6 -34 27 -34c20 0 55 4 104 4c168 0 219 -82 221 -254c0 -172 -91 -274 -223 -274c-148 0 -198 126 -198 235c0 82 37 168 50 191l-34 5c-18 2 -30 12 -21 38l32 96c7 19 10 28 26 28zM253 424c-38 0 -58 -4 -58 -4
c-23 -4 -35 -26 -38 -33c-4 -6 -34 -55 -34 -144c0 -96 60 -159 137 -159c86 0 143 76 143 165c0 124 -82 175 -150 175zM263 315c24 0 44 -20 44 -45c0 -24 -20 -44 -44 -44s-44 20 -44 44c0 25 20 45 44 45z" />
    <glyph glyph-name="uniFB43" unicode="&#xfb43;" horiz-adv-x="505" 
d="M107 582c14 0 13 -26 28 -34c19 -9 40 -14 53 -17l123 -37c106 -32 122 -118 122 -217v-376c0 -12 -9 -21 -21 -21h-39c-12 0 -21 9 -21 21v359c0 89 -18 131 -63 144l-150 43l-15 -155c-3 -40 7 -51 27 -54l60 -9c12 -3 17 -18 13 -29l-11 -43c-4 -16 -4 -26 -21 -26
c-21 0 -89 16 -117 37c-19 14 -34 52 -28 92l42 291c3 21 6 31 18 31zM287 286c24 0 44 -20 44 -45c0 -24 -20 -44 -44 -44s-44 20 -44 44c0 25 20 45 44 45z" />
    <glyph glyph-name="uniFB44" unicode="&#xfb44;" horiz-adv-x="507" 
d="M174 549l216 -63c31 -9 38 -39 40 -56c0 0 44 -272 44 -298c0 -27 -39 -96 -68 -103c-28 -7 -138 -29 -241 -29h-116c-11 0 -17 1 -15 19l7 56c1 12 8 18 21 18h130c125 0 184 26 199 31c8 3 13 6 10 19l-31 170c-10 58 -23 89 -54 98l-120 34c-20 6 -32 -4 -36 -15
l-21 -83c-10 -40 -1 -47 18 -56c21 -10 57 -18 57 -18c12 -4 12 -18 8 -28l-17 -35c-5 -9 -15 -17 -31 -14c-27 6 -68 28 -96 49c-17 15 -19 48 -9 82l56 200c8 27 33 27 49 22zM301 315c24 0 44 -20 44 -45c0 -24 -20 -44 -44 -44s-44 20 -44 44c0 25 20 45 44 45z" />
    <glyph glyph-name="uniFB46" unicode="&#xfb46;" horiz-adv-x="531" 
d="M395 551c19 -7 64 -30 85 -49c14 -11 17 -25 18 -39c1 -59 -48 -142 -92 -184l-61 -59c6 -12 62 -92 76 -108c9 -11 26 -18 29 -22c5 -6 4 -8 0 -20l-11 -49c-3 -14 -9 -21 -25 -21h-338c-14 0 -32 -1 -29 18l9 52c3 18 5 23 23 23h259c2 0 8 0 5 5l-205 292
c-9 12 -16 21 -23 27c-17 17 -42 26 -42 26c-12 8 -16 9 -7 41l15 53c3 11 4 17 16 14l70 -20c9 -3 17 -12 21 -29c5 -19 8 -32 15 -48c14 -34 35 -72 47 -93c10 -18 63 -96 63 -96c2 -3 5 -2 8 0l48 46c29 26 39 55 39 81c0 30 -12 46 -27 53l-26 13c-16 8 -12 24 -8 37
l16 48c3 11 14 14 32 8zM130 283c24 0 44 -20 44 -45c0 -24 -20 -44 -44 -44s-44 20 -44 44c0 25 20 45 44 45z" />
    <glyph glyph-name="uniFB47" unicode="&#xfb47;" 
d="M125 582c10 0 13 -21 14 -35c0 -12 8 -38 28 -38c19 0 75 8 123 8c92 0 206 -34 206 -143c0 -84 -30 -176 -117 -291c-44 -56 -65 -84 -82 -84c-12 0 -16 14 -21 27l-20 52c-5 13 3 15 20 27c76 52 144 116 144 214c0 73 -53 113 -155 113c-104 0 -144 -17 -171 -17
c-21 0 -38 12 -30 38l34 101c6 19 16 28 27 28zM279 315c24 0 44 -20 44 -45c0 -24 -20 -44 -44 -44s-44 20 -44 44c0 25 20 45 44 45zM150 309c11 0 18 -9 18 -20l10 -388c0 -12 -8 -21 -20 -21h-39c-11 0 -22 9 -22 21l-10 386c0 12 8 22 21 22h42z" />
    <glyph glyph-name="uniFB48" unicode="&#xfb48;" horiz-adv-x="498" 
d="M70 582c18 0 18 -25 21 -43c2 -16 9 -25 25 -25c10 0 51 3 106 3c128 0 206 -29 206 -175v-321c0 -12 -9 -21 -22 -21h-38c-10 0 -21 9 -21 21v265c0 115 -37 146 -144 146c-58 0 -116 -4 -175 -8c-20 -1 -21 17 -17 30l35 95c4 13 5 33 24 33zM188 315
c24 0 44 -20 44 -45c0 -24 -20 -44 -44 -44s-44 20 -44 44c0 25 20 45 44 45z" />
    <glyph glyph-name="uniFB49" unicode="&#xfb49;" horiz-adv-x="594" 
d="M463 558c17 0 96 -50 99 -69c1 -7 2 -13 2 -20c1 -103 -31 -215 -63 -293c-19 -47 -82 -187 -217 -187c-138 0 -194 112 -202 191c-19 187 -2 239 -23 254c-10 7 -31 17 -28 37l10 64c3 18 12 23 22 23c19 0 55 -22 74 -34c21 -13 20 -45 14 -70
c-11 -46 -21 -109 -21 -165c0 -45 5 -60 7 -71c2 -7 3 -9 7 -6c31 19 74 49 98 77c25 30 43 63 43 105c-1 37 -24 45 -40 54c-15 9 -12 28 -7 45l11 38c3 10 8 27 20 27c17 0 65 -30 76 -42c13 -14 18 -27 19 -44c1 -65 -18 -143 -64 -196c-29 -33 -92 -85 -141 -118
c26 -47 79 -75 148 -75c102 0 150 112 168 208c7 39 10 78 9 113c-1 19 -6 40 -25 47l-18 7c-7 3 -11 8 -11 18c-1 11 11 48 16 62c2 9 10 20 17 20zM347 247c24 0 44 -20 44 -45c0 -24 -20 -44 -44 -44s-44 20 -44 44c0 25 20 45 44 45z" />
    <glyph glyph-name="uniFB4A" unicode="&#xfb4a;" 
d="M127 582c18 0 17 -25 21 -43c2 -16 9 -28 24 -28c42 0 83 6 125 6c123 0 189 -22 189 -163v-333c0 -12 -11 -21 -22 -21h-38c-11 0 -21 9 -21 21v275c0 98 -7 136 -112 136c-28 0 -59 -2 -83 -6c-17 -36 -37 -101 -37 -155c0 -45 61 -177 61 -177c4 -10 6 -17 0 -36
l-10 -37c-3 -12 -9 -21 -21 -21h-149c-11 0 -21 3 -17 18l14 59c3 12 11 16 19 16h61c7 0 12 0 10 9c0 0 -38 122 -38 171c0 38 35 116 55 153c0 0 -21 -1 -33 -1c-13 0 -28 3 -28 3c-15 2 -19 12 -14 35l18 78c8 32 10 41 26 41zM297 315c24 0 44 -20 44 -45
c0 -24 -20 -44 -44 -44s-44 20 -44 44c0 25 20 45 44 45z" />
    <glyph glyph-name="uniFB4B" unicode="&#xfb4b;" horiz-adv-x="351" 
d="M175 688c24 0 44 -20 44 -44s-20 -44 -44 -44s-44 20 -44 44s20 44 44 44zM92 582c19 0 17 -25 21 -43c4 -16 20 -22 35 -25l50 -10c62 -12 81 -51 81 -124v-359c0 -12 -10 -21 -21 -21h-39c-13 0 -21 9 -21 21v318c0 68 -23 85 -89 93l-60 6c-15 2 -18 15 -13 27l24 64
c5 16 13 53 32 53z" />
    <glyph glyph-name="zero" unicode="0" 
d="M279 582c141 0 256 -116 256 -298s-115 -297 -256 -297s-257 115 -257 297s116 298 257 298zM279 508c-103 0 -162 -91 -162 -224s59 -224 162 -224c102 0 162 91 162 224s-60 224 -162 224z" />
    <glyph glyph-name="one" unicode="1" 
d="M306 581c17 0 17 -16 17 -28v-433c0 -32 4 -39 36 -39h84c11 0 19 -11 19 -21v-39c0 -12 -9 -21 -21 -21h-322c-11 0 -21 9 -21 21v39c0 10 10 21 21 21h83c31 0 36 7 36 39v312c0 30 -29 25 -44 21c-10 -3 -37 -12 -67 -12c-22 0 -26 3 -26 12v32c0 15 7 16 17 18
c26 4 53 11 88 24c55 20 83 54 93 54h7z" />
    <glyph glyph-name="two" unicode="2" 
d="M274 582c97 0 174 -63 174 -165c0 -92 -71 -153 -121 -197l-143 -129c-5 -4 -3 -10 1 -10h213c16 0 24 7 36 22c12 18 20 30 33 30c18 0 11 -19 10 -62v-50c0 -12 -10 -21 -21 -21h-356c-12 0 -21 9 -21 21v50c0 9 8 19 15 27l125 111c52 45 147 117 147 199
c0 74 -37 100 -104 100c-69 0 -103 -61 -112 -80c-11 -23 -26 -16 -45 -8c-20 7 -18 24 -5 45c14 25 67 117 174 117z" />
    <glyph glyph-name="three" unicode="3" 
d="M389 549c13 0 28 -3 33 -12c4 -8 4 -20 -5 -32l-137 -201c83 -11 188 -64 188 -191c0 -134 -152 -260 -338 -260c-16 0 -27 18 -27 32c0 13 8 30 27 30c113 0 246 81 246 188c0 116 -82 142 -142 142c-29 0 -30 -6 -39 -6c-13 0 -23 17 -13 31l121 187c3 6 6 11 -7 11
h-122c-24 0 -27 -15 -32 -31c-3 -13 -18 -24 -30 -24c-15 0 -24 17 -20 34l19 81c3 14 16 21 28 21h250z" />
    <glyph glyph-name="four" unicode="4" 
d="M403 549c10 0 21 -10 21 -21v-447h62c10 0 20 -9 20 -21v-39c0 -11 -11 -21 -21 -21h-61v-125c0 -13 -11 -22 -21 -22h-34c-13 0 -23 9 -23 22v125h-273c-21 0 -40 43 -21 78l271 450c6 10 11 21 23 21h57zM349 432c-3 0 -6 -1 -8 -6l-198 -325c-3 -7 -4 -20 8 -20h186
c7 0 9 3 9 12v260c0 30 4 60 4 67c0 6 1 12 -1 12z" />
    <glyph glyph-name="five" unicode="5" 
d="M427 549c13 0 21 -4 19 -17l-8 -48c-2 -12 -10 -16 -20 -16h-206c-13 0 -13 -7 -13 -14l-8 -172s44 11 83 11c110 0 188 -58 188 -181c0 -134 -152 -260 -339 -260c-15 0 -26 18 -26 31c0 14 7 30 26 30c113 0 247 81 247 189c0 93 -41 132 -126 132
c-41 0 -91 -16 -106 -16c-16 0 -18 13 -17 26l14 281c2 17 9 24 23 24h269z" />
    <glyph glyph-name="six" unicode="6" 
d="M387 682c16 0 27 -14 27 -27s-8 -35 -27 -35c-113 0 -211 -137 -230 -237c-2 -6 0 -8 3 -6c11 6 68 44 137 44c101 0 197 -69 197 -199c0 -129 -84 -235 -203 -235c-102 0 -227 71 -227 282s137 413 323 413zM281 350c-75 0 -134 -46 -134 -46s-3 -13 -3 -39
c0 -142 70 -205 147 -205c81 0 123 51 123 149c0 86 -52 141 -133 141z" />
    <glyph glyph-name="seven" unicode="7" 
d="M491 549c12 0 16 -11 12 -23l-273 -650c-7 -17 -12 -23 -25 -23h-44c-11 0 -17 10 -11 23l246 582c2 6 2 10 -4 10h-237c-22 0 -31 -10 -37 -30c-7 -20 -18 -25 -31 -25c-20 0 -25 27 -24 47l2 68c0 11 12 21 23 21h403z" />
    <glyph glyph-name="eight" unicode="8" 
d="M283 682c90 0 183 -60 183 -173c0 -85 -70 -133 -111 -140c73 -33 136 -78 136 -181c0 -109 -80 -201 -211 -201c-130 0 -212 81 -212 199c0 77 42 130 126 170c-37 16 -103 62 -103 151c0 116 103 175 192 175zM283 619c-64 0 -114 -43 -114 -98c0 -80 51 -108 122 -131
c0 0 100 35 100 115c0 62 -41 114 -108 114zM263 329c0 0 -110 -19 -110 -137c0 -84 59 -132 127 -132c60 0 128 42 128 118c0 92 -58 129 -145 151z" />
    <glyph glyph-name="nine" unicode="9" 
d="M268 582c102 0 226 -71 226 -282s-137 -447 -323 -447c-16 0 -27 17 -27 30c0 14 8 32 27 32c113 0 211 168 231 268c1 6 0 8 -4 6c-11 -6 -67 -44 -137 -44c-101 0 -197 71 -197 201c0 129 85 236 204 236zM268 508c-82 0 -124 -51 -124 -148c0 -87 52 -144 133 -144
c75 0 135 46 135 46s2 15 2 41c0 142 -70 205 -146 205z" />
    <glyph glyph-name="zero.lf" horiz-adv-x="557" 
d="M279 629c37 0 218 -13 218 -327s-181 -328 -218 -328c-38 0 -219 14 -219 328s181 327 219 327zM279 572c-38 0 -128 -14 -128 -270c0 -255 90 -269 128 -269c37 0 127 14 127 269c0 256 -90 270 -127 270z" />
    <glyph glyph-name="one.lf" 
d="M306 620c17 0 17 -15 17 -27v-493c0 -32 4 -39 36 -39h83c11 0 19 -11 19 -21v-19c0 -12 -9 -21 -21 -21h-321c-11 0 -21 9 -21 21v19c0 10 10 21 21 21h83c31 0 36 7 36 39v384c0 30 -29 25 -44 21c-10 -3 -37 -15 -67 -15c-22 0 -26 3 -26 12v23c0 14 7 16 17 18
c26 4 53 11 88 24c55 20 83 53 93 53h7z" />
    <glyph glyph-name="two.lf" 
d="M275 629c97 0 175 -56 175 -158c0 -92 -58 -158 -103 -208l-167 -186c-5 -6 -4 -10 1 -10h204c16 0 23 6 36 22c12 18 20 30 33 30c18 0 11 -19 10 -62v-36c0 -12 -10 -21 -21 -21h-334c-12 0 -21 9 -21 21v36c0 8 7 18 15 26l149 169c44 53 115 128 115 210
c0 73 -40 106 -106 106c-69 0 -102 -67 -113 -85c-9 -12 -23 -23 -41 -16c-20 8 -19 25 -6 46c14 24 67 116 174 116z" />
    <glyph glyph-name="three.lf" 
d="M420 614c13 0 28 -4 33 -12c4 -8 4 -20 -5 -33c0 0 -123 -171 -154 -206c51 -4 189 -53 189 -193c0 -136 -132 -196 -224 -196c-96 0 -184 56 -184 103c0 22 14 36 33 36c23 0 32 -19 42 -32c15 -21 49 -48 109 -48c58 0 133 30 133 129s-73 142 -133 142
c-29 0 -43 -7 -51 -7c-14 0 -24 18 -14 32l157 202c3 5 5 11 -7 11h-155c-25 0 -28 -25 -32 -40c-5 -14 -18 -25 -30 -25c-16 0 -25 17 -20 35l18 81c4 13 16 21 28 21h267z" />
    <glyph glyph-name="four.lf" 
d="M387 614c10 0 21 -10 21 -21v-399h77c10 0 20 -9 20 -21v-21c0 -11 -11 -21 -21 -21h-76v-125c0 -13 -11 -22 -21 -22h-34c-12 0 -22 9 -22 22v125h-251c-21 0 -33 39 -21 60l248 402c6 10 12 21 24 21h56zM334 525c-2 0 -7 -4 -9 -9l-185 -302c-3 -6 -5 -20 8 -20h174
c7 0 9 4 9 12v200c0 40 8 97 8 103c0 12 -3 16 -5 16z" />
    <glyph glyph-name="five.lf" 
d="M420 614c12 0 21 -5 18 -18l-7 -39c-3 -12 -10 -15 -20 -15h-213c-14 0 -14 -8 -14 -15l-8 -150c0 -16 4 -24 14 -24c11 0 24 11 70 11c110 0 222 -68 222 -191c0 -155 -156 -199 -223 -199c-81 0 -184 48 -184 104c0 13 8 35 33 35c21 0 29 -15 42 -32
c21 -27 58 -47 110 -47c41 0 132 14 132 137c0 93 -71 134 -156 134c-41 0 -91 -16 -106 -16c-16 0 -18 13 -17 26l15 274c1 17 9 25 22 25h270z" />
    <glyph glyph-name="six.lf" 
d="M387 629c16 0 27 -13 27 -26c0 -14 -8 -26 -27 -26c-113 0 -211 -130 -230 -230c-2 -5 0 -7 3 -5c11 5 64 39 137 39c101 0 197 -56 197 -186c0 -128 -84 -221 -203 -221c-102 0 -227 58 -227 269s137 386 323 386zM281 324c-66 0 -134 -48 -134 -48s-3 -22 -3 -47
c0 -142 70 -197 147 -197c81 0 123 52 123 150c0 87 -52 142 -133 142z" />
    <glyph glyph-name="seven.lf" 
d="M470 614c12 0 16 -11 12 -23l-250 -594c-7 -17 -12 -23 -24 -23h-41c-12 0 -17 10 -12 23l227 535c2 5 2 10 -5 10h-205c-22 0 -31 -19 -38 -39c-6 -20 -17 -26 -31 -26c-20 0 -24 27 -23 47l2 69c0 11 11 21 22 21h366z" />
    <glyph glyph-name="eight.lf" 
d="M281 633c90 0 183 -50 183 -162c0 -104 -91 -128 -111 -139c20 -9 39 -18 59 -31c49 -33 76 -80 76 -142c0 -133 -115 -185 -211 -185c-104 0 -212 54 -212 173c0 76 37 127 139 167c-18 9 -19 9 -43 22c-57 31 -72 85 -72 132c0 116 112 165 192 165zM281 577
c-65 0 -114 -33 -114 -95c0 -45 7 -61 33 -84c31 -27 89 -45 89 -45s100 33 100 113c0 62 -42 111 -108 111zM270 287c0 0 -119 -17 -119 -135c0 -84 59 -119 126 -119c60 0 129 29 129 105c0 51 -10 91 -59 117c-46 26 -77 32 -77 32z" />
    <glyph glyph-name="nine.lf" 
d="M268 633c102 0 226 -65 226 -276c0 -210 -137 -379 -323 -379c-16 0 -27 13 -27 26c0 14 8 26 27 26c113 0 211 123 231 223c1 6 0 8 -4 6c-11 -6 -64 -39 -137 -39c-101 0 -197 55 -197 185c0 129 85 228 204 228zM268 575c-82 0 -124 -59 -124 -157
c0 -86 52 -142 133 -142c66 0 135 48 135 48s2 22 2 48c0 142 -70 203 -146 203z" />
    <glyph glyph-name="uni00B9" unicode="&#xb9;" 
d="M302 624c19 0 19 -11 19 -19v-281c0 -15 1 -18 11 -18h45c12 0 20 -9 20 -16v-10c0 -10 -10 -16 -21 -16h-177c-11 0 -21 6 -21 16v10c0 7 10 16 21 16h45c9 0 10 3 10 18v220c0 9 -9 9 -12 8c-8 -4 -24 -9 -40 -9c-19 0 -22 3 -22 11v13c0 10 4 11 16 14
c13 2 26 6 48 14c16 6 28 14 38 21c4 3 9 8 17 8h3z" />
    <glyph glyph-name="uni00B2" unicode="&#xb2;" 
d="M256 629c59 0 106 -32 106 -92c0 -52 -33 -92 -59 -122l-92 -104h111c12 0 13 29 33 29c12 0 16 -8 16 -25v-34c0 -9 -10 -17 -21 -17h-185c-13 0 -22 8 -22 17v20c0 1 2 5 7 11c0 0 35 43 91 106c23 30 59 72 59 114c0 39 -19 55 -52 55c-27 0 -46 -34 -56 -46
c-9 -12 -20 -18 -32 -10c-10 6 -17 17 -8 33c9 12 39 65 104 65z" />
    <glyph glyph-name="uni00B3" unicode="&#xb3;" 
d="M357 614c12 0 23 -1 26 -7s3 -15 -3 -24c0 0 -65 -93 -83 -112c37 -7 104 -39 104 -112c0 -78 -78 -115 -133 -115c-57 0 -110 33 -110 60c0 16 11 25 26 25c16 0 22 -9 27 -15c12 -14 29 -30 57 -30s65 19 65 70c0 52 -37 77 -65 77c-8 0 -16 -4 -28 -4
c-14 0 -24 14 -16 24l87 114h-82c-5 0 -6 -8 -8 -12c-5 -14 -17 -24 -27 -24c-13 0 -22 15 -20 25l10 44c4 10 15 16 26 16h147z" />
    <glyph glyph-name="onehalf" unicode="&#xbd;" horiz-adv-x="654" 
d="M522 628c23 -8 22 -30 12 -47l-349 -584c-9 -16 -21 -33 -43 -26c-29 10 -22 31 -11 50l347 584c9 14 23 31 44 23zM158 624c18 0 18 -11 18 -19v-281c0 -15 2 -18 12 -18h45c11 0 20 -9 20 -16v-10c0 -10 -10 -16 -21 -16h-178c-11 0 -21 6 -21 16v10c0 7 10 16 21 16
h46c9 0 10 3 10 18v220c0 9 -9 9 -12 8c-8 -4 -25 -9 -40 -9c-19 0 -22 3 -22 11v13c0 10 4 11 16 14c12 2 26 6 48 14c15 6 28 14 38 21c4 3 9 8 16 8h4zM506 365c59 0 106 -32 106 -92c0 -52 -34 -92 -59 -122l-92 -104h111c12 0 13 28 33 28c12 0 15 -7 15 -24v-34
c0 -9 -10 -17 -21 -17h-184c-13 0 -22 8 -22 17v20c0 1 2 5 7 11c0 0 35 43 91 106c23 30 58 71 58 114c0 38 -18 55 -52 55c-26 0 -45 -34 -55 -47c-9 -11 -20 -17 -32 -10c-10 7 -17 18 -8 34c9 12 39 65 104 65z" />
    <glyph glyph-name="onequarter" unicode="&#xbc;" horiz-adv-x="626" 
d="M522 628c23 -8 22 -30 12 -47l-349 -584c-9 -16 -21 -33 -43 -26c-29 10 -22 31 -11 50l347 584c9 14 23 31 44 23zM158 624c18 0 18 -11 18 -19v-281c0 -15 2 -18 12 -18h45c11 0 20 -9 20 -16v-10c0 -10 -10 -16 -21 -16h-178c-11 0 -21 6 -21 16v10c0 7 10 16 21 16
h46c9 0 10 3 10 18v220c0 9 -9 9 -12 8c-8 -4 -25 -9 -40 -9c-19 0 -22 3 -22 11v13c0 10 4 11 16 14c12 2 26 6 48 14c15 6 28 14 38 21c4 3 9 8 16 8h4zM519 349c10 0 22 -8 22 -17v-219h32c10 0 20 -8 20 -18v-10c0 -8 -11 -16 -21 -16h-31v-69c0 -9 -12 -17 -22 -17h-18
c-14 0 -21 8 -21 17v69h-131c-17 0 -28 24 -20 40l138 225c4 7 9 15 20 15h32zM482 270l-96 -157h94v118c0 10 1 27 2 39z" />
    <glyph glyph-name="threequarters" unicode="&#xbe;" horiz-adv-x="620" 
d="M516 628c23 -8 22 -30 12 -47l-348 -584c-9 -16 -21 -33 -43 -26c-29 10 -23 31 -12 50l348 584c9 14 22 31 43 23zM233 614c11 0 22 -1 26 -7c3 -6 3 -15 -4 -24c0 0 -64 -93 -82 -112c37 -7 103 -39 103 -112c0 -78 -77 -115 -133 -115s-110 33 -110 60
c0 16 11 25 27 25c15 0 22 -9 27 -15c12 -14 28 -30 56 -30c29 0 66 19 66 70c0 52 -37 77 -66 77c-8 0 -15 -4 -28 -4s-23 14 -15 24l86 114h-82c-4 0 -5 -8 -7 -12c-5 -14 -17 -24 -27 -24c-13 0 -22 15 -20 25l10 44c2 10 14 16 25 16h148zM514 349c10 0 21 -8 21 -17
v-219h32c10 0 20 -8 20 -18v-10c0 -8 -11 -16 -21 -16h-31v-69c0 -9 -11 -17 -21 -17h-19c-13 0 -21 8 -21 17v69h-131c-17 0 -28 24 -20 40l139 225c3 7 9 15 20 15h32zM476 270l-95 -157h93v118c0 10 1 27 2 39z" />
    <glyph glyph-name="asterisk" unicode="*" 
d="M279 630c26 0 46 -12 46 -36c1 -31 -15 -66 -16 -103c0 -37 -13 -55 -32 -55c-17 0 -31 19 -31 55c0 37 -15 72 -16 102c0 24 21 37 49 37zM448 503c24 8 43 -8 52 -35c7 -25 2 -47 -22 -55c-28 -11 -66 -6 -103 -17c-34 -11 -55 -4 -61 14c-5 16 9 35 42 46
c36 11 65 37 92 47zM107 502c30 -8 58 -35 94 -47c34 -12 48 -30 41 -48c-4 -16 -27 -22 -61 -12c-36 11 -74 7 -102 17c-23 8 -30 30 -22 58c10 24 28 38 50 32zM302 366c13 11 35 3 57 -25c22 -30 55 -50 73 -73c14 -20 5 -43 -17 -59s-45 -17 -60 2c-19 24 -25 62 -48 93
c-21 30 -21 52 -5 62zM255 364c15 -9 14 -32 -6 -61c-23 -31 -30 -69 -48 -92c-15 -20 -38 -19 -61 -3c-21 16 -29 38 -16 57c17 26 51 45 74 75c22 30 43 36 57 24z" />
    <glyph glyph-name="backslash" unicode="\" horiz-adv-x="314" 
d="M83 618c10 0 20 -9 24 -19l182 -720c3 -11 -5 -19 -16 -19h-42c-10 0 -20 8 -23 19l-182 720c-4 10 4 19 15 19h42z" />
    <glyph glyph-name="periodcentered" unicode="&#xb7;" horiz-adv-x="323" 
d="M162 401c47 0 86 -39 86 -87s-39 -86 -86 -86c-48 0 -87 38 -87 86s39 87 87 87z" />
    <glyph glyph-name="bullet" unicode="&#x2022;" horiz-adv-x="383" 
d="M192 462c64 0 116 -52 116 -117c0 -64 -52 -116 -116 -116c-65 0 -117 52 -117 116c0 65 52 117 117 117z" />
    <glyph glyph-name="colon" unicode=":" horiz-adv-x="275" 
d="M137 472c37 0 66 -29 66 -67c0 -35 -29 -65 -66 -65c-36 0 -65 30 -65 65c0 38 29 67 65 67zM137 121c37 0 66 -30 66 -65c0 -37 -29 -67 -66 -67c-36 0 -65 30 -65 67c0 35 29 65 65 65z" />
    <glyph glyph-name="comma" unicode="," horiz-adv-x="291" 
d="M182 121c41 0 74 -29 74 -99c0 -99 -115 -177 -151 -177c-21 0 -33 15 -33 31c0 22 15 27 29 34c27 12 74 42 74 69c0 8 -1 10 -11 13c-19 4 -49 27 -49 64c0 39 35 65 67 65z" />
    <glyph glyph-name="ellipsis" unicode="&#x2026;" 
d="M91 115c37 0 66 -28 66 -65s-29 -66 -66 -66s-65 29 -65 66s28 65 65 65zM276 115c37 0 66 -28 66 -65s-29 -66 -66 -66c-36 0 -65 29 -65 66s29 65 65 65zM463 115c37 0 65 -28 65 -65s-28 -66 -65 -66s-66 29 -66 66s29 65 66 65z" />
    <glyph glyph-name="exclam" unicode="!" 
d="M280 657c41 0 66 -34 66 -75c0 -89 -35 -217 -35 -332c0 -16 -8 -27 -27 -27h-9c-19 0 -26 11 -26 27c0 115 -36 243 -36 332c0 41 25 75 67 75zM280 140c41 0 75 -33 75 -76c0 -42 -34 -75 -75 -75c-42 0 -77 33 -77 75c0 43 35 76 77 76z" />
    <glyph glyph-name="exclamdown" unicode="&#xa1;" 
d="M279 628c42 0 76 -33 76 -75s-34 -76 -76 -76c-41 0 -76 34 -76 76s35 75 76 75zM283 394c19 0 27 -11 27 -27c0 -115 35 -243 35 -331c0 -42 -24 -76 -66 -76c-41 0 -67 34 -67 76c0 88 36 216 36 331c0 16 7 27 26 27h9z" />
    <glyph glyph-name="numbersign" unicode="#" 
d="M457 662c11 0 19 -10 17 -23l-39 -182h73c11 0 21 -9 21 -21v-29c0 -12 -10 -21 -20 -21h-89l-28 -130h68c12 0 22 -10 22 -21v-30c0 -11 -9 -21 -21 -21h-85l-42 -193c-2 -12 -13 -21 -24 -21h-26c-12 0 -20 9 -18 21l43 193h-105l-42 -193c-2 -12 -13 -21 -24 -21h-26
c-12 0 -20 9 -18 21l43 193h-87c-12 0 -21 10 -21 21l-1 30c0 11 10 21 21 21h103l28 130h-81c-12 0 -22 9 -22 21v29c0 12 8 21 20 21h98l39 182c2 13 12 23 25 23h26c11 0 19 -10 17 -23l-39 -182h104l39 182c2 13 12 23 25 23h26zM352 386h-104l-28 -130h104z" />
    <glyph glyph-name="period" unicode="." horiz-adv-x="275" 
d="M137 121c37 0 66 -30 66 -65c0 -37 -29 -67 -66 -67c-36 0 -65 30 -65 67c0 35 29 65 65 65z" />
    <glyph glyph-name="question" unicode="?" 
d="M279 657c103 0 177 -49 177 -145c0 -65 -66 -122 -91 -142l-75 -67c-12 -10 -17 -16 -17 -23c0 -15 2 -22 2 -36c0 -13 -11 -34 -35 -34c-34 0 -42 28 -42 50c0 24 7 52 38 81l94 84c34 31 42 60 42 88c0 31 -20 83 -98 83c-43 0 -101 -32 -115 -43c-15 -11 -32 -4 -40 5
c-12 15 -6 37 10 50c15 14 65 49 150 49zM246 140c41 0 76 -33 76 -76c0 -42 -35 -75 -76 -75c-42 0 -76 33 -76 75c0 43 34 76 76 76z" />
    <glyph glyph-name="questiondown" unicode="&#xbf;" 
d="M306 642c43 0 77 -34 77 -76s-34 -75 -77 -75c-41 0 -75 33 -75 75s34 76 75 76zM313 421c33 0 42 -28 42 -50c0 -25 -8 -52 -39 -81l-93 -85c-34 -31 -42 -60 -42 -87c0 -31 20 -84 98 -84c43 0 101 33 115 44s32 3 40 -6c12 -14 6 -36 -10 -50
c-16 -13 -65 -49 -150 -49c-103 0 -177 49 -177 146c0 64 66 122 91 142l75 66c11 12 17 16 17 24c0 14 -3 22 -3 35c0 14 12 35 36 35z" />
    <glyph glyph-name="quotedbl" unicode="&#x22;" horiz-adv-x="430" 
d="M128 627c31 0 54 -24 54 -54c0 -39 -20 -76 -22 -139l-2 -81c-1 -22 -16 -34 -31 -34c-16 0 -28 14 -29 34l-4 81c-2 63 -22 100 -22 139c0 30 26 54 56 54zM302 627c31 0 55 -24 55 -54c0 -39 -20 -76 -22 -139l-3 -81c-1 -22 -15 -34 -31 -34c-15 0 -28 14 -29 34
l-2 81c-2 63 -22 100 -22 139c0 30 24 54 54 54z" />
    <glyph glyph-name="quotesingle" unicode="'" horiz-adv-x="254" 
d="M128 645c31 0 54 -25 54 -54c0 -38 -20 -76 -21 -138l-3 -82c-1 -22 -16 -35 -31 -35s-28 15 -29 35l-4 82c-2 62 -22 100 -22 138c0 29 26 54 56 54z" />
    <glyph glyph-name="semicolon" unicode=";" horiz-adv-x="329" 
d="M182 472c37 0 66 -29 66 -67c0 -35 -29 -65 -66 -65c-35 0 -67 30 -67 65c0 38 32 67 67 67zM182 121c41 0 74 -29 74 -99c0 -99 -115 -177 -151 -177c-21 0 -33 15 -33 31c0 22 15 27 29 34c27 12 74 42 74 69c0 8 -1 10 -11 13c-19 4 -49 27 -49 64c0 39 35 65 67 65z
" />
    <glyph glyph-name="slash" unicode="/" 
d="M408 687c13 0 20 -10 17 -21l-202 -800c-3 -13 -14 -21 -25 -21h-48c-12 0 -20 8 -17 21l202 800c4 11 15 21 26 21h47z" />
    <glyph glyph-name="underscore" unicode="_" 
d="M558 -219c20 0 29 -17 29 -36s-9 -37 -29 -37h-558c-19 0 -30 18 -30 37c0 17 10 36 30 36h558z" />
    <glyph glyph-name="numbersign.proportional" 
d="M293 680c24 0 31 -22 27 -42l-146 -664c-3 -17 -10 -37 -33 -37c-30 0 -31 22 -27 43l45 204h-66c-15 0 -24 8 -24 24c0 23 14 31 38 31h64l25 121h-65c-14 0 -23 11 -23 24c0 23 14 31 36 31h65l51 229c3 16 11 36 33 36zM421 680c22 0 31 -16 25 -44l-46 -214h65
c13 0 25 -9 25 -24c0 -23 -15 -32 -38 -32h-65l-25 -121h65c15 0 25 -9 25 -23c0 -22 -17 -31 -38 -31h-64l-49 -220c-4 -17 -14 -34 -35 -34c-23 0 -31 20 -26 41l145 664c6 24 13 38 36 38z" />
    <glyph glyph-name="backslash.prportional" 
d="M184 719c21 0 32 -12 44 -54l177 -701c3 -12 8 -31 8 -37c0 -22 -16 -37 -38 -37c-29 0 -40 33 -43 48l-179 709c-3 13 -8 31 -8 38c0 23 17 34 39 34z" />
    <glyph glyph-name="braceleft" unicode="{" horiz-adv-x="400" 
d="M355 710c10 0 21 -10 21 -21v-24c0 -12 -11 -21 -21 -21h-60c-76 0 -88 -95 -88 -129v-181c0 -47 -15 -72 -52 -86c37 -16 52 -42 52 -88v-182c0 -34 12 -127 89 -127h59c11 0 21 -11 21 -22v-24c0 -13 -10 -21 -21 -21h-64c-95 0 -168 55 -168 179v197
c0 33 -7 53 -38 53h-39c-10 0 -21 10 -21 21v25c0 12 10 21 21 21h39c30 0 38 21 38 54v197c0 123 72 179 168 179h64z" />
    <glyph glyph-name="braceright" unicode="}" horiz-adv-x="400" 
d="M109 710c96 0 167 -56 167 -179v-197c0 -33 9 -54 39 -54h39c11 0 21 -9 21 -21v-25c0 -11 -11 -21 -21 -21h-39c-32 0 -39 -20 -39 -53v-197c0 -124 -72 -179 -167 -179h-64c-11 0 -21 8 -21 21v24c0 11 10 22 21 22h59c77 0 88 93 88 127v182c0 46 16 72 53 88
c-37 14 -53 39 -53 86v181c0 34 -11 129 -87 129h-60c-10 0 -21 9 -21 21v24c0 11 11 21 21 21h64z" />
    <glyph glyph-name="bracketleft" unicode="[" horiz-adv-x="365" 
d="M315 710c12 0 22 -10 22 -21v-24c0 -12 -10 -21 -22 -21h-109c-32 0 -38 -9 -38 -41v-713c0 -33 6 -41 38 -41h109c12 0 22 -9 22 -21v-23c0 -13 -10 -21 -22 -21h-210c-11 0 -21 8 -21 21v884c0 11 10 21 21 21h210z" />
    <glyph glyph-name="bracketright" unicode="]" horiz-adv-x="365" 
d="M259 710c12 0 22 -10 22 -21v-884c0 -13 -10 -21 -22 -21h-210c-11 0 -21 8 -21 21v23c0 12 10 21 21 21h110c32 0 37 8 37 41v713c0 32 -5 41 -37 41h-110c-11 0 -21 9 -21 21v24c0 11 10 21 21 21h210z" />
    <glyph glyph-name="parenleft" unicode="(" horiz-adv-x="361" 
d="M301 716c21 0 30 -14 30 -30c0 -18 -10 -26 -31 -31c-28 -8 -78 -22 -110 -61c-38 -47 -53 -134 -53 -294c0 -159 15 -246 53 -293c32 -39 82 -55 110 -63c21 -5 31 -13 31 -28c0 -16 -9 -31 -30 -31c-26 0 -106 5 -167 79c-75 93 -85 256 -85 336c0 82 9 244 85 337
c60 72 141 79 167 79z" />
    <glyph glyph-name="parenright" unicode=")" horiz-adv-x="361" 
d="M59 716c26 0 107 -7 166 -79c77 -93 87 -255 87 -337c0 -80 -12 -242 -87 -336c-60 -73 -140 -79 -166 -79c-22 0 -29 15 -29 31c0 15 9 23 31 28c26 8 77 24 108 63c39 47 54 134 54 293c0 160 -15 247 -54 294c-31 39 -82 53 -108 61c-22 5 -31 13 -31 31
c0 16 7 30 29 30z" />
    <glyph glyph-name="braceleft.proportional" 
d="M394 614c24 0 40 -10 40 -37c0 -19 -14 -32 -40 -35c-7 0 -10 0 -13 -1c-18 -4 -32 -13 -39 -24c-8 -11 -11 -33 -11 -69v-44c0 -51 -7 -90 -18 -111c-12 -22 -34 -39 -64 -49c30 -10 52 -25 64 -49c11 -21 18 -58 18 -111v-44c0 -34 3 -56 10 -66c6 -11 19 -20 35 -23
c4 -2 9 -2 18 -3c26 -4 40 -16 40 -36c0 -21 -13 -37 -34 -37c-55 0 -91 13 -114 40c-21 24 -32 75 -32 149v30c0 63 -29 100 -87 111h-2c-25 5 -32 15 -32 39c0 33 22 37 51 42c65 14 70 48 70 108v30c0 74 11 123 32 150c21 28 58 40 108 40z" />
    <glyph glyph-name="braceright.proportional" 
d="M173 614c50 0 87 -12 108 -40c21 -27 32 -76 32 -150v-30c0 -60 6 -94 70 -108c29 -5 51 -9 51 -42c0 -24 -7 -34 -32 -39h-1c-59 -11 -88 -48 -88 -111v-30c0 -74 -11 -125 -32 -149c-22 -27 -59 -40 -113 -40c-21 0 -35 16 -35 37c0 20 15 32 40 36c9 1 15 1 18 3
c17 3 29 12 35 23c7 10 10 32 10 66v44c0 53 7 90 18 111c12 24 35 39 65 49c-30 10 -53 27 -65 49c-11 21 -18 60 -18 111v44c0 36 -3 58 -11 69c-6 11 -21 20 -39 24c-3 1 -6 1 -13 1c-25 3 -40 16 -40 35c0 27 16 37 40 37z" />
    <glyph glyph-name="bracketleft.proportional" 
d="M371 614c20 0 31 -8 31 -29c0 -26 -11 -32 -36 -32h-73v-618h73c24 0 36 -9 36 -34c0 -21 -11 -30 -31 -30h-111c-41 0 -47 28 -47 68v607c0 41 5 68 47 68h111z" />
    <glyph glyph-name="bracketright.proportional" 
d="M355 614c42 0 47 -27 47 -68v-607c0 -40 -6 -68 -47 -68h-111c-20 0 -31 9 -31 30c0 25 12 34 36 34h73v618h-73c-25 0 -36 6 -36 32c0 21 11 29 31 29h111z" />
    <glyph glyph-name="parenleft.proportional" horiz-adv-x="281" 
d="M230 623c17 0 34 -15 34 -32c0 -6 -9 -19 -23 -39c-66 -92 -111 -187 -111 -301c0 -111 44 -213 114 -304c12 -17 20 -28 20 -35c0 -17 -18 -31 -34 -31c-8 0 -19 6 -33 17c-104 88 -162 223 -162 353c0 125 55 261 154 347c17 16 32 25 41 25z" />
    <glyph glyph-name="parenright.proportional" horiz-adv-x="281" 
d="M52 623c9 0 23 -9 41 -25c99 -86 153 -222 153 -347c0 -130 -58 -265 -162 -353c-13 -11 -24 -17 -32 -17c-17 0 -35 14 -35 31c0 7 8 18 20 35c70 91 115 193 115 304c0 114 -46 209 -111 301c-15 20 -24 33 -24 39c0 17 17 32 35 32z" />
    <glyph glyph-name="emdash" unicode="&#x2014;" horiz-adv-x="588" 
d="M565 289c10 0 20 -9 20 -19v-26c0 -11 -10 -20 -20 -20h-543c-11 0 -19 9 -19 20v26c0 10 8 19 19 19h543z" />
    <glyph glyph-name="endash" unicode="&#x2013;" horiz-adv-x="456" 
d="M402 289c11 0 19 -9 19 -19v-26c0 -11 -8 -20 -19 -20h-347c-11 0 -20 9 -20 20v26c0 10 9 19 20 19h347z" />
    <glyph glyph-name="hyphen" unicode="-" horiz-adv-x="395" 
d="M339 321c12 0 21 -10 21 -21v-29c0 -12 -9 -21 -21 -21h-281c-13 0 -23 9 -23 21v29c0 11 10 21 23 21h281z" />
    <glyph glyph-name="uni00AD" unicode="&#xad;" 
d="M405 269c30 0 59 -15 59 -46c0 -30 -30 -49 -59 -49l-252 1c-31 1 -59 16 -59 48c0 30 30 46 59 46h252z" />
    <glyph glyph-name="guillemotleft" unicode="&#xab;" 
d="M256 416c8 0 16 -6 16 -16c0 -5 -2 -11 -6 -19l-60 -143c-2 -6 -5 -14 -5 -22c0 -2 1 -8 4 -17c0 -1 64 -151 64 -151c2 -6 3 -9 3 -15c0 -9 -6 -14 -16 -14c-8 0 -14 8 -20 15l-106 154c-6 8 -15 20 -15 28c0 10 7 18 15 30l108 157c5 9 12 13 18 13zM441 416
c7 0 15 -6 15 -16c0 -5 -2 -11 -5 -19l-60 -143c-2 -6 -6 -14 -6 -22c0 -2 1 -8 5 -17c0 -1 63 -151 63 -151c2 -6 3 -9 3 -15c0 -9 -5 -14 -15 -14c-9 0 -15 8 -20 15l-107 154c-5 8 -14 20 -14 28c0 10 6 18 14 30l108 157c5 9 12 13 19 13z" />
    <glyph glyph-name="guillemotright" unicode="&#xbb;" 
d="M131 416c7 0 13 -4 19 -13l108 -157c7 -12 14 -20 14 -30c0 -8 -9 -20 -14 -28l-107 -154c-6 -7 -11 -15 -20 -15c-10 0 -16 5 -16 14c0 6 2 9 4 15c0 0 63 150 63 151c3 9 4 15 4 17c0 8 -3 16 -5 22l-60 143c-3 8 -6 14 -6 19c0 10 8 16 16 16zM315 416
c7 0 14 -4 19 -13l108 -157c8 -12 14 -20 14 -30c0 -8 -9 -20 -14 -28l-107 -154c-5 -7 -11 -15 -20 -15c-10 0 -15 5 -15 14c0 6 1 9 3 15c0 0 63 150 63 151c4 9 5 15 5 17c0 8 -4 16 -6 22l-60 143c-3 8 -5 14 -5 19c0 10 7 16 15 16z" />
    <glyph glyph-name="guilsinglleft" unicode="&#x2039;" 
d="M347 416c8 0 16 -6 16 -16c0 -5 -2 -11 -6 -19l-60 -143c-2 -6 -5 -14 -5 -22c0 -2 1 -8 4 -17c0 -1 64 -151 64 -151c2 -6 3 -9 3 -15c0 -9 -6 -14 -16 -14c-8 0 -14 8 -20 15l-106 154c-6 8 -15 20 -15 28c0 10 7 18 15 30l108 157c5 9 12 13 18 13z" />
    <glyph glyph-name="guilsinglright" unicode="&#x203a;" 
d="M222 416c7 0 13 -4 19 -13l108 -157c7 -12 14 -20 14 -30c0 -8 -9 -20 -14 -28l-107 -154c-6 -7 -11 -15 -20 -15c-10 0 -16 5 -16 14c0 6 2 9 4 15c0 0 63 150 63 151c3 9 4 15 4 17c0 8 -3 16 -5 22l-60 143c-3 8 -6 14 -6 19c0 10 8 16 16 16z" />
    <glyph glyph-name="quotedblbase" unicode="&#x201e;" horiz-adv-x="551" 
d="M183 121c40 0 75 -29 75 -99c0 -98 -117 -177 -153 -177c-21 0 -33 15 -33 31c0 22 15 28 29 34c27 11 74 43 74 70c0 7 -1 10 -10 12c-20 4 -47 26 -47 64c0 39 32 65 65 65zM404 121c40 0 74 -29 74 -99c0 -98 -115 -177 -151 -177c-21 0 -34 15 -34 31
c0 22 14 28 29 34c28 11 75 43 75 70c0 7 -1 10 -11 12c-19 4 -49 26 -49 64c0 39 35 65 67 65z" />
    <glyph glyph-name="quotedblleft" unicode="&#x201c;" horiz-adv-x="476" 
d="M186 668c21 0 34 -15 34 -31c0 -22 -14 -28 -29 -34c-28 -11 -75 -43 -75 -70c0 -7 1 -10 11 -12c19 -4 49 -26 49 -64c0 -39 -35 -65 -67 -65c-40 0 -74 29 -74 99c0 98 115 177 151 177zM408 668c21 0 33 -15 33 -31c0 -22 -15 -28 -29 -34c-27 -11 -74 -43 -74 -70
c0 -7 1 -10 10 -12c20 -4 47 -26 47 -64c0 -39 -32 -65 -65 -65c-40 0 -75 29 -75 99c0 98 117 177 153 177z" />
    <glyph glyph-name="quotedblright" unicode="&#x201d;" horiz-adv-x="476" 
d="M146 668c40 0 75 -29 75 -99c0 -98 -117 -177 -153 -177c-21 0 -33 15 -33 31c0 22 15 28 29 34c27 11 74 43 74 70c0 7 -1 10 -10 12c-20 4 -47 26 -47 64c0 39 32 65 65 65zM367 668c40 0 74 -29 74 -99c0 -98 -115 -177 -151 -177c-21 0 -34 15 -34 31
c0 22 14 28 29 34c28 11 75 43 75 70c0 7 -1 10 -11 12c-19 4 -49 26 -49 64c0 39 35 65 67 65z" />
    <glyph glyph-name="quoteleft" unicode="&#x2018;" horiz-adv-x="256" 
d="M188 668c21 0 33 -15 33 -31c0 -22 -15 -28 -29 -34c-27 -11 -74 -43 -74 -70c0 -7 1 -10 10 -12c20 -4 47 -26 47 -64c0 -39 -32 -65 -65 -65c-40 0 -75 29 -75 99c0 98 117 177 153 177z" />
    <glyph glyph-name="quoteright" unicode="&#x2019;" horiz-adv-x="256" 
d="M146 668c40 0 75 -29 75 -99c0 -98 -117 -177 -153 -177c-21 0 -33 15 -33 31c0 22 15 28 29 34c27 11 74 43 74 70c0 7 -1 10 -10 12c-20 4 -47 26 -47 64c0 39 32 65 65 65z" />
    <glyph glyph-name="quotesinglbase" unicode="&#x201a;" horiz-adv-x="329" 
d="M182 121c41 0 74 -29 74 -99c0 -99 -115 -177 -151 -177c-21 0 -33 15 -33 31c0 22 15 27 29 34c27 12 74 42 74 69c0 8 -1 10 -11 13c-19 4 -49 27 -49 64c0 39 35 65 67 65z" />
    <glyph glyph-name="uni05F3" unicode="&#x5f3;" horiz-adv-x="256" 
d="M146 604c40 0 75 -29 75 -99c0 -98 -117 -177 -153 -177c-21 0 -33 15 -33 31c0 22 15 28 29 34c27 11 74 43 74 70c0 7 -1 10 -10 12c-20 4 -47 26 -47 64c0 39 32 65 65 65z" />
    <glyph glyph-name="uni05F4" unicode="&#x5f4;" horiz-adv-x="476" 
d="M146 604c40 0 75 -29 75 -99c0 -98 -117 -177 -153 -177c-21 0 -33 15 -33 31c0 22 15 28 29 34c27 11 74 43 74 70c0 7 -1 10 -10 12c-20 4 -47 26 -47 64c0 39 32 65 65 65zM367 604c40 0 74 -29 74 -99c0 -98 -115 -177 -151 -177c-21 0 -34 15 -34 31
c0 22 14 28 29 34c28 11 75 43 75 70c0 7 -1 10 -11 12c-19 4 -49 26 -49 64c0 39 35 65 67 65z" />
    <glyph glyph-name="uni05BE" unicode="&#x5be;" horiz-adv-x="335" 
d="M279 501c13 0 21 -9 21 -21v-29c0 -13 -8 -21 -21 -21h-223c-11 0 -21 8 -21 21v29c0 12 10 21 21 21h223z" />
    <glyph glyph-name="space" unicode=" " horiz-adv-x="270" 
 />
    <glyph glyph-name="uni00A0" unicode="&#xa0;" horiz-adv-x="270" 
 />
    <glyph glyph-name="cent" unicode="&#xa2;" 
d="M293 538c23 0 31 -5 31 -29v-43h7c79 0 126 -44 126 -123c0 -27 -7 -47 -36 -47c-23 0 -37 16 -39 37l-3 32c-5 33 -29 50 -65 50c-89 0 -154 -78 -154 -165c0 -91 41 -167 135 -167c70 0 116 42 153 42c12 0 25 -7 25 -22c0 -10 -2 -20 -10 -26c-19 -17 -37 -27 -79 -38
c-23 -7 -55 -11 -77 -15v-58c0 -25 -10 -39 -34 -39s-32 14 -32 37v68c-102 19 -162 102 -162 206c0 116 69 208 185 226v45c0 23 7 29 29 29z" />
    <glyph glyph-name="currency" unicode="&#xa4;" 
d="M474 625l33 -31l-86 -87c24 -31 36 -67 36 -106c0 -40 -11 -77 -36 -108l86 -85l-33 -34l-84 88c-31 -26 -68 -38 -108 -38s-77 12 -108 38l-86 -88l-32 34l86 85c-24 32 -37 68 -37 108c0 39 13 75 37 106l-86 87l32 31l86 -84c31 23 69 36 108 36c40 0 75 -13 108 -36z
M282 532c-70 0 -133 -60 -130 -131c0 -72 58 -130 130 -130c71 0 131 59 131 130s-60 131 -131 131z" />
    <glyph glyph-name="dollar" unicode="$" 
d="M275 694c20 0 29 -7 29 -28v-61c47 -1 80 -8 103 -20s34 -30 34 -56v-68c0 -17 -15 -29 -34 -29c-20 0 -30 15 -32 46c-6 51 -16 79 -81 79c-53 0 -119 -31 -119 -94c0 -27 9 -48 27 -63c17 -16 54 -36 112 -57c78 -29 156 -64 156 -161c0 -93 -69 -164 -166 -170v-100
c0 -19 -4 -37 -30 -37c-21 0 -30 14 -30 35v98c-64 5 -105 12 -125 20c-20 9 -30 24 -30 45v87c0 18 3 38 28 38c16 0 26 -14 28 -40c6 -63 51 -99 117 -99c62 0 130 31 130 104c0 42 -39 77 -112 106l-56 22c-67 28 -126 70 -126 153c0 41 13 75 37 103c25 27 63 47 109 57
v60c0 20 11 30 31 30z" />
    <glyph glyph-name="Euro" unicode="&#x20ac;" 
d="M340 627c52 0 107 -23 155 -48c29 -15 37 -36 38 -60l3 -55c0 -21 -9 -43 -35 -43c-17 0 -34 13 -34 43v4c-2 58 -50 98 -111 98c-91 0 -144 -66 -164 -152h205c16 0 34 -9 34 -28c0 -15 -16 -26 -34 -26h-213c-1 -17 -2 -36 -2 -55v-14h183c16 0 33 -9 33 -28
c0 -17 -15 -28 -33 -28h-180c11 -81 53 -191 155 -191c54 0 95 31 118 83c10 22 16 78 50 78c18 0 28 -17 28 -36v-76c0 -71 -145 -109 -202 -109c-140 0 -217 121 -239 251h-51c-14 0 -31 10 -31 28c0 16 14 28 31 28h48v14c0 16 1 29 2 55h-27c-15 0 -33 10 -33 26
s15 28 33 28h36c27 113 106 213 237 213z" />
    <glyph glyph-name="florin" unicode="&#x192;" 
d="M425 644c39 0 71 -10 99 -28c27 -17 40 -38 40 -60c0 -17 -9 -33 -30 -33c-28 0 -39 24 -44 50c-13 16 -38 29 -62 29c-59 0 -76 -54 -84 -111l-13 -114h71c18 0 39 0 39 -24c0 -23 -20 -28 -44 -28h-71l-45 -364c-11 -84 -57 -156 -153 -156c-48 0 -144 23 -144 87
c0 17 10 34 30 34c28 0 42 -26 47 -51c12 -20 37 -27 62 -27c65 0 78 60 86 120l42 357h-75c-12 0 -24 9 -24 24c0 21 18 28 40 28h62l17 116c11 85 59 151 154 151z" />
    <glyph glyph-name="uni20AA" unicode="&#x20aa;" 
d="M74 579c9 -1 14 -8 16 -17l9 -29c3 -11 5 -20 20 -20c20 0 38 2 85 2c41 0 87 -1 121 -33c34 -31 34 -61 34 -102v-205c0 -12 -9 -21 -22 -21h-17c-13 0 -21 9 -21 21v160c0 31 -3 60 -16 73c-21 22 -35 23 -83 23c-21 0 -60 -3 -81 -8v-402c0 -12 -10 -21 -21 -21h-24
c-12 0 -23 9 -23 21v537c0 11 9 21 23 21zM431 556c2 0 5 -1 9 -2c16 -6 61 -47 66 -68c1 -6 1 -13 1 -20c0 -79 -15 -202 -39 -296c-6 -27 -43 -181 -141 -181c-85 0 -104 52 -113 102c-8 46 -11 64 -24 130c-2 11 -17 17 -17 37c0 3 -2 25 -2 62v20c0 14 11 17 22 17
c60 0 60 -52 60 -116c0 -84 9 -158 72 -158c90 0 110 201 110 300c0 11 -10 37 -23 47c-12 8 -25 11 -23 26c0 15 19 70 25 81c2 9 7 19 17 19z" />
    <glyph glyph-name="sterling" unicode="&#xa3;" 
d="M307 643c38 0 72 -9 99 -25c28 -15 41 -35 41 -56c0 -19 -13 -34 -33 -34c-27 0 -41 24 -49 47c-20 14 -34 23 -58 23c-55 0 -86 -36 -86 -91c0 -40 10 -62 23 -110h100c25 0 45 -2 45 -26c0 -21 -22 -27 -42 -27h-89c8 -29 13 -60 13 -90c0 -65 -21 -122 -60 -175
c33 11 40 13 63 13c21 0 45 -8 70 -21c26 -15 43 -22 51 -22c15 0 31 5 51 15c21 11 35 18 41 18c15 0 25 -14 25 -26c0 -17 -15 -35 -42 -52c-29 -14 -59 -23 -90 -23c-19 0 -46 9 -81 27c-36 18 -65 28 -88 28s-47 -8 -71 -23c-25 -15 -39 -22 -45 -22c-14 0 -22 7 -22 21
s30 40 50 52c49 43 72 88 72 155c0 43 -9 81 -21 125h-45c-22 0 -41 7 -41 30c0 18 15 23 32 23h42c-14 35 -19 71 -19 106c0 101 66 140 164 140z" />
    <glyph glyph-name="yen" unicode="&#xa5;" 
d="M483 614c21 0 42 -6 42 -30c0 -13 -9 -22 -25 -27c-12 -2 -19 -6 -27 -16c-7 -9 -11 -19 -18 -30l-50 -97h79c18 0 32 -10 32 -28c0 -16 -14 -26 -32 -26h-109l-35 -69h144c17 0 32 -11 32 -28c0 -19 -14 -28 -32 -28h-157v-176h97c21 0 39 -5 39 -29
c0 -22 -19 -30 -39 -30h-241c-23 0 -39 8 -39 31s16 28 39 28h68v176h-180c-17 0 -32 9 -32 28c0 17 17 28 32 28h161l-47 69h-114c-17 0 -32 10 -32 26c0 18 15 28 32 28h79l-76 119c-6 10 -24 22 -34 24c-20 4 -30 9 -30 28c0 25 14 29 39 29h165c24 0 38 -5 38 -30
c0 -23 -17 -30 -38 -30h-70l143 -244l119 244h-56c-24 0 -36 7 -36 30s13 30 36 30h133z" />
    <glyph glyph-name="plus" unicode="+" 
d="M293 589c12 0 21 -10 21 -21v-207h208c12 0 21 -9 21 -21v-29c0 -12 -9 -21 -21 -21h-208v-207c0 -12 -9 -21 -21 -21h-28c-11 0 -22 9 -22 21v207h-206c-11 0 -21 9 -21 21v29c0 12 10 21 21 21h206v207c0 11 11 21 22 21h28z" />
    <glyph glyph-name="minus" unicode="&#x2212;" horiz-adv-x="500" 
d="M444 321c12 0 21 -10 21 -21v-29c0 -12 -9 -21 -21 -21h-386c-13 0 -23 9 -23 21v29c0 11 10 21 23 21h386z" />
    <glyph glyph-name="multiply" unicode="&#xd7;" horiz-adv-x="555" 
d="M435 461l20 -20c9 -9 9 -21 0 -30l-128 -128l127 -128c9 -8 9 -21 0 -30l-19 -18c-8 -8 -22 -10 -31 -2l-128 128l-126 -128c-8 -7 -21 -8 -30 0l-20 20c-9 9 -8 23 0 30l126 128l-127 128c-8 7 -7 23 1 31l19 19c9 9 22 7 30 0l127 -128l129 128c9 9 21 9 30 0z" />
    <glyph glyph-name="divide" unicode="&#xf7;" 
d="M280 478c29 0 52 -23 52 -52s-23 -51 -52 -51s-51 22 -51 51s22 52 51 52zM493 317c12 0 21 -8 21 -21v-26c0 -11 -9 -24 -21 -24h-432c-11 0 -21 13 -21 24v26c0 13 10 21 21 21h432zM280 196c29 0 52 -23 52 -52s-23 -51 -52 -51s-51 22 -51 51s22 52 51 52z" />
    <glyph glyph-name="equal" unicode="=" 
d="M522 465c12 0 21 -9 21 -21v-29c0 -12 -9 -21 -21 -21h-485c-11 0 -21 9 -21 21v29c0 12 10 21 21 21h485zM522 255c12 0 21 -10 21 -21v-30c0 -11 -9 -21 -21 -21h-485c-11 0 -21 10 -21 21v30c0 11 10 21 21 21h485z" />
    <glyph glyph-name="greater" unicode="&#x3e;" 
d="M82 527c10 0 18 -4 28 -9c362 -163 364 -167 364 -167c28 -15 41 -27 41 -41c0 -16 -12 -28 -41 -41l-349 -164c-12 -5 -34 -16 -43 -16c-24 0 -39 18 -39 36c0 24 20 36 38 44l316 140l-316 138c-21 9 -38 19 -38 43c0 21 18 37 39 37z" />
    <glyph glyph-name="less" unicode="&#x3c;" 
d="M476 527c21 0 39 -16 39 -37c0 -24 -17 -34 -38 -43l-316 -138l316 -140c18 -8 38 -20 38 -44c0 -18 -14 -36 -39 -36c-11 0 -31 11 -43 16l-349 164c-28 13 -41 25 -41 41c0 14 14 26 41 41c0 0 3 4 364 167c10 5 20 9 28 9z" />
    <glyph glyph-name="plusminus" unicode="&#xb1;" 
d="M293 589c12 0 21 -10 21 -21v-136h137c12 0 21 -9 21 -21v-29c0 -12 -9 -21 -21 -21h-137v-136c0 -12 -9 -21 -21 -21h-28c-11 0 -22 9 -22 21v136h-135c-11 0 -21 9 -21 21v29c0 12 10 21 21 21h135v136c0 11 11 21 22 21h28zM451 104c12 0 21 -9 21 -21v-29
c0 -12 -9 -21 -21 -21h-343c-11 0 -21 9 -21 21v29c0 12 10 21 21 21h343z" />
    <glyph glyph-name="asciitilde" unicode="~" 
d="M186 339c22 0 53 -7 95 -20c41 -14 73 -19 93 -19s40 5 62 16c21 11 36 17 40 17c7 0 12 -2 17 -8c3 -4 5 -11 5 -20c0 -16 -14 -33 -41 -50c-25 -15 -54 -23 -85 -23c-20 0 -52 7 -95 19c-42 13 -72 20 -93 20c-20 0 -40 -6 -62 -17s-37 -16 -39 -16c-9 0 -13 2 -19 6
c-2 6 -3 11 -3 21c0 17 13 34 39 49c25 17 55 25 86 25z" />
    <glyph glyph-name="logicalnot" unicode="&#xac;" 
d="M486 412c12 0 28 -5 28 -18v-200c0 -21 -16 -35 -36 -35s-34 16 -34 35v151h-363c-21 0 -37 14 -37 35c0 18 18 32 37 32h405z" />
    <glyph glyph-name="percent" unicode="%" 
d="M453 582c23 -8 22 -30 12 -48l-321 -537c-9 -16 -21 -33 -43 -26c-29 10 -22 31 -11 50l320 537c8 15 22 31 43 24zM178 582c25 0 34 -3 41 -3h103c16 0 30 -13 30 -30c0 -16 -14 -28 -30 -28h-50c10 -13 14 -31 14 -48c0 -60 -48 -109 -108 -109s-109 49 -109 109
s49 109 109 109zM176 528c-28 0 -52 -25 -52 -54s24 -53 52 -53c29 0 54 24 54 53s-25 54 -54 54zM371 192c60 0 109 -49 109 -109s-49 -109 -109 -109s-109 49 -109 109s49 109 109 109zM370 139c-29 0 -53 -26 -53 -55c0 -28 24 -53 53 -53c28 0 53 25 53 53
c0 29 -25 55 -53 55z" />
    <glyph glyph-name="perthousand" unicode="&#x2030;" horiz-adv-x="642" 
d="M384 582c23 -8 22 -30 12 -48l-321 -537c-8 -16 -21 -33 -43 -26c-29 10 -22 31 -11 50l320 537c9 15 22 31 43 24zM131 582c7 0 28 -3 34 -3h98c17 0 30 -13 30 -30c0 -16 -13 -28 -30 -28h-38c10 -13 15 -31 15 -48c0 -60 -49 -109 -109 -109s-109 49 -109 109
s49 109 109 109zM130 528c-29 0 -52 -25 -52 -54s23 -53 52 -53s53 24 53 53s-24 54 -53 54zM285 192c60 0 109 -49 109 -109s-49 -109 -109 -109s-109 49 -109 109s49 109 109 109zM529 192c60 0 109 -49 109 -109s-49 -109 -109 -109c-59 0 -108 49 -108 109
s49 109 108 109zM284 139c-29 0 -52 -26 -52 -55c0 -28 23 -53 52 -53s53 25 53 53c0 29 -24 55 -53 55zM528 139c-28 0 -52 -26 -52 -55c0 -28 24 -53 52 -53c29 0 54 25 54 53c0 29 -25 55 -54 55z" />
    <glyph glyph-name="at" unicode="@" 
d="M305 663c108 0 169 -85 169 -190c0 -26 -3 -61 -10 -108c-4 -40 -19 -93 -3 -135c5 -17 16 -22 31 -34c12 -10 19 -16 19 -24c0 -13 -13 -25 -28 -25c-21 0 -40 13 -58 27c-19 -31 -54 -54 -94 -54c-80 0 -120 80 -120 154c0 78 45 180 139 180c21 0 40 -7 58 -19v27
c0 73 -33 142 -108 142c-137 0 -166 -212 -166 -320c0 -125 38 -325 206 -325c53 0 85 23 114 23c18 0 29 -11 29 -31c0 -41 -102 -51 -139 -51c-201 0 -277 203 -277 384c0 142 48 379 238 379zM350 395c-63 0 -80 -70 -80 -126c0 -39 11 -97 63 -97c38 0 60 38 63 74
c0 8 -1 17 -1 49c0 26 6 51 9 78c-15 11 -31 22 -54 22z" />
    <glyph glyph-name="ampersand" unicode="&#x26;" 
d="M232 625c33 0 127 -18 127 -66c0 -16 -18 -34 -36 -34c-30 0 -39 38 -87 38c-18 0 -32 -6 -44 -18c-11 -11 -18 -26 -18 -44c0 -30 24 -67 41 -97l129 -215c6 19 10 43 15 72c5 32 6 48 34 48h40c20 0 37 -4 37 -35c0 -23 -20 -25 -37 -25h-16c-3 -25 -7 -47 -14 -70
c-7 -22 -16 -45 -24 -65l24 -35c8 -14 14 -18 21 -18c16 0 23 19 39 19c18 0 24 -16 25 -33c0 -34 -34 -68 -68 -68c-23 0 -46 32 -58 49l-18 26c-21 -42 -63 -70 -114 -70c-95 0 -160 89 -160 183c0 74 40 127 104 166l-47 84c-15 26 -27 50 -27 84c0 73 58 124 132 124z
M214 273c-41 -13 -65 -49 -65 -95c0 -48 29 -120 87 -120c37 0 56 30 68 62z" />
    <glyph glyph-name="paragraph" unicode="&#xb6;" 
d="M273 624c16 0 31 -15 31 -30v-659c0 -20 -11 -33 -31 -33c-22 0 -31 11 -32 35v342h-2c-13 -2 -21 -3 -26 -3c-109 0 -142 71 -142 178c0 99 50 170 152 170h50zM462 624c15 0 30 -12 30 -28c0 -17 -14 -28 -30 -28h-21v-636c0 -20 -13 -30 -31 -30c-16 0 -31 13 -30 30
v662c0 16 13 30 30 30h52z" />
    <glyph glyph-name="section" unicode="&#xa7;" 
d="M290 627c57 0 102 -13 142 -53v-56c0 -33 -11 -47 -45 -47c-26 0 -46 16 -46 44c0 12 2 18 8 31c-15 20 -35 28 -59 28c-39 0 -64 -21 -64 -60c0 -40 28 -60 58 -93l90 -87c51 -49 84 -81 84 -141c0 -49 -15 -84 -50 -120c13 -26 26 -52 26 -80c0 -81 -73 -127 -150 -127
c-59 0 -110 13 -142 59v63c0 29 17 48 46 48c26 0 44 -20 44 -48c0 -11 -4 -24 -8 -34c17 -22 34 -29 60 -29c40 0 62 27 62 67c0 22 -20 52 -62 91l-82 74c-55 52 -89 95 -89 166c0 46 18 83 54 113c-15 27 -25 49 -25 78c0 77 76 113 148 113zM202 387
c-14 -21 -19 -35 -19 -60c0 -32 35 -77 107 -139c34 -31 62 -56 82 -75c11 19 20 37 20 58c0 33 -36 80 -106 141c-35 31 -63 55 -84 75z" />
    <glyph glyph-name="copyright" unicode="&#xa9;" 
d="M280 579c148 0 268 -119 268 -268s-120 -269 -268 -269c-149 0 -269 120 -269 269s120 268 269 268zM280 534c-123 0 -223 -101 -223 -224c0 -124 100 -223 223 -223s224 99 224 223c0 123 -101 224 -224 224zM279 477c25 0 45 -5 68 -13c8 6 13 9 25 10
c31 0 26 -37 26 -66v-31c0 -17 -5 -31 -27 -31c-16 0 -26 14 -31 38l-1 7c-8 24 -35 35 -62 35c-65 0 -93 -55 -93 -119c0 -59 34 -113 96 -113c20 0 41 7 62 19c22 13 33 20 35 20c17 0 27 -11 27 -27c0 -14 -13 -30 -40 -44c-28 -17 -55 -24 -88 -24
c-93 0 -154 75 -154 167s61 172 157 172z" />
    <glyph glyph-name="registered" unicode="&#xae;" 
d="M280 579c148 0 268 -119 268 -268s-120 -269 -268 -269c-149 0 -269 120 -269 269s120 268 269 268zM280 534c-123 0 -223 -101 -223 -224c0 -124 100 -223 223 -223s224 99 224 223c0 123 -101 224 -224 224zM255 468c72 0 130 -17 130 -93c0 -34 -21 -66 -55 -76
c6 -6 6 -8 11 -15l46 -71h10c19 0 27 -7 27 -25c0 -16 -10 -25 -27 -25h-26c-18 0 -22 8 -32 23l-47 72c-17 23 -20 32 -42 32h-9v-77h9c20 0 34 -5 34 -25c0 -19 -13 -25 -33 -25h-82c-16 0 -25 11 -25 25c0 23 14 25 38 25h6v205h-19c-11 0 -25 3 -25 26c0 13 10 24 25 24
h86zM269 418h-28v-82h25c33 0 61 9 61 43s-25 39 -58 39z" />
    <glyph glyph-name="trademark" unicode="&#x2122;" 
d="M232 572c13 0 22 -10 23 -25l4 -77c0 -12 -10 -25 -24 -25c-17 0 -23 16 -24 33l-1 44h-30v-159h16c17 0 33 -6 33 -27c0 -12 -10 -24 -25 -24h-99c-13 0 -22 10 -22 24c0 19 10 27 31 27h17v159h-30l-1 -44c0 -15 -5 -33 -26 -33c-15 0 -21 13 -21 31l1 70
c0 12 9 26 25 26h153zM476 571c12 0 24 -10 24 -25c0 -12 -8 -20 -22 -24l5 -159c13 -2 24 -10 24 -27c0 -12 -9 -24 -23 -24h-49c-14 0 -30 7 -30 24s11 27 30 27h3v128l-23 -86c-3 -12 -11 -22 -25 -22c-15 0 -24 7 -27 22l-23 86v-128h3c16 0 31 -7 31 -27
c0 -15 -13 -24 -30 -24h-49c-12 0 -22 10 -22 24c0 15 6 24 22 27l5 159c-11 4 -19 9 -19 24c0 12 9 25 23 25h29c13 0 24 -8 30 -23l27 -98l27 98c4 13 14 23 29 23h30z" />
    <glyph glyph-name="degree" unicode="&#xb0;" 
d="M280 634c80 0 145 -66 145 -146s-65 -145 -145 -145s-146 65 -146 145s66 146 146 146zM279 574c-45 0 -81 -40 -81 -84c0 -45 36 -83 81 -83c43 0 82 38 82 83c0 44 -39 84 -82 84z" />
    <glyph glyph-name="bar" unicode="|" horiz-adv-x="367" 
d="M199 687c10 0 21 -10 21 -21v-800c0 -13 -11 -21 -21 -21h-30c-11 0 -22 8 -22 21v800c0 11 11 21 22 21h30z" />
    <glyph glyph-name="brokenbar" unicode="&#xa6;" 
d="M305 648v-343h-54v343h54zM305 184v-344h-54v344h54z" />
    <glyph glyph-name="dagger" unicode="&#x2020;" 
d="M279 627c27 0 38 -8 43 -33c-10 -35 -17 -71 -17 -111v-9h10c32 0 77 8 109 17c26 -4 33 -17 33 -43s-7 -37 -33 -40c-33 9 -72 14 -110 14h-9c1 -37 9 -68 25 -100c-13 -60 -23 -120 -23 -175l-4 -168c0 -16 -2 -43 -24 -43c-20 0 -25 25 -25 43l-4 168
c-1 56 -10 115 -21 175c16 33 23 63 23 100h-8c-30 0 -79 -6 -110 -14c-24 2 -34 16 -34 40c0 25 10 40 33 43c34 -10 72 -17 111 -17h8v9c0 33 -8 78 -17 111c1 25 18 33 44 33z" />
    <glyph glyph-name="daggerdbl" unicode="&#x2021;" 
d="M279 627c27 0 38 -8 43 -33c-10 -35 -17 -71 -17 -111v-9h10c32 0 69 8 101 17c26 -4 34 -17 34 -43s-8 -37 -34 -40c-33 9 -64 14 -102 14h-9c1 -37 9 -87 25 -119c-17 -33 -24 -85 -24 -122h8c30 0 71 5 102 13c25 -1 35 -15 35 -40c0 -24 -10 -40 -34 -42
c-33 10 -64 17 -103 17h-8v-9c0 -33 8 -78 17 -111c-1 -26 -18 -33 -43 -33c-28 0 -39 7 -44 33c10 34 17 71 17 111v9h-10c-32 0 -69 -8 -101 -17c-25 3 -33 17 -33 42c0 27 8 38 33 40c33 -9 64 -13 102 -13h9c-1 37 -9 90 -24 122c16 33 23 82 23 119h-8
c-30 0 -71 -6 -102 -14c-24 2 -34 16 -34 40c0 25 10 40 33 43c33 -10 64 -17 103 -17h8v9c0 33 -8 78 -17 111c1 25 18 33 44 33z" />
    <glyph glyph-name="asciicircum" unicode="^" 
d="M279 626c11 0 24 -2 31 -10l125 -161c8 -8 8 -22 -1 -31c-6 -6 -20 -12 -29 -3l-126 125l-126 -125c-8 -8 -21 -4 -29 3c-7 7 -7 22 -1 31l125 159c6 9 17 12 31 12z" />
    <glyph glyph-name="bar.proportional" 
d="M279 730c16 0 37 -6 37 -22v-928c0 -15 -24 -22 -37 -22s-37 7 -37 22l-1 928c0 16 22 22 38 22z" />
    <glyph glyph-name="uni0308" unicode="&#x308;" horiz-adv-x="0" 
d="M-399 629c31 0 55 -24 55 -55s-24 -55 -55 -55s-55 24 -55 55s24 55 55 55zM-160 629c32 0 56 -24 56 -55s-24 -55 -56 -55c-31 0 -54 24 -54 55s23 55 54 55z" />
    <glyph glyph-name="uni0307" unicode="&#x307;" horiz-adv-x="0" 
d="M-279 629c32 0 57 -25 57 -57c0 -33 -25 -57 -57 -57c-33 0 -57 24 -57 57c0 32 24 57 57 57z" />
    <glyph glyph-name="gravecomb" unicode="&#x300;" horiz-adv-x="0" 
d="M-408 656c31 0 56 -19 83 -38l123 -90c5 -3 11 -6 11 -14c0 -9 -6 -14 -16 -14c-9 0 -29 7 -37 11l-157 60c-19 6 -53 20 -53 46c0 23 20 39 46 39z" />
    <glyph glyph-name="acutecomb" unicode="&#x301;" horiz-adv-x="0" 
d="M-152 656c26 0 46 -16 46 -39c0 -26 -34 -40 -52 -46l-158 -60c-8 -4 -28 -11 -37 -11c-10 0 -16 5 -16 14c0 8 6 11 11 14l123 90c27 19 52 38 83 38z" />
    <glyph glyph-name="uni030B" unicode="&#x30b;" horiz-adv-x="0" 
d="M-239 656c21 0 31 -20 31 -40c0 -22 -16 -37 -36 -48l-106 -59c-12 -6 -18 -9 -22 -9c-6 0 -12 4 -12 14c0 5 1 9 7 14l83 90c13 14 31 38 55 38zM-91 656c20 0 30 -20 30 -40c0 -21 -15 -38 -34 -48l-106 -57c-13 -8 -21 -11 -23 -11c-7 0 -13 5 -13 14c0 4 3 11 6 14
l85 90c13 15 32 38 55 38z" />
    <glyph glyph-name="uni0302" unicode="&#x302;" horiz-adv-x="0" 
d="M-254 645c17 0 28 -10 41 -22c4 -4 96 -104 96 -112s-9 -15 -18 -15c-13 0 -25 7 -36 15l-80 54c-7 6 -15 9 -27 9c-10 0 -19 -2 -28 -9l-80 -54c-10 -7 -21 -15 -34 -15c-8 0 -19 5 -19 15s77 93 96 112c10 10 23 22 40 22h49z" />
    <glyph glyph-name="uni030C" unicode="&#x30c;" horiz-adv-x="0" 
d="M-136 650c8 0 19 -4 19 -14s-78 -93 -97 -112c-10 -10 -22 -22 -40 -22h-49c-16 0 -27 10 -41 22c-3 3 -95 103 -95 112c0 8 9 14 18 14c13 0 24 -6 35 -14l80 -54c8 -6 16 -9 28 -9c10 0 19 2 27 9l80 54c10 7 21 14 35 14z" />
    <glyph glyph-name="uni0306" unicode="&#x306;" horiz-adv-x="0" 
d="M-124 634c10 0 21 -1 21 -16c0 -24 -18 -49 -51 -71c-35 -23 -77 -33 -125 -33s-89 11 -125 33c-34 24 -51 47 -51 69c0 11 8 18 21 18c17 0 27 -15 38 -26c12 -11 26 -17 44 -23c18 -3 43 -8 73 -8c32 0 55 4 75 8c21 6 35 16 51 32c9 11 19 17 29 17z" />
    <glyph glyph-name="uni030A" unicode="&#x30a;" horiz-adv-x="0" 
d="M-279 717c62 0 116 -50 115 -113c0 -65 -51 -114 -115 -114s-114 49 -114 114c0 62 51 113 114 113zM-279 665c-31 0 -61 -28 -61 -61c0 -35 27 -62 61 -62c33 0 62 29 62 62s-30 61 -62 61z" />
    <glyph glyph-name="tildecomb" unicode="&#x303;" horiz-adv-x="0" 
d="M-133 636c10 0 18 -7 18 -16c0 -58 -62 -86 -103 -86c-16 0 -33 1 -43 2l-63 10c-10 1 -20 5 -33 5c-18 0 -32 -7 -42 -18c-10 -12 -17 -18 -25 -18c-5 0 -19 2 -19 14c0 57 65 88 117 88c12 0 26 -1 38 -3l56 -10c8 -1 21 -5 29 -5c18 0 30 7 42 19c11 12 21 18 28 18z
" />
    <glyph glyph-name="uni0304" unicode="&#x304;" horiz-adv-x="0" 
d="M-153 599c25 0 36 -6 36 -31c0 -17 -17 -30 -36 -30h-251c-20 0 -36 10 -36 30c0 23 15 31 36 31h251z" />
    <glyph glyph-name="uni0327" unicode="&#x327;" horiz-adv-x="0" 
d="M-287 -6l33 -2l-12 -51h22c53 0 90 -23 90 -78c0 -56 -45 -82 -101 -82c-32 0 -62 6 -89 17c-28 11 -42 22 -42 34c0 10 8 23 18 23c3 0 15 -6 39 -17c22 -10 43 -14 64 -14c27 0 46 11 46 39c0 26 -16 39 -43 42h-12c-20 0 -31 7 -31 20c0 7 6 31 11 47z" />
    <glyph glyph-name="uni0328" unicode="&#x328;" horiz-adv-x="0" 
d="M-214 14c-42 -41 -82 -75 -82 -119c0 -32 18 -50 43 -50c22 0 49 28 58 28c6 0 9 -3 10 -8c0 -33 -57 -71 -101 -71c-41 0 -73 26 -73 67c0 70 65 111 123 153h22z" />
    <glyph glyph-name="acute" unicode="&#xb4;" horiz-adv-x="600" 
d="M406 656c26 0 46 -16 46 -39c0 -26 -34 -40 -52 -46l-158 -60c-8 -4 -28 -11 -37 -11c-10 0 -16 5 -16 14c0 8 6 11 11 14l123 90c27 19 52 38 83 38z" />
    <glyph glyph-name="breve" unicode="&#x2d8;" horiz-adv-x="600" 
d="M434 634c10 0 21 -1 21 -16c0 -24 -18 -49 -51 -71c-35 -23 -77 -33 -125 -33s-89 11 -125 33c-34 24 -51 47 -51 69c0 11 8 18 21 18c17 0 27 -15 38 -26c12 -11 26 -17 44 -23c18 -3 43 -8 73 -8c32 0 55 4 75 8c21 6 35 16 51 32c9 11 19 17 29 17z" />
    <glyph glyph-name="caron" unicode="&#x2c7;" horiz-adv-x="600" 
d="M422 650c8 0 19 -4 19 -14s-78 -93 -97 -112c-10 -10 -22 -22 -40 -22h-49c-16 0 -27 10 -41 22c-3 3 -95 103 -95 112c0 8 9 14 18 14c13 0 24 -6 35 -14l80 -54c8 -6 16 -9 28 -9c10 0 19 2 27 9l80 54c10 7 21 14 35 14z" />
    <glyph glyph-name="cedilla" unicode="&#xb8;" horiz-adv-x="600" 
d="M271 -6l33 -2l-12 -51h22c53 0 90 -23 90 -78c0 -56 -45 -82 -101 -82c-32 0 -62 6 -89 17c-28 11 -42 22 -42 34c0 10 8 23 18 23c3 0 15 -6 39 -17c22 -10 43 -14 64 -14c27 0 46 11 46 39c0 26 -16 39 -43 42h-12c-20 0 -31 7 -31 20c0 7 6 31 11 47z" />
    <glyph glyph-name="circumflex" unicode="&#x2c6;" horiz-adv-x="600" 
d="M304 645c17 0 28 -10 41 -22c4 -4 96 -104 96 -112s-9 -15 -18 -15c-13 0 -25 7 -36 15l-80 54c-7 6 -15 9 -27 9c-10 0 -19 -2 -28 -9l-80 -54c-10 -7 -21 -15 -34 -15c-8 0 -19 5 -19 15s77 93 96 112c10 10 23 22 40 22h49z" />
    <glyph glyph-name="dieresis" unicode="&#xa8;" horiz-adv-x="600" 
d="M159 629c31 0 55 -24 55 -55s-24 -55 -55 -55s-55 24 -55 55s24 55 55 55zM398 629c32 0 56 -24 56 -55s-24 -55 -56 -55c-31 0 -54 24 -54 55s23 55 54 55z" />
    <glyph glyph-name="dotaccent" unicode="&#x2d9;" horiz-adv-x="600" 
d="M279 629c32 0 57 -25 57 -57c0 -33 -25 -57 -57 -57c-33 0 -57 24 -57 57c0 32 24 57 57 57z" />
    <glyph glyph-name="grave" unicode="`" horiz-adv-x="600" 
d="M150 656c31 0 56 -19 83 -38l123 -90c5 -3 11 -6 11 -14c0 -9 -6 -14 -16 -14c-9 0 -29 7 -37 11l-157 60c-19 6 -53 20 -53 46c0 23 20 39 46 39z" />
    <glyph glyph-name="hungarumlaut" unicode="&#x2dd;" horiz-adv-x="600" 
d="M319 656c21 0 31 -20 31 -40c0 -22 -16 -37 -36 -48l-106 -59c-12 -6 -18 -9 -22 -9c-6 0 -12 4 -12 14c0 5 1 9 7 14l83 90c13 14 31 38 55 38zM467 656c20 0 30 -20 30 -40c0 -21 -15 -38 -34 -48l-106 -57c-13 -8 -21 -11 -23 -11c-7 0 -13 5 -13 14c0 4 3 11 6 14
l85 90c13 15 32 38 55 38z" />
    <glyph glyph-name="macron" unicode="&#xaf;" horiz-adv-x="600" 
d="M405 599c25 0 36 -6 36 -31c0 -17 -17 -30 -36 -30h-251c-20 0 -36 10 -36 30c0 23 15 31 36 31h251z" />
    <glyph glyph-name="ogonek" unicode="&#x2db;" horiz-adv-x="600" 
d="M344 14c-42 -41 -82 -75 -82 -119c0 -32 18 -50 43 -50c22 0 49 28 58 28c6 0 9 -3 10 -8c0 -33 -57 -71 -101 -71c-41 0 -73 26 -73 67c0 70 65 111 123 153h22z" />
    <glyph glyph-name="ring" unicode="&#x2da;" horiz-adv-x="600" 
d="M279 717c62 0 116 -50 115 -113c0 -65 -51 -114 -115 -114s-114 49 -114 114c0 62 51 113 114 113zM279 665c-31 0 -61 -28 -61 -61c0 -35 27 -62 61 -62c33 0 62 29 62 62s-30 61 -62 61z" />
    <glyph glyph-name="tilde" unicode="&#x2dc;" horiz-adv-x="600" 
d="M425 636c10 0 18 -7 18 -16c0 -58 -62 -86 -103 -86c-16 0 -33 1 -43 2l-63 10c-10 1 -20 5 -33 5c-18 0 -32 -7 -42 -18c-10 -12 -17 -18 -25 -18c-5 0 -19 2 -19 14c0 57 65 88 117 88c12 0 26 -1 38 -3l56 -10c8 -1 21 -5 29 -5c18 0 30 7 42 19c11 12 21 18 28 18z
" />
    <glyph glyph-name="uni05B0" unicode="&#x5b0;" horiz-adv-x="0" 
d="M94 -84c24 0 44 -20 44 -45c0 -24 -20 -44 -44 -44s-44 20 -44 44c0 25 20 45 44 45zM94 -219c24 0 44 -20 44 -44s-20 -44 -44 -44s-44 20 -44 44s20 44 44 44z" />
    <glyph glyph-name="uni05B1" unicode="&#x5b1;" horiz-adv-x="0" 
d="M95 -84c24 0 44 -20 44 -45c0 -24 -20 -44 -44 -44c-25 0 -45 20 -45 44c0 25 20 45 45 45zM241 -84c25 0 45 -20 45 -45c0 -24 -20 -44 -45 -44c-24 0 -44 20 -44 44c0 25 20 45 44 45zM381 -84c25 0 44 -20 44 -45c0 -24 -19 -44 -44 -44c-24 0 -44 20 -44 44
c0 25 20 45 44 45zM168 -219c24 0 44 -20 44 -44s-20 -44 -44 -44s-44 20 -44 44s20 44 44 44zM381 -219c25 0 44 -20 44 -44s-19 -44 -44 -44c-24 0 -44 20 -44 44s20 44 44 44z" />
    <glyph glyph-name="uni05B2" unicode="&#x5b2;" horiz-adv-x="0" 
d="M348 -84c24 0 44 -20 44 -45c0 -24 -20 -44 -44 -44c-25 0 -45 20 -45 44c0 25 20 45 45 45zM243 -95c12 0 16 -3 16 -16v-24c0 -13 -2 -16 -16 -16h-177c-14 0 -16 3 -16 16v24c0 13 2 16 16 16h177zM348 -219c24 0 44 -20 44 -44s-20 -44 -44 -44c-25 0 -45 20 -45 44
s20 44 45 44z" />
    <glyph glyph-name="uni05B3" unicode="&#x5b3;" horiz-adv-x="0" 
d="M348 -84c24 0 44 -20 44 -45c0 -24 -20 -44 -44 -44c-25 0 -45 20 -45 44c0 25 20 45 45 45zM243 -95c12 0 16 -3 16 -16v-24c0 -13 -2 -16 -16 -16h-64l5 -43v-90c0 -11 -3 -13 -14 -13h-31c-12 0 -15 2 -15 13v90l6 43h-64c-14 0 -16 3 -16 16v24c0 13 2 16 16 16h177z
M348 -219c24 0 44 -20 44 -44s-20 -44 -44 -44c-25 0 -45 20 -45 44s20 44 45 44z" />
    <glyph glyph-name="uni05B4" unicode="&#x5b4;" horiz-adv-x="0" 
d="M94 -84c24 0 44 -20 44 -45c0 -24 -20 -44 -44 -44s-44 20 -44 44c0 25 20 45 44 45z" />
    <glyph glyph-name="uni05B5" unicode="&#x5b5;" horiz-adv-x="0" 
d="M94 -84c25 0 45 -20 45 -45c0 -24 -20 -44 -45 -44c-24 0 -44 20 -44 44c0 25 20 45 44 45zM250 -84c24 0 44 -20 44 -45c0 -24 -20 -44 -44 -44c-25 0 -45 20 -45 44c0 25 20 45 45 45z" />
    <glyph glyph-name="uni05B6" unicode="&#x5b6;" horiz-adv-x="0" 
d="M95 -84c24 0 44 -20 44 -45c0 -24 -20 -44 -44 -44c-25 0 -45 20 -45 44c0 25 20 45 45 45zM245 -84c25 0 45 -20 45 -45c0 -24 -20 -44 -45 -44c-24 0 -44 20 -44 44c0 25 20 45 44 45zM170 -219c24 0 44 -20 44 -44s-20 -44 -44 -44s-44 20 -44 44s20 44 44 44z" />
    <glyph glyph-name="uni05B7" unicode="&#x5b7;" horiz-adv-x="0" 
d="M243 -95c12 0 15 -3 15 -16v-24c0 -13 -2 -16 -15 -16h-178c-13 0 -15 3 -15 16v24c0 13 2 16 15 16h178z" />
    <glyph glyph-name="uni05B8" unicode="&#x5b8;" horiz-adv-x="0" 
d="M243 -95c12 0 15 -3 15 -16v-24c0 -13 -2 -16 -15 -16h-65l6 -43v-90c0 -11 -3 -13 -14 -13h-32c-12 0 -14 2 -14 13v90l6 43h-65c-13 0 -15 3 -15 16v24c0 13 2 16 15 16h178z" />
    <glyph glyph-name="uni05B9" unicode="&#x5b9;" horiz-adv-x="0" 
d="M94 688c24 0 44 -20 44 -44s-20 -44 -44 -44s-44 20 -44 44s20 44 44 44z" />
    <glyph glyph-name="uni05BA" unicode="&#x5ba;" horiz-adv-x="0" 
d="M94 688c24 0 44 -20 44 -44s-20 -44 -44 -44s-44 20 -44 44s20 44 44 44z" />
    <glyph glyph-name="uni05BB" unicode="&#x5bb;" horiz-adv-x="0" 
d="M95 -81c24 0 44 -20 44 -44c0 -25 -20 -45 -44 -45c-25 0 -45 20 -45 45c0 24 20 44 45 44zM210 -150c24 0 44 -20 44 -44c0 -25 -20 -45 -44 -45s-44 20 -44 45c0 24 20 44 44 44zM325 -219c25 0 45 -20 45 -44s-20 -44 -45 -44c-24 0 -44 20 -44 44s20 44 44 44z" />
    <glyph glyph-name="uni05BC" unicode="&#x5bc;" horiz-adv-x="0" 
d="M94 311c24 0 44 -20 44 -45c0 -24 -20 -44 -44 -44s-44 20 -44 44c0 25 20 45 44 45z" />
    <glyph glyph-name="uni05BF" unicode="&#x5bf;" horiz-adv-x="0" 
d="M243 662c12 0 15 -2 15 -16v-24c0 -12 -2 -16 -15 -16h-178c-13 0 -15 4 -15 16v24c0 14 2 16 15 16h178z" />
    <glyph glyph-name="uni05C1" unicode="&#x5c1;" horiz-adv-x="0" 
d="M94 688c24 0 44 -20 44 -44s-20 -44 -44 -44s-44 20 -44 44s20 44 44 44z" />
    <glyph glyph-name="uni05C2" unicode="&#x5c2;" horiz-adv-x="0" 
d="M94 688c24 0 44 -20 44 -44s-20 -44 -44 -44s-44 20 -44 44s20 44 44 44z" />
    <glyph glyph-name="uni05C7" unicode="&#x5c7;" horiz-adv-x="0" 
d="M201 -95c12 0 15 -3 15 -16v-24c0 -13 -2 -16 -15 -16h-44l6 -43v-49c0 -11 -3 -13 -14 -13h-32c-12 0 -14 2 -14 13v49l6 43h-44c-13 0 -15 3 -15 16v24c0 13 2 16 15 16h136z" />
    <glyph glyph-name="fontvendor" horiz-adv-x="666" 
d="M183 637l31 -11l10 -31l41 -20l193 -21l60 -62l48 -165v-253l-52 -74l-321 -15l-41 -11l-21 -20l-31 10l31 83l62 71l342 18l-41 205l-62 68l-187 21l-16 -62l5 -31l52 -21h53l41 11l21 -125l-94 -31l-62 21l-62 -11l-21 -21h-14l-17 21l31 32l31 9l-41 62l20 94l42 62
l-52 31l-10 31z" />
  </font>
</defs>
</svg>
